Pattaya-Regular-2.ufo
<glyph name="quotedbl" format="1">
  <advance width="723"/>
  <unicode hex="0022"/>
  <note>
	quotedbl
  </note>
  <outline>
    <contour>
      <point x="629" y="1065" type="line"/>
      <point x="854" y="1540" type="line"/>
      <point x="639" y="1540" type="line"/>
      <point x="485" y="1065" type="line"/>
    </contour>
    <contour>
      <point x="307" y="1065" type="line"/>
      <point x="532" y="1540" type="line"/>
      <point x="317" y="1540" type="line"/>
      <point x="164" y="1065" type="line"/>
    </contour>
  </outline>
</glyph>
<glyph name="numbersign" format="1">
  <advance width="1350"/>
  <unicode hex="0023"/>
  <note>
	numbersign
  </note>
  <outline>
    <contour>
      <point x="409" y="58" type="line"/>
      <point x="486" y="440" type="line"/>
      <point x="751" y="440" type="line"/>
      <point x="674" y="58" type="line"/>
      <point x="823" y="58" type="line"/>
      <point x="900" y="440" type="line"/>
      <point x="1095" y="440" type="line"/>
      <point x="1126" y="598" type="line"/>
      <point x="932" y="598" type="line"/>
      <point x="983" y="850" type="line"/>
      <point x="1183" y="850" type="line"/>
      <point x="1214" y="1008" type="line"/>
      <point x="1015" y="1008" type="line"/>
      <point x="1091" y="1379" type="line"/>
      <point x="941" y="1379" type="line"/>
      <point x="866" y="1008" type="line"/>
      <point x="601" y="1008" type="line"/>
      <point x="677" y="1379" type="line"/>
      <point x="527" y="1379" type="line"/>
      <point x="452" y="1008" type="line"/>
      <point x="241" y="1008" type="line"/>
      <point x="210" y="850" type="line"/>
      <point x="420" y="850" type="line"/>
      <point x="369" y="598" type="line"/>
      <point x="153" y="598" type="line"/>
      <point x="122" y="440" type="line"/>
      <point x="337" y="440" type="line"/>
      <point x="260" y="58" type="line"/>
    </contour>
    <contour>
      <point x="569" y="850" type="line"/>
      <point x="834" y="850" type="line"/>
      <point x="783" y="598" type="line"/>
      <point x="518" y="598" type="line"/>
    </contour>
  </outline>
</glyph>
<glyph name="dollar" format="1">
  <advance width="1122"/>
  <unicode hex="0024"/>
  <note>
	dollar
  </note>
  <outline>
    <contour>
      <point x="412" y="-293" type="line"/>
      <point x="470" y="-37" type="line"/>
      <point x="617" y="-36"/>
      <point x="747" y="17"/>
      <point x="841" y="102" type="curve" smooth="yes"/>
      <point x="935" y="187"/>
      <point x="991" y="306"/>
      <point x="991" y="438" type="curve" smooth="yes"/>
      <point x="991" y="494"/>
      <point x="982" y="546"/>
      <point x="964" y="593" type="curve" smooth="yes"/>
      <point x="927" y="687"/>
      <point x="867" y="768"/>
      <point x="798" y="843" type="curve" smooth="yes"/>
      <point x="763" y="880"/>
      <point x="730" y="917"/>
      <point x="697" y="953" type="curve"/>
      <point x="811" y="1453" type="line"/>
      <point x="864" y="1433"/>
      <point x="895" y="1386"/>
      <point x="895" y="1321" type="curve" smooth="yes"/>
      <point x="895" y="1250"/>
      <point x="862" y="1184"/>
      <point x="811" y="1147" type="curve"/>
      <point x="842" y="1106"/>
      <point x="885" y="1083"/>
      <point x="936" y="1083" type="curve" smooth="yes"/>
      <point x="981" y="1083"/>
      <point x="1021" y="1103"/>
      <point x="1049" y="1137" type="curve" smooth="yes"/>
      <point x="1076" y="1171"/>
      <point x="1092" y="1219"/>
      <point x="1092" y="1276" type="curve" smooth="yes"/>
      <point x="1092" y="1348"/>
      <point x="1067" y="1409"/>
      <point x="1023" y="1457" type="curve" smooth="yes"/>
      <point x="978" y="1504"/>
      <point x="914" y="1537"/>
      <point x="834" y="1553" type="curve"/>
      <point x="883" y="1767" type="line"/>
      <point x="778" y="1767" type="line"/>
      <point x="731" y="1563" type="line"/>
      <point x="727" y="1563" type="line" smooth="yes"/>
      <point x="598" y="1563"/>
      <point x="486" y="1523"/>
      <point x="406" y="1456" type="curve" smooth="yes"/>
      <point x="326" y="1389"/>
      <point x="279" y="1296"/>
      <point x="279" y="1188" type="curve" smooth="yes"/>
      <point x="279" y="1142"/>
      <point x="287" y="1099"/>
      <point x="303" y="1058" type="curve" smooth="yes"/>
      <point x="334" y="976"/>
      <point x="386" y="899"/>
      <point x="448" y="826" type="curve" smooth="yes"/>
      <point x="479" y="789"/>
      <point x="509" y="753"/>
      <point x="539" y="717" type="curve"/>
      <point x="401" y="109" type="line"/>
      <point x="301" y="125"/>
      <point x="240" y="191"/>
      <point x="240" y="287" type="curve" smooth="yes"/>
      <point x="240" y="340"/>
      <point x="260" y="386"/>
      <point x="293" y="418" type="curve" smooth="yes"/>
      <point x="326" y="450"/>
      <point x="375" y="469"/>
      <point x="432" y="469" type="curve"/>
      <point x="417" y="549"/>
      <point x="347" y="604"/>
      <point x="256" y="604" type="curve" smooth="yes"/>
      <point x="189" y="604"/>
      <point x="133" y="575"/>
      <point x="93" y="527" type="curve" smooth="yes"/>
      <point x="53" y="478"/>
      <point x="29" y="408"/>
      <point x="29" y="328" type="curve" smooth="yes"/>
      <point x="29" y="232"/>
      <point x="62" y="150"/>
      <point x="121" y="89" type="curve" smooth="yes"/>
      <point x="180" y="28"/>
      <point x="265" y="-14"/>
      <point x="369" y="-30" type="curve"/>
      <point x="309" y="-293" type="line"/>
    </contour>
    <contour>
      <point x="619" y="615" type="line"/>
      <point x="675" y="535"/>
      <point x="715" y="454"/>
      <point x="715" y="362" type="curve" smooth="yes"/>
      <point x="715" y="295"/>
      <point x="693" y="238"/>
      <point x="657" y="195" type="curve" smooth="yes"/>
      <point x="620" y="151"/>
      <point x="567" y="122"/>
      <point x="504" y="111" type="curve"/>
    </contour>
    <contour>
      <point x="571" y="1117"/>
      <point x="541" y="1181"/>
      <point x="541" y="1257" type="curve" smooth="yes"/>
      <point x="541" y="1310"/>
      <point x="558" y="1357"/>
      <point x="587" y="1393" type="curve" smooth="yes"/>
      <point x="616" y="1428"/>
      <point x="657" y="1452"/>
      <point x="708" y="1460" type="curve"/>
      <point x="616" y="1053" type="line"/>
    </contour>
  </outline>
</glyph>
<glyph name="quotesingle" format="1">
  <advance width="401"/>
  <unicode hex="0027"/>
  <note>
	quotesingle
  </note>
  <outline>
    <contour>
      <point x="307" y="1065" type="line"/>
      <point x="532" y="1540" type="line"/>
      <point x="317" y="1540" type="line"/>
      <point x="164" y="1065" type="line"/>
    </contour>
  </outline>
</glyph>
<glyph name="hyphen" format="1">
  <advance width="594"/>
  <unicode hex="002D"/>
  <note>
	hyphen
  </note>
  <outline>
    <contour>
      <point x="451" y="455" type="line"/>
      <point x="485" y="616" type="line"/>
      <point x="76" y="616" type="line"/>
      <point x="39" y="455" type="line"/>
    </contour>
  </outline>
</glyph>
<glyph name="period" format="1">
  <advance width="539"/>
  <unicode hex="002E"/>
  <note>
	period
  </note>
  <outline>
    <contour>
      <point x="270" y="-8"/>
      <point x="311" y="10"/>
      <point x="341" y="39" type="curve" smooth="yes"/>
      <point x="371" y="68"/>
      <point x="389" y="109"/>
      <point x="389" y="154" type="curve" smooth="yes"/>
      <point x="389" y="199"/>
      <point x="371" y="240"/>
      <point x="341" y="269" type="curve" smooth="yes"/>
      <point x="311" y="298"/>
      <point x="270" y="317"/>
      <point x="225" y="317" type="curve" smooth="yes"/>
      <point x="180" y="317"/>
      <point x="139" y="298"/>
      <point x="110" y="269" type="curve" smooth="yes"/>
      <point x="81" y="240"/>
      <point x="63" y="199"/>
      <point x="63" y="154" type="curve" smooth="yes"/>
      <point x="63" y="109"/>
      <point x="81" y="68"/>
      <point x="110" y="39" type="curve" smooth="yes"/>
      <point x="139" y="10"/>
      <point x="180" y="-8"/>
      <point x="225" y="-8" type="curve" smooth="yes"/>
    </contour>
  </outline>
</glyph>
<glyph name="three" format="1">
  <advance width="1053"/>
  <unicode hex="0033"/>
  <note>
	three
  </note>
  <outline>
    <contour>
      <point x="536" y="-10"/>
      <point x="640" y="20"/>
      <point x="725" y="71" type="curve" smooth="yes"/>
      <point x="810" y="122"/>
      <point x="878" y="192"/>
      <point x="925" y="270" type="curve" smooth="yes"/>
      <point x="972" y="348"/>
      <point x="997" y="433"/>
      <point x="997" y="516" type="curve" smooth="yes"/>
      <point x="997" y="589"/>
      <point x="978" y="659"/>
      <point x="936" y="718" type="curve" smooth="yes"/>
      <point x="894" y="777"/>
      <point x="830" y="825"/>
      <point x="739" y="854" type="curve"/>
      <point x="834" y="902"/>
      <point x="903" y="964"/>
      <point x="950" y="1030" type="curve" smooth="yes"/>
      <point x="997" y="1096"/>
      <point x="1020" y="1167"/>
      <point x="1020" y="1235" type="curve" smooth="yes"/>
      <point x="1020" y="1314"/>
      <point x="988" y="1388"/>
      <point x="924" y="1444" type="curve" smooth="yes"/>
      <point x="860" y="1499"/>
      <point x="764" y="1534"/>
      <point x="639" y="1534" type="curve" smooth="yes"/>
      <point x="520" y="1534"/>
      <point x="414" y="1503"/>
      <point x="338" y="1448" type="curve" smooth="yes"/>
      <point x="262" y="1393"/>
      <point x="215" y="1316"/>
      <point x="215" y="1223" type="curve" smooth="yes"/>
      <point x="215" y="1167"/>
      <point x="231" y="1123"/>
      <point x="258" y="1094" type="curve" smooth="yes"/>
      <point x="285" y="1065"/>
      <point x="322" y="1049"/>
      <point x="362" y="1049" type="curve" smooth="yes"/>
      <point x="413" y="1049"/>
      <point x="467" y="1071"/>
      <point x="518" y="1118" type="curve"/>
      <point x="490" y="1126"/>
      <point x="470" y="1149"/>
      <point x="458" y="1177" type="curve"/>
      <point x="445" y="1204"/>
      <point x="440" y="1236"/>
      <point x="440" y="1264" type="curve" smooth="yes"/>
      <point x="440" y="1312"/>
      <point x="456" y="1352"/>
      <point x="484" y="1380" type="curve" smooth="yes"/>
      <point x="512" y="1407"/>
      <point x="553" y="1423"/>
      <point x="602" y="1423" type="curve" smooth="yes"/>
      <point x="654" y="1423"/>
      <point x="694" y="1406"/>
      <point x="720" y="1376" type="curve" smooth="yes"/>
      <point x="746" y="1346"/>
      <point x="758" y="1303"/>
      <point x="758" y="1255" type="curve" smooth="yes"/>
      <point x="758" y="1183"/>
      <point x="728" y="1101"/>
      <point x="669" y="1027" type="curve" smooth="yes"/>
      <point x="610" y="953"/>
      <point x="523" y="889"/>
      <point x="408" y="856" type="curve"/>
      <point x="503" y="824"/>
      <point x="571" y="765"/>
      <point x="615" y="696" type="curve" smooth="yes"/>
      <point x="659" y="627"/>
      <point x="680" y="546"/>
      <point x="680" y="469" type="curve" smooth="yes"/>
      <point x="680" y="349"/>
      <point x="645" y="263"/>
      <point x="594" y="205" type="curve" smooth="yes"/>
      <point x="542" y="147"/>
      <point x="476" y="119"/>
      <point x="415" y="119" type="curve" smooth="yes"/>
      <point x="368" y="119"/>
      <point x="325" y="135"/>
      <point x="293" y="167" type="curve" smooth="yes"/>
      <point x="261" y="198"/>
      <point x="240" y="244"/>
      <point x="240" y="305" type="curve" smooth="yes"/>
      <point x="240" y="346"/>
      <point x="246" y="399"/>
      <point x="271" y="443" type="curve" smooth="yes"/>
      <point x="296" y="486"/>
      <point x="341" y="521"/>
      <point x="420" y="526" type="curve"/>
      <point x="412" y="566"/>
      <point x="390" y="592"/>
      <point x="362" y="609" type="curve" smooth="yes"/>
      <point x="334" y="625"/>
      <point x="297" y="631"/>
      <point x="260" y="631" type="curve" smooth="yes"/>
      <point x="177" y="631"/>
      <point x="117" y="601"/>
      <point x="75" y="549" type="curve" smooth="yes"/>
      <point x="33" y="497"/>
      <point x="12" y="423"/>
      <point x="12" y="338" type="curve" smooth="yes"/>
      <point x="12" y="233"/>
      <point x="44" y="159"/>
      <point x="92" y="108" type="curve" smooth="yes"/>
      <point x="139" y="56"/>
      <point x="201" y="27"/>
      <point x="262" y="11" type="curve" smooth="yes"/>
      <point x="322" y="-6"/>
      <point x="380" y="-10"/>
      <point x="420" y="-10" type="curve" smooth="yes"/>
    </contour>
  </outline>
</glyph>
<glyph name="five" format="1">
  <advance width="1059"/>
  <unicode hex="0035"/>
  <note>
	five
  </note>
  <outline>
    <contour>
      <point x="577" y="-10"/>
      <point x="724" y="46"/>
      <point x="825" y="145" type="curve" smooth="yes"/>
      <point x="926" y="244"/>
      <point x="985" y="383"/>
      <point x="985" y="551" type="curve" smooth="yes"/>
      <point x="985" y="680"/>
      <point x="950" y="787"/>
      <point x="887" y="860" type="curve" smooth="yes"/>
      <point x="824" y="932"/>
      <point x="734" y="973"/>
      <point x="623" y="973" type="curve" smooth="yes"/>
      <point x="541" y="973"/>
      <point x="456" y="952"/>
      <point x="369" y="909" type="curve"/>
      <point x="451" y="1280" type="line"/>
      <point x="471" y="1277"/>
      <point x="495" y="1273"/>
      <point x="523" y="1268" type="curve" smooth="yes"/>
      <point x="551" y="1262"/>
      <point x="581" y="1256"/>
      <point x="612" y="1251" type="curve" smooth="yes"/>
      <point x="674" y="1239"/>
      <point x="738" y="1229"/>
      <point x="793" y="1229" type="curve" smooth="yes"/>
      <point x="880" y="1229"/>
      <point x="939" y="1255"/>
      <point x="976" y="1299" type="curve" smooth="yes"/>
      <point x="1012" y="1342"/>
      <point x="1028" y="1401"/>
      <point x="1028" y="1466" type="curve" smooth="yes"/>
      <point x="1028" y="1489"/>
      <point x="1027" y="1511"/>
      <point x="1024" y="1534" type="curve"/>
      <point x="897" y="1491"/>
      <point x="784" y="1476"/>
      <point x="667" y="1476" type="curve" smooth="yes"/>
      <point x="559" y="1476"/>
      <point x="444" y="1488"/>
      <point x="324" y="1503" type="curve"/>
      <point x="165" y="728" type="line"/>
      <point x="193" y="708" type="line"/>
      <point x="301" y="772"/>
      <point x="385" y="801"/>
      <point x="461" y="801" type="curve" smooth="yes"/>
      <point x="604" y="801"/>
      <point x="686" y="697"/>
      <point x="686" y="505" type="curve" smooth="yes"/>
      <point x="686" y="394"/>
      <point x="658" y="301"/>
      <point x="611" y="234" type="curve" smooth="yes"/>
      <point x="563" y="166"/>
      <point x="495" y="127"/>
      <point x="415" y="127" type="curve" smooth="yes"/>
      <point x="319" y="127"/>
      <point x="258" y="184"/>
      <point x="258" y="281" type="curve" smooth="yes"/>
      <point x="258" y="388"/>
      <point x="330" y="458"/>
      <point x="442" y="471" type="curve"/>
      <point x="428" y="540"/>
      <point x="379" y="575"/>
      <point x="296" y="575" type="curve" smooth="yes"/>
      <point x="217" y="575"/>
      <point x="152" y="547"/>
      <point x="105" y="496" type="curve" smooth="yes"/>
      <point x="58" y="445"/>
      <point x="31" y="373"/>
      <point x="31" y="288" type="curve" smooth="yes"/>
      <point x="31" y="97"/>
      <point x="161" y="-10"/>
      <point x="404" y="-10" type="curve" smooth="yes"/>
    </contour>
  </outline>
</glyph>
<glyph name="six" format="1">
  <advance width="1023"/>
  <unicode hex="0036"/>
  <note>
	six
  </note>
  <outline>
    <contour>
      <point x="548" y="-10"/>
      <point x="641" y="22"/>
      <point x="721" y="75" type="curve" smooth="yes"/>
      <point x="801" y="128"/>
      <point x="868" y="202"/>
      <point x="916" y="290" type="curve" smooth="yes"/>
      <point x="963" y="377"/>
      <point x="990" y="476"/>
      <point x="990" y="577" type="curve" smooth="yes"/>
      <point x="990" y="688"/>
      <point x="958" y="776"/>
      <point x="903" y="837" type="curve" smooth="yes"/>
      <point x="848" y="898"/>
      <point x="769" y="931"/>
      <point x="676" y="931" type="curve" smooth="yes"/>
      <point x="524" y="931"/>
      <point x="406" y="867"/>
      <point x="357" y="739" type="curve"/>
      <point x="350" y="737" type="line"/>
      <point x="379" y="932"/>
      <point x="438" y="1101"/>
      <point x="510" y="1221" type="curve" smooth="yes"/>
      <point x="582" y="1341"/>
      <point x="667" y="1413"/>
      <point x="751" y="1413" type="curve" smooth="yes"/>
      <point x="787" y="1413"/>
      <point x="814" y="1399"/>
      <point x="832" y="1378" type="curve" smooth="yes"/>
      <point x="850" y="1357"/>
      <point x="858" y="1327"/>
      <point x="858" y="1298" type="curve" smooth="yes"/>
      <point x="858" y="1251"/>
      <point x="835" y="1202"/>
      <point x="791" y="1179" type="curve"/>
      <point x="807" y="1140"/>
      <point x="850" y="1114"/>
      <point x="895" y="1114" type="curve" smooth="yes"/>
      <point x="938" y="1114"/>
      <point x="975" y="1135"/>
      <point x="1002" y="1169" type="curve" smooth="yes"/>
      <point x="1029" y="1203"/>
      <point x="1045" y="1250"/>
      <point x="1045" y="1302" type="curve" smooth="yes"/>
      <point x="1045" y="1371"/>
      <point x="1016" y="1430"/>
      <point x="964" y="1471" type="curve" smooth="yes"/>
      <point x="912" y="1511"/>
      <point x="837" y="1534"/>
      <point x="748" y="1534" type="curve" smooth="yes"/>
      <point x="615" y="1534"/>
      <point x="492" y="1485"/>
      <point x="386" y="1398" type="curve" smooth="yes"/>
      <point x="280" y="1311"/>
      <point x="191" y="1187"/>
      <point x="130" y="1039" type="curve" smooth="yes"/>
      <point x="69" y="890"/>
      <point x="33" y="717"/>
      <point x="33" y="530" type="curve" smooth="yes"/>
      <point x="33" y="338"/>
      <point x="66" y="203"/>
      <point x="135" y="116" type="curve" smooth="yes"/>
      <point x="203" y="29"/>
      <point x="308" y="-10"/>
      <point x="451" y="-10" type="curve" smooth="yes"/>
    </contour>
    <contour>
      <point x="445" y="150"/>
      <point x="404" y="170"/>
      <point x="376" y="218" type="curve" smooth="yes"/>
      <point x="348" y="266"/>
      <point x="332" y="340"/>
      <point x="332" y="448" type="curve" smooth="yes"/>
      <point x="332" y="551"/>
      <point x="349" y="635"/>
      <point x="386" y="694" type="curve" smooth="yes"/>
      <point x="423" y="753"/>
      <point x="481" y="786"/>
      <point x="565" y="786" type="curve" smooth="yes"/>
      <point x="613" y="786"/>
      <point x="654" y="772"/>
      <point x="683" y="738" type="curve" smooth="yes"/>
      <point x="711" y="704"/>
      <point x="729" y="650"/>
      <point x="729" y="571" type="curve" smooth="yes"/>
      <point x="729" y="451"/>
      <point x="699" y="346"/>
      <point x="655" y="271" type="curve" smooth="yes"/>
      <point x="610" y="195"/>
      <point x="551" y="150"/>
      <point x="494" y="150" type="curve" smooth="yes"/>
    </contour>
  </outline>
</glyph>
<glyph name="eight" format="1">
  <advance width="1022"/>
  <unicode hex="0038"/>
  <note>
	eight
  </note>
  <outline>
    <contour>
      <point x="612" y="-9"/>
      <point x="744" y="45"/>
      <point x="839" y="131" type="curve" smooth="yes"/>
      <point x="934" y="217"/>
      <point x="991" y="335"/>
      <point x="991" y="463" type="curve" smooth="yes"/>
      <point x="988" y="558"/>
      <point x="955" y="637"/>
      <point x="906" y="707" type="curve" smooth="yes"/>
      <point x="857" y="777"/>
      <point x="792" y="837"/>
      <point x="728" y="896" type="curve"/>
      <point x="932" y="1008"/>
      <point x="1029" y="1129"/>
      <point x="1029" y="1266" type="curve"/>
      <point x="1026" y="1351"/>
      <point x="985" y="1422"/>
      <point x="917" y="1472" type="curve" smooth="yes"/>
      <point x="848" y="1522"/>
      <point x="751" y="1550"/>
      <point x="642" y="1550" type="curve" smooth="yes"/>
      <point x="515" y="1550"/>
      <point x="406" y="1508"/>
      <point x="327" y="1440" type="curve" smooth="yes"/>
      <point x="248" y="1372"/>
      <point x="201" y="1279"/>
      <point x="201" y="1175" type="curve" smooth="yes"/>
      <point x="201" y="1108"/>
      <point x="223" y="1047"/>
      <point x="257" y="991" type="curve" smooth="yes"/>
      <point x="291" y="935"/>
      <point x="336" y="882"/>
      <point x="385" y="831" type="curve"/>
      <point x="249" y="771"/>
      <point x="152" y="707"/>
      <point x="89" y="633" type="curve" smooth="yes"/>
      <point x="25" y="559"/>
      <point x="-4" y="474"/>
      <point x="-4" y="378" type="curve"/>
      <point x="-3" y="259"/>
      <point x="48" y="162"/>
      <point x="130" y="94" type="curve" smooth="yes"/>
      <point x="212" y="26"/>
      <point x="326" y="-12"/>
      <point x="461" y="-12" type="curve" smooth="yes"/>
    </contour>
    <contour>
      <point x="404" y="129"/>
      <point x="356" y="153"/>
      <point x="321" y="197" type="curve" smooth="yes"/>
      <point x="286" y="241"/>
      <point x="266" y="304"/>
      <point x="266" y="380" type="curve" smooth="yes"/>
      <point x="266" y="528"/>
      <point x="338" y="659"/>
      <point x="469" y="748" type="curve"/>
      <point x="525" y="692"/>
      <point x="579" y="636"/>
      <point x="619" y="577" type="curve" smooth="yes"/>
      <point x="659" y="517"/>
      <point x="686" y="454"/>
      <point x="687" y="385" type="curve"/>
      <point x="687" y="316"/>
      <point x="663" y="252"/>
      <point x="623" y="205" type="curve" smooth="yes"/>
      <point x="583" y="158"/>
      <point x="526" y="129"/>
      <point x="461" y="129" type="curve" smooth="yes"/>
    </contour>
    <contour>
      <point x="599" y="1018"/>
      <point x="563" y="1060"/>
      <point x="536" y="1104" type="curve" smooth="yes"/>
      <point x="508" y="1148"/>
      <point x="491" y="1196"/>
      <point x="491" y="1248" type="curve" smooth="yes"/>
      <point x="491" y="1307"/>
      <point x="510" y="1358"/>
      <point x="542" y="1394" type="curve" smooth="yes"/>
      <point x="574" y="1430"/>
      <point x="620" y="1452"/>
      <point x="673" y="1452" type="curve" smooth="yes"/>
      <point x="757" y="1452"/>
      <point x="809" y="1394"/>
      <point x="809" y="1298" type="curve" smooth="yes"/>
      <point x="809" y="1245"/>
      <point x="793" y="1187"/>
      <point x="764" y="1131" type="curve" smooth="yes"/>
      <point x="735" y="1075"/>
      <point x="694" y="1022"/>
      <point x="642" y="977" type="curve"/>
    </contour>
  </outline>
</glyph>
<glyph name="semicolon" format="1">
  <advance width="565"/>
  <unicode hex="003B"/>
  <note>
	semicolon
  </note>
  <outline>
    <contour>
      <point x="213" y="-168"/>
      <point x="280" y="-93"/>
      <point x="325" y="-17" type="curve" smooth="yes"/>
      <point x="370" y="58"/>
      <point x="395" y="135"/>
      <point x="395" y="195" type="curve" smooth="yes"/>
      <point x="395" y="286"/>
      <point x="347" y="350"/>
      <point x="256" y="350" type="curve" smooth="yes"/>
      <point x="211" y="350"/>
      <point x="170" y="332"/>
      <point x="141" y="302" type="curve" smooth="yes"/>
      <point x="112" y="272"/>
      <point x="94" y="231"/>
      <point x="94" y="186" type="curve" smooth="yes"/>
      <point x="94" y="118"/>
      <point x="134" y="72"/>
      <point x="190" y="37" type="curve" smooth="yes"/>
      <point x="209" y="25"/>
      <point x="217" y="11"/>
      <point x="217" y="-4" type="curve" smooth="yes"/>
      <point x="217" y="-43"/>
      <point x="191" y="-70"/>
      <point x="164" y="-98" type="curve" smooth="yes"/>
      <point x="137" y="-126"/>
      <point x="111" y="-154"/>
      <point x="111" y="-190" type="curve" smooth="yes"/>
      <point x="111" y="-205"/>
      <point x="117" y="-217"/>
      <point x="129" y="-225" type="curve"/>
    </contour>
    <contour>
      <point x="399" y="516"/>
      <point x="440" y="534"/>
      <point x="470" y="563" type="curve" smooth="yes"/>
      <point x="500" y="592"/>
      <point x="518" y="633"/>
      <point x="518" y="678" type="curve" smooth="yes"/>
      <point x="518" y="723"/>
      <point x="500" y="764"/>
      <point x="470" y="794" type="curve" smooth="yes"/>
      <point x="440" y="824"/>
      <point x="399" y="842"/>
      <point x="354" y="842" type="curve" smooth="yes"/>
      <point x="309" y="842"/>
      <point x="268" y="824"/>
      <point x="240" y="794" type="curve" smooth="yes"/>
      <point x="211" y="764"/>
      <point x="193" y="723"/>
      <point x="193" y="678" type="curve" smooth="yes"/>
      <point x="193" y="633"/>
      <point x="211" y="592"/>
      <point x="240" y="563" type="curve" smooth="yes"/>
      <point x="268" y="534"/>
      <point x="309" y="516"/>
      <point x="354" y="516" type="curve" smooth="yes"/>
    </contour>
  </outline>
</glyph>
<glyph name="less" format="1">
  <advance width="733"/>
  <unicode hex="003C"/>
  <note>
	less
  </note>
  <outline>
    <contour>
      <point x="627" y="324" type="line"/>
      <point x="254" y="518" type="line"/>
      <point x="709" y="756" type="line"/>
      <point x="723" y="920" type="line"/>
      <point x="33" y="571" type="line"/>
      <point x="14" y="487" type="line"/>
      <point x="582" y="166" type="line"/>
    </contour>
  </outline>
</glyph>
<glyph name="at" format="1">
  <advance width="1410"/>
  <unicode hex="0040"/>
  <note>
	at
  </note>
  <outline>
    <contour>
      <point x="548" y="-208"/>
      <point x="622" y="-200"/>
      <point x="692" y="-183" type="curve" smooth="yes"/>
      <point x="762" y="-167"/>
      <point x="830" y="-142"/>
      <point x="880" y="-106" type="curve" smooth="yes"/>
      <point x="930" y="-70"/>
      <point x="962" y="-24"/>
      <point x="962" y="33" type="curve" smooth="yes"/>
      <point x="962" y="92"/>
      <point x="938" y="125"/>
      <point x="907" y="140" type="curve"/>
      <point x="863" y="83"/>
      <point x="804" y="37"/>
      <point x="734" y="6" type="curve" smooth="yes"/>
      <point x="664" y="-26"/>
      <point x="583" y="-43"/>
      <point x="500" y="-43" type="curve" smooth="yes"/>
      <point x="391" y="-43"/>
      <point x="307" y="-16"/>
      <point x="251" y="44" type="curve" smooth="yes"/>
      <point x="195" y="103"/>
      <point x="167" y="195"/>
      <point x="167" y="324" type="curve" smooth="yes"/>
      <point x="167" y="457"/>
      <point x="203" y="588"/>
      <point x="264" y="704" type="curve" smooth="yes"/>
      <point x="324" y="820"/>
      <point x="411" y="920"/>
      <point x="512" y="992" type="curve" smooth="yes"/>
      <point x="612" y="1063"/>
      <point x="728" y="1105"/>
      <point x="847" y="1105" type="curve" smooth="yes"/>
      <point x="1043" y="1105"/>
      <point x="1150" y="992"/>
      <point x="1150" y="779" type="curve" smooth="yes"/>
      <point x="1150" y="655"/>
      <point x="1113" y="538"/>
      <point x="1066" y="452" type="curve" smooth="yes"/>
      <point x="1018" y="366"/>
      <point x="961" y="311"/>
      <point x="921" y="311" type="curve" smooth="yes"/>
      <point x="905" y="311"/>
      <point x="895" y="320"/>
      <point x="889" y="332" type="curve" smooth="yes"/>
      <point x="883" y="344"/>
      <point x="881" y="360"/>
      <point x="881" y="375" type="curve" smooth="yes"/>
      <point x="881" y="411"/>
      <point x="894" y="460"/>
      <point x="909" y="516" type="curve" smooth="yes"/>
      <point x="1004" y="877" type="line"/>
      <point x="849" y="892" type="line"/>
      <point x="816" y="841" type="line"/>
      <point x="777" y="882"/>
      <point x="751" y="897"/>
      <point x="708" y="897" type="curve" smooth="yes"/>
      <point x="647" y="897"/>
      <point x="585" y="866"/>
      <point x="530" y="818" type="curve" smooth="yes"/>
      <point x="475" y="769"/>
      <point x="426" y="700"/>
      <point x="391" y="624" type="curve" smooth="yes"/>
      <point x="356" y="548"/>
      <point x="335" y="463"/>
      <point x="335" y="383" type="curve" smooth="yes"/>
      <point x="335" y="244"/>
      <point x="396" y="173"/>
      <point x="500" y="173" type="curve" smooth="yes"/>
      <point x="588" y="173"/>
      <point x="663" y="225"/>
      <point x="736" y="321" type="curve"/>
      <point x="741" y="237"/>
      <point x="800" y="193"/>
      <point x="891" y="193" type="curve" smooth="yes"/>
      <point x="967" y="193"/>
      <point x="1042" y="224"/>
      <point x="1107" y="277" type="curve" smooth="yes"/>
      <point x="1171" y="330"/>
      <point x="1228" y="405"/>
      <point x="1268" y="493" type="curve" smooth="yes"/>
      <point x="1307" y="580"/>
      <point x="1331" y="680"/>
      <point x="1331" y="784" type="curve" smooth="yes"/>
      <point x="1331" y="940"/>
      <point x="1278" y="1057"/>
      <point x="1189" y="1136" type="curve" smooth="yes"/>
      <point x="1100" y="1215"/>
      <point x="976" y="1254"/>
      <point x="832" y="1254" type="curve" smooth="yes"/>
      <point x="673" y="1254"/>
      <point x="527" y="1206"/>
      <point x="401" y="1123" type="curve" smooth="yes"/>
      <point x="275" y="1039"/>
      <point x="169" y="922"/>
      <point x="96" y="782" type="curve" smooth="yes"/>
      <point x="23" y="642"/>
      <point x="-19" y="481"/>
      <point x="-19" y="312" type="curve" smooth="yes"/>
      <point x="-19" y="113"/>
      <point x="39" y="-17"/>
      <point x="131" y="-97" type="curve" smooth="yes"/>
      <point x="223" y="-177"/>
      <point x="349" y="-208"/>
      <point x="488" y="-208" type="curve" smooth="yes"/>
    </contour>
    <contour>
      <point x="549" y="313"/>
      <point x="533" y="339"/>
      <point x="533" y="399" type="curve" smooth="yes"/>
      <point x="533" y="480"/>
      <point x="563" y="576"/>
      <point x="607" y="652" type="curve" smooth="yes"/>
      <point x="650" y="728"/>
      <point x="704" y="784"/>
      <point x="755" y="784" type="curve" smooth="yes"/>
      <point x="770" y="784"/>
      <point x="783" y="779"/>
      <point x="799" y="764" type="curve"/>
      <point x="696" y="377" type="line"/>
      <point x="685" y="358"/>
      <point x="669" y="343"/>
      <point x="649" y="332" type="curve"/>
      <point x="629" y="320"/>
      <point x="608" y="313"/>
      <point x="588" y="313" type="curve" smooth="yes"/>
    </contour>
  </outline>
</glyph>
<glyph name="B" format="1">
  <advance width="1313"/>
  <unicode hex="0042"/>
  <note>
	B
  </note>
  <outline>
    <contour>
      <point x="908" y="-35"/>
      <point x="995" y="9"/>
      <point x="1062" y="74" type="curve" smooth="yes"/>
      <point x="1129" y="139"/>
      <point x="1173" y="227"/>
      <point x="1201" y="315" type="curve" smooth="yes"/>
      <point x="1229" y="402"/>
      <point x="1241" y="490"/>
      <point x="1241" y="555" type="curve" smooth="yes"/>
      <point x="1241" y="632"/>
      <point x="1225" y="706"/>
      <point x="1186" y="766" type="curve" smooth="yes"/>
      <point x="1147" y="825"/>
      <point x="1087" y="869"/>
      <point x="999" y="885" type="curve"/>
      <point x="1066" y="922"/>
      <point x="1117" y="974"/>
      <point x="1152" y="1030" type="curve" smooth="yes"/>
      <point x="1187" y="1086"/>
      <point x="1204" y="1149"/>
      <point x="1204" y="1210" type="curve" smooth="yes"/>
      <point x="1204" y="1294"/>
      <point x="1170" y="1376"/>
      <point x="1099" y="1436" type="curve" smooth="yes"/>
      <point x="1027" y="1496"/>
      <point x="919" y="1536"/>
      <point x="768" y="1536" type="curve" smooth="yes"/>
      <point x="639" y="1536"/>
      <point x="514" y="1507"/>
      <point x="404" y="1458" type="curve" smooth="yes"/>
      <point x="294" y="1409"/>
      <point x="199" y="1340"/>
      <point x="132" y="1260" type="curve" smooth="yes"/>
      <point x="64" y="1179"/>
      <point x="25" y="1088"/>
      <point x="25" y="993" type="curve" smooth="yes"/>
      <point x="25" y="854"/>
      <point x="105" y="805"/>
      <point x="244" y="805" type="curve"/>
      <point x="244" y="809"/>
      <point x="243" y="814"/>
      <point x="240" y="819" type="curve" smooth="yes"/>
      <point x="237" y="824"/>
      <point x="233" y="832"/>
      <point x="230" y="842" type="curve"/>
      <point x="222" y="861"/>
      <point x="215" y="892"/>
      <point x="215" y="944" type="curve" smooth="yes"/>
      <point x="215" y="1056"/>
      <point x="246" y="1149"/>
      <point x="295" y="1223" type="curve" smooth="yes"/>
      <point x="343" y="1297"/>
      <point x="412" y="1351"/>
      <point x="488" y="1388" type="curve" smooth="yes"/>
      <point x="563" y="1424"/>
      <point x="647" y="1442"/>
      <point x="727" y="1442" type="curve" smooth="yes"/>
      <point x="824" y="1442"/>
      <point x="892" y="1415"/>
      <point x="935" y="1374" type="curve" smooth="yes"/>
      <point x="978" y="1333"/>
      <point x="997" y="1278"/>
      <point x="997" y="1221" type="curve" smooth="yes"/>
      <point x="997" y="1144"/>
      <point x="963" y="1061"/>
      <point x="910" y="997" type="curve" smooth="yes"/>
      <point x="857" y="933"/>
      <point x="783" y="889"/>
      <point x="702" y="889" type="curve" smooth="yes"/>
      <point x="690" y="889" type="line"/>
      <point x="786" y="1343" type="line"/>
      <point x="483" y="1303" type="line"/>
      <point x="205" y="0" type="line"/>
      <point x="500" y="0" type="line"/>
      <point x="668" y="784" type="line"/>
      <point x="707" y="791"/>
      <point x="745" y="791"/>
      <point x="762" y="791" type="curve" smooth="yes"/>
      <point x="837" y="791"/>
      <point x="885" y="761"/>
      <point x="915" y="714" type="curve" smooth="yes"/>
      <point x="945" y="666"/>
      <point x="956" y="601"/>
      <point x="956" y="530" type="curve" smooth="yes"/>
      <point x="956" y="453"/>
      <point x="943" y="360"/>
      <point x="911" y="288" type="curve" smooth="yes"/>
      <point x="879" y="215"/>
      <point x="829" y="162"/>
      <point x="754" y="162" type="curve" smooth="yes"/>
      <point x="707" y="162"/>
      <point x="668" y="180"/>
      <point x="616" y="236" type="curve"/>
      <point x="597" y="189"/>
      <point x="590" y="152"/>
      <point x="590" y="117" type="curve" smooth="yes"/>
      <point x="590" y="54"/>
      <point x="619" y="17"/>
      <point x="659" y="-6" type="curve" smooth="yes"/>
      <point x="698" y="-29"/>
      <point x="749" y="-35"/>
      <point x="793" y="-35" type="curve" smooth="yes"/>
    </contour>
  </outline>
</glyph>
<glyph name="D" format="1">
  <advance width="1358"/>
  <unicode hex="0044"/>
  <note>
	D
  </note>
  <outline>
    <contour>
      <point x="855" y="-27"/>
      <point x="952" y="29"/>
      <point x="1036" y="121" type="curve" smooth="yes"/>
      <point x="1120" y="213"/>
      <point x="1192" y="341"/>
      <point x="1242" y="485" type="curve" smooth="yes"/>
      <point x="1292" y="629"/>
      <point x="1321" y="790"/>
      <point x="1321" y="946" type="curve" smooth="yes"/>
      <point x="1321" y="1050"/>
      <point x="1304" y="1151"/>
      <point x="1268" y="1239" type="curve" smooth="yes"/>
      <point x="1231" y="1326"/>
      <point x="1173" y="1400"/>
      <point x="1092" y="1453" type="curve" smooth="yes"/>
      <point x="1011" y="1505"/>
      <point x="906" y="1536"/>
      <point x="774" y="1536" type="curve" smooth="yes"/>
      <point x="635" y="1536"/>
      <point x="504" y="1507"/>
      <point x="392" y="1458" type="curve" smooth="yes"/>
      <point x="279" y="1409"/>
      <point x="184" y="1340"/>
      <point x="117" y="1260" type="curve" smooth="yes"/>
      <point x="50" y="1180"/>
      <point x="12" y="1088"/>
      <point x="12" y="995" type="curve" smooth="yes"/>
      <point x="12" y="856"/>
      <point x="94" y="805"/>
      <point x="231" y="805" type="curve"/>
      <point x="231" y="809"/>
      <point x="230" y="814"/>
      <point x="227" y="819" type="curve" smooth="yes"/>
      <point x="224" y="824"/>
      <point x="220" y="832"/>
      <point x="217" y="842" type="curve"/>
      <point x="210" y="861"/>
      <point x="203" y="892"/>
      <point x="203" y="944" type="curve" smooth="yes"/>
      <point x="203" y="1100"/>
      <point x="261" y="1224"/>
      <point x="357" y="1310" type="curve" smooth="yes"/>
      <point x="453" y="1396"/>
      <point x="587" y="1442"/>
      <point x="739" y="1442" type="curve" smooth="yes"/>
      <point x="828" y="1442"/>
      <point x="903" y="1415"/>
      <point x="956" y="1353" type="curve" smooth="yes"/>
      <point x="1008" y="1291"/>
      <point x="1038" y="1194"/>
      <point x="1038" y="1055" type="curve" smooth="yes"/>
      <point x="1038" y="916"/>
      <point x="1022" y="772"/>
      <point x="991" y="638" type="curve" smooth="yes"/>
      <point x="959" y="504"/>
      <point x="914" y="383"/>
      <point x="856" y="296" type="curve" smooth="yes"/>
      <point x="798" y="208"/>
      <point x="726" y="154"/>
      <point x="645" y="154" type="curve" smooth="yes"/>
      <point x="604" y="154"/>
      <point x="565" y="168"/>
      <point x="528" y="195" type="curve"/>
      <point x="774" y="1343" type="line"/>
      <point x="471" y="1303" type="line"/>
      <point x="193" y="0" type="line"/>
      <point x="487" y="0" type="line"/>
      <point x="504" y="82" type="line"/>
      <point x="592" y="6"/>
      <point x="674" y="-27"/>
      <point x="754" y="-27" type="curve" smooth="yes"/>
    </contour>
  </outline>
</glyph>
<glyph name="G" format="1">
  <advance width="1184"/>
  <unicode hex="0047"/>
  <note>
	G
  </note>
  <outline>
    <contour>
      <point x="600" y="-424"/>
      <point x="702" y="-378"/>
      <point x="783" y="-281" type="curve" smooth="yes"/>
      <point x="863" y="-184"/>
      <point x="924" y="-36"/>
      <point x="968" y="168" type="curve" smooth="yes"/>
      <point x="1118" y="856" type="line"/>
      <point x="876" y="858" type="line"/>
      <point x="805" y="557"/>
      <point x="693" y="401"/>
      <point x="544" y="401" type="curve" smooth="yes"/>
      <point x="420" y="401"/>
      <point x="354" y="510"/>
      <point x="354" y="717" type="curve" smooth="yes"/>
      <point x="354" y="844"/>
      <point x="379" y="968"/>
      <point x="423" y="1077" type="curve" smooth="yes"/>
      <point x="466" y="1185"/>
      <point x="528" y="1280"/>
      <point x="598" y="1347" type="curve" smooth="yes"/>
      <point x="668" y="1414"/>
      <point x="748" y="1454"/>
      <point x="829" y="1454" type="curve" smooth="yes"/>
      <point x="917" y="1454"/>
      <point x="966" y="1408"/>
      <point x="966" y="1325" type="curve" smooth="yes"/>
      <point x="966" y="1288"/>
      <point x="956" y="1250"/>
      <point x="940" y="1216" type="curve" smooth="yes"/>
      <point x="924" y="1182"/>
      <point x="902" y="1153"/>
      <point x="878" y="1137" type="curve"/>
      <point x="909" y="1096"/>
      <point x="956" y="1073"/>
      <point x="1007" y="1073" type="curve" smooth="yes"/>
      <point x="1052" y="1073"/>
      <point x="1092" y="1093"/>
      <point x="1120" y="1127" type="curve" smooth="yes"/>
      <point x="1147" y="1161"/>
      <point x="1163" y="1209"/>
      <point x="1163" y="1268" type="curve" smooth="yes"/>
      <point x="1163" y="1355"/>
      <point x="1127" y="1426"/>
      <point x="1062" y="1475" type="curve" smooth="yes"/>
      <point x="997" y="1523"/>
      <point x="902" y="1550"/>
      <point x="786" y="1550" type="curve" smooth="yes"/>
      <point x="645" y="1550"/>
      <point x="516" y="1511"/>
      <point x="405" y="1442" type="curve" smooth="yes"/>
      <point x="293" y="1373"/>
      <point x="202" y="1274"/>
      <point x="138" y="1154" type="curve" smooth="yes"/>
      <point x="74" y="1034"/>
      <point x="38" y="893"/>
      <point x="38" y="741" type="curve" smooth="yes"/>
      <point x="38" y="584"/>
      <point x="77" y="454"/>
      <point x="146" y="364" type="curve" smooth="yes"/>
      <point x="214" y="274"/>
      <point x="313" y="223"/>
      <point x="434" y="223" type="curve" smooth="yes"/>
      <point x="559" y="223"/>
      <point x="666" y="280"/>
      <point x="741" y="383" type="curve"/>
      <point x="749" y="383" type="line"/>
      <point x="647" y="-70" type="line" smooth="yes"/>
      <point x="610" y="-237"/>
      <point x="541" y="-322"/>
      <point x="446" y="-322" type="curve" smooth="yes"/>
      <point x="407" y="-322"/>
      <point x="374" y="-306"/>
      <point x="351" y="-280" type="curve" smooth="yes"/>
      <point x="327" y="-254"/>
      <point x="313" y="-217"/>
      <point x="313" y="-174" type="curve" smooth="yes"/>
      <point x="313" y="-130"/>
      <point x="327" y="-93"/>
      <point x="352" y="-67" type="curve" smooth="yes"/>
      <point x="376" y="-41"/>
      <point x="411" y="-27"/>
      <point x="452" y="-27" type="curve" smooth="yes"/>
      <point x="499" y="-27"/>
      <point x="544" y="-47"/>
      <point x="569" y="-80" type="curve"/>
      <point x="584" y="-60"/>
      <point x="591" y="-34"/>
      <point x="591" y="-2" type="curve" smooth="yes"/>
      <point x="591" y="85"/>
      <point x="522" y="139"/>
      <point x="417" y="139" type="curve" smooth="yes"/>
      <point x="340" y="139"/>
      <point x="270" y="108"/>
      <point x="221" y="57" type="curve" smooth="yes"/>
      <point x="172" y="5"/>
      <point x="141" y="-65"/>
      <point x="141" y="-145" type="curve" smooth="yes"/>
      <point x="141" y="-228"/>
      <point x="175" y="-298"/>
      <point x="233" y="-347" type="curve" smooth="yes"/>
      <point x="291" y="-396"/>
      <point x="373" y="-424"/>
      <point x="473" y="-424" type="curve" smooth="yes"/>
    </contour>
  </outline>
</glyph>
<glyph name="J" format="1">
  <advance width="1098"/>
  <unicode hex="004A"/>
  <note>
	J
  </note>
  <outline>
    <contour>
      <point x="506" y="-424"/>
      <point x="624" y="-376"/>
      <point x="709" y="-288" type="curve" smooth="yes"/>
      <point x="793" y="-201"/>
      <point x="844" y="-74"/>
      <point x="877" y="82" type="curve" smooth="yes"/>
      <point x="1184" y="1536" type="line"/>
      <point x="1102" y="1536" type="line" smooth="yes"/>
      <point x="987" y="1536"/>
      <point x="870" y="1507"/>
      <point x="764" y="1459" type="curve" smooth="yes"/>
      <point x="658" y="1410"/>
      <point x="562" y="1342"/>
      <point x="494" y="1263" type="curve" smooth="yes"/>
      <point x="425" y="1184"/>
      <point x="383" y="1095"/>
      <point x="383" y="1004" type="curve" smooth="yes"/>
      <point x="383" y="929"/>
      <point x="403" y="880"/>
      <point x="440" y="849" type="curve" smooth="yes"/>
      <point x="476" y="818"/>
      <point x="531" y="805"/>
      <point x="602" y="805" type="curve"/>
      <point x="602" y="809"/>
      <point x="601" y="814"/>
      <point x="598" y="819" type="curve" smooth="yes"/>
      <point x="595" y="824"/>
      <point x="591" y="832"/>
      <point x="588" y="842" type="curve"/>
      <point x="580" y="861"/>
      <point x="573" y="892"/>
      <point x="573" y="944" type="curve" smooth="yes"/>
      <point x="573" y="1165"/>
      <point x="682" y="1318"/>
      <point x="862" y="1393" type="curve"/>
      <point x="541" y="-70" type="line" smooth="yes"/>
      <point x="517" y="-177"/>
      <point x="491" y="-240"/>
      <point x="460" y="-276" type="curve" smooth="yes"/>
      <point x="428" y="-312"/>
      <point x="391" y="-322"/>
      <point x="346" y="-322" type="curve" smooth="yes"/>
      <point x="317" y="-322"/>
      <point x="282" y="-313"/>
      <point x="255" y="-290" type="curve" smooth="yes"/>
      <point x="227" y="-267"/>
      <point x="207" y="-231"/>
      <point x="207" y="-178" type="curve" smooth="yes"/>
      <point x="207" y="-141"/>
      <point x="219" y="-102"/>
      <point x="243" y="-74" type="curve" smooth="yes"/>
      <point x="266" y="-46"/>
      <point x="302" y="-27"/>
      <point x="350" y="-27" type="curve" smooth="yes"/>
      <point x="370" y="-27"/>
      <point x="388" y="-29"/>
      <point x="408" y="-37" type="curve" smooth="yes"/>
      <point x="427" y="-45"/>
      <point x="448" y="-59"/>
      <point x="473" y="-80" type="curve"/>
      <point x="481" y="-49"/>
      <point x="485" y="-22"/>
      <point x="485" y="2" type="curve" smooth="yes"/>
      <point x="485" y="67"/>
      <point x="456" y="102"/>
      <point x="416" y="120" type="curve" smooth="yes"/>
      <point x="376" y="138"/>
      <point x="326" y="139"/>
      <point x="285" y="139" type="curve" smooth="yes"/>
      <point x="204" y="139"/>
      <point x="142" y="105"/>
      <point x="100" y="54" type="curve" smooth="yes"/>
      <point x="58" y="3"/>
      <point x="35" y="-66"/>
      <point x="35" y="-135" type="curve" smooth="yes"/>
      <point x="35" y="-222"/>
      <point x="61" y="-293"/>
      <point x="113" y="-344" type="curve" smooth="yes"/>
      <point x="164" y="-395"/>
      <point x="239" y="-424"/>
      <point x="338" y="-424" type="curve" smooth="yes"/>
    </contour>
  </outline>
</glyph>
<glyph name="Q" format="1">
  <advance width="1362"/>
  <unicode hex="0051"/>
  <note>
	Q
  </note>
  <outline>
    <contour>
      <point x="1086" y="-231"/>
      <point x="1125" y="-222"/>
      <point x="1160" y="-196" type="curve" smooth="yes"/>
      <point x="1195" y="-170"/>
      <point x="1225" y="-126"/>
      <point x="1253" y="-55" type="curve"/>
      <point x="1237" y="-58"/>
      <point x="1223" y="-59"/>
      <point x="1208" y="-59" type="curve" smooth="yes"/>
      <point x="1144" y="-59"/>
      <point x="1094" y="-39"/>
      <point x="1054" y="-9" type="curve" smooth="yes"/>
      <point x="1014" y="21"/>
      <point x="981" y="62"/>
      <point x="952" y="106" type="curve"/>
      <point x="1043" y="174"/>
      <point x="1117" y="266"/>
      <point x="1175" y="368" type="curve" smooth="yes"/>
      <point x="1233" y="470"/>
      <point x="1275" y="583"/>
      <point x="1303" y="695" type="curve" smooth="yes"/>
      <point x="1330" y="806"/>
      <point x="1343" y="916"/>
      <point x="1343" y="1012" type="curve" smooth="yes"/>
      <point x="1343" y="1164"/>
      <point x="1311" y="1296"/>
      <point x="1235" y="1389" type="curve" smooth="yes"/>
      <point x="1159" y="1481"/>
      <point x="1038" y="1536"/>
      <point x="858" y="1536" type="curve" smooth="yes"/>
      <point x="714" y="1536"/>
      <point x="575" y="1506"/>
      <point x="452" y="1455" type="curve" smooth="yes"/>
      <point x="329" y="1404"/>
      <point x="226" y="1333"/>
      <point x="151" y="1250" type="curve" smooth="yes"/>
      <point x="76" y="1166"/>
      <point x="33" y="1073"/>
      <point x="33" y="977" type="curve" smooth="yes"/>
      <point x="33" y="852"/>
      <point x="109" y="805"/>
      <point x="240" y="805" type="curve"/>
      <point x="240" y="809"/>
      <point x="239" y="813"/>
      <point x="237" y="818" type="curve"/>
      <point x="234" y="823"/>
      <point x="232" y="829"/>
      <point x="230" y="837" type="curve"/>
      <point x="225" y="852"/>
      <point x="219" y="875"/>
      <point x="219" y="915" type="curve" smooth="yes"/>
      <point x="219" y="1078"/>
      <point x="288" y="1209"/>
      <point x="397" y="1301" type="curve" smooth="yes"/>
      <point x="505" y="1392"/>
      <point x="653" y="1442"/>
      <point x="809" y="1442" type="curve" smooth="yes"/>
      <point x="917" y="1442"/>
      <point x="982" y="1412"/>
      <point x="1021" y="1352" type="curve" smooth="yes"/>
      <point x="1060" y="1292"/>
      <point x="1071" y="1202"/>
      <point x="1071" y="1083" type="curve" smooth="yes"/>
      <point x="1071" y="935"/>
      <point x="1043" y="775"/>
      <point x="997" y="630" type="curve" smooth="yes"/>
      <point x="951" y="485"/>
      <point x="887" y="354"/>
      <point x="819" y="266" type="curve"/>
      <point x="776" y="299"/>
      <point x="727" y="322"/>
      <point x="655" y="322" type="curve" smooth="yes"/>
      <point x="620" y="322"/>
      <point x="579" y="315"/>
      <point x="528" y="303" type="curve"/>
      <point x="525" y="316"/>
      <point x="523" y="330"/>
      <point x="524" y="345" type="curve"/>
      <point x="524" y="359"/>
      <point x="524" y="374"/>
      <point x="524" y="391" type="curve" smooth="yes"/>
      <point x="524" y="496"/>
      <point x="543" y="625"/>
      <point x="576" y="754" type="curve" smooth="yes"/>
      <point x="608" y="882"/>
      <point x="654" y="1011"/>
      <point x="707" y="1117" type="curve" smooth="yes"/>
      <point x="760" y="1223"/>
      <point x="820" y="1306"/>
      <point x="883" y="1343" type="curve"/>
      <point x="844" y="1358"/>
      <point x="811" y="1360"/>
      <point x="776" y="1360" type="curve" smooth="yes"/>
      <point x="653" y="1360"/>
      <point x="551" y="1290"/>
      <point x="469" y="1185" type="curve" smooth="yes"/>
      <point x="387" y="1080"/>
      <point x="324" y="938"/>
      <point x="283" y="796" type="curve" smooth="yes"/>
      <point x="242" y="654"/>
      <point x="221" y="510"/>
      <point x="221" y="399" type="curve" smooth="yes"/>
      <point x="221" y="250"/>
      <point x="259" y="146"/>
      <point x="324" y="81" type="curve" smooth="yes"/>
      <point x="389" y="16"/>
      <point x="480" y="-12"/>
      <point x="588" y="-12" type="curve" smooth="yes"/>
      <point x="656" y="-12"/>
      <point x="718" y="-3"/>
      <point x="778" y="16" type="curve"/>
      <point x="798" y="-44"/>
      <point x="819" y="-105"/>
      <point x="857" y="-152" type="curve" smooth="yes"/>
      <point x="895" y="-200"/>
      <point x="951" y="-231"/>
      <point x="1042" y="-231" type="curve" smooth="yes"/>
    </contour>
    <contour>
      <point x="596" y="154"/>
      <point x="563" y="182"/>
      <point x="545" y="238" type="curve"/>
      <point x="565" y="245"/>
      <point x="585" y="246"/>
      <point x="604" y="246" type="curve" smooth="yes"/>
      <point x="663" y="246"/>
      <point x="696" y="217"/>
      <point x="721" y="176" type="curve"/>
      <point x="696" y="160"/>
      <point x="668" y="154"/>
      <point x="643" y="154" type="curve" smooth="yes"/>
    </contour>
  </outline>
</glyph>
<glyph name="S" format="1">
  <advance width="1167"/>
  <unicode hex="0053"/>
  <note>
	S
  </note>
  <outline>
    <contour>
      <point x="657" y="-37"/>
      <point x="794" y="13"/>
      <point x="894" y="97" type="curve" smooth="yes"/>
      <point x="993" y="180"/>
      <point x="1052" y="296"/>
      <point x="1052" y="431" type="curve" smooth="yes"/>
      <point x="1052" y="494"/>
      <point x="1041" y="552"/>
      <point x="1019" y="605" type="curve" smooth="yes"/>
      <point x="975" y="709"/>
      <point x="905" y="798"/>
      <point x="828" y="878" type="curve" smooth="yes"/>
      <point x="789" y="917"/>
      <point x="753" y="956"/>
      <point x="720" y="995" type="curve" smooth="yes"/>
      <point x="653" y="1072"/>
      <point x="604" y="1150"/>
      <point x="604" y="1241" type="curve" smooth="yes"/>
      <point x="604" y="1301"/>
      <point x="623" y="1353"/>
      <point x="656" y="1390" type="curve" smooth="yes"/>
      <point x="688" y="1426"/>
      <point x="735" y="1448"/>
      <point x="790" y="1448" type="curve" smooth="yes"/>
      <point x="881" y="1448"/>
      <point x="936" y="1393"/>
      <point x="936" y="1305" type="curve" smooth="yes"/>
      <point x="936" y="1234"/>
      <point x="903" y="1168"/>
      <point x="852" y="1131" type="curve"/>
      <point x="883" y="1090"/>
      <point x="925" y="1067"/>
      <point x="977" y="1067" type="curve" smooth="yes"/>
      <point x="1022" y="1067"/>
      <point x="1062" y="1087"/>
      <point x="1089" y="1121" type="curve" smooth="yes"/>
      <point x="1116" y="1155"/>
      <point x="1132" y="1203"/>
      <point x="1132" y="1260" type="curve" smooth="yes"/>
      <point x="1132" y="1347"/>
      <point x="1096" y="1419"/>
      <point x="1033" y="1469" type="curve" smooth="yes"/>
      <point x="969" y="1519"/>
      <point x="879" y="1547"/>
      <point x="768" y="1547" type="curve" smooth="yes"/>
      <point x="636" y="1547"/>
      <point x="522" y="1507"/>
      <point x="440" y="1440" type="curve" smooth="yes"/>
      <point x="358" y="1373"/>
      <point x="309" y="1280"/>
      <point x="309" y="1172" type="curve" smooth="yes"/>
      <point x="309" y="1092"/>
      <point x="336" y="1021"/>
      <point x="377" y="954" type="curve" smooth="yes"/>
      <point x="418" y="886"/>
      <point x="472" y="823"/>
      <point x="527" y="760" type="curve" smooth="yes"/>
      <point x="582" y="696"/>
      <point x="636" y="634"/>
      <point x="677" y="570" type="curve" smooth="yes"/>
      <point x="718" y="505"/>
      <point x="745" y="437"/>
      <point x="745" y="362" type="curve" smooth="yes"/>
      <point x="745" y="289"/>
      <point x="718" y="224"/>
      <point x="674" y="179" type="curve" smooth="yes"/>
      <point x="630" y="134"/>
      <point x="567" y="106"/>
      <point x="495" y="106" type="curve" smooth="yes"/>
      <point x="376" y="106"/>
      <point x="301" y="181"/>
      <point x="301" y="301" type="curve" smooth="yes"/>
      <point x="301" y="365"/>
      <point x="324" y="417"/>
      <point x="364" y="453" type="curve" smooth="yes"/>
      <point x="404" y="489"/>
      <point x="462" y="510"/>
      <point x="534" y="510" type="curve"/>
      <point x="518" y="594"/>
      <point x="448" y="645"/>
      <point x="352" y="645" type="curve" smooth="yes"/>
      <point x="273" y="645"/>
      <point x="202" y="610"/>
      <point x="151" y="552" type="curve" smooth="yes"/>
      <point x="100" y="494"/>
      <point x="69" y="413"/>
      <point x="69" y="322" type="curve" smooth="yes"/>
      <point x="69" y="214"/>
      <point x="112" y="125"/>
      <point x="188" y="62" type="curve" smooth="yes"/>
      <point x="263" y="-2"/>
      <point x="370" y="-37"/>
      <point x="501" y="-37" type="curve" smooth="yes"/>
    </contour>
  </outline>
</glyph>
<glyph name="f" format="1">
  <advance width="547"/>
  <unicode hex="0066"/>
  <note>
	f
  </note>
  <outline>
    <contour>
      <point x="-117" y="-512"/>
      <point x="-41" y="-499"/>
      <point x="27" y="-448" type="curve" smooth="yes"/>
      <point x="94" y="-397"/>
      <point x="153" y="-311"/>
      <point x="182" y="-164" type="curve" smooth="yes"/>
      <point x="418" y="942" type="line"/>
      <point x="569" y="942" type="line"/>
      <point x="584" y="1024" type="line"/>
      <point x="434" y="1024" type="line"/>
      <point x="469" y="1186" type="line" smooth="yes"/>
      <point x="482" y="1254"/>
      <point x="507" y="1297"/>
      <point x="535" y="1322" type="curve" smooth="yes"/>
      <point x="562" y="1346"/>
      <point x="591" y="1354"/>
      <point x="612" y="1354" type="curve" smooth="yes"/>
      <point x="653" y="1354"/>
      <point x="690" y="1331"/>
      <point x="690" y="1284" type="curve" smooth="yes"/>
      <point x="690" y="1265"/>
      <point x="689" y="1252"/>
      <point x="686" y="1229" type="curve"/>
      <point x="782" y="1229" type="line"/>
      <point x="786" y="1253"/>
      <point x="788" y="1281"/>
      <point x="788" y="1313" type="curve" smooth="yes"/>
      <point x="788" y="1380"/>
      <point x="758" y="1434"/>
      <point x="714" y="1473" type="curve" smooth="yes"/>
      <point x="669" y="1512"/>
      <point x="608" y="1534"/>
      <point x="547" y="1534" type="curve" smooth="yes"/>
      <point x="480" y="1534"/>
      <point x="402" y="1521"/>
      <point x="333" y="1470" type="curve" smooth="yes"/>
      <point x="264" y="1419"/>
      <point x="203" y="1333"/>
      <point x="174" y="1186" type="curve" smooth="yes"/>
      <point x="-74" y="16" type="line"/>
      <point x="-171" y="-13"/>
      <point x="-259" y="-42"/>
      <point x="-323" y="-88" type="curve" smooth="yes"/>
      <point x="-387" y="-134"/>
      <point x="-426" y="-196"/>
      <point x="-426" y="-291" type="curve" smooth="yes"/>
      <point x="-426" y="-358"/>
      <point x="-396" y="-412"/>
      <point x="-351" y="-451" type="curve" smooth="yes"/>
      <point x="-306" y="-490"/>
      <point x="-245" y="-512"/>
      <point x="-184" y="-512" type="curve" smooth="yes"/>
    </contour>
    <contour>
      <point x="-255" y="-330"/>
      <point x="-275" y="-320"/>
      <point x="-290" y="-307" type="curve"/>
      <point x="-305" y="-295"/>
      <point x="-313" y="-278"/>
      <point x="-313" y="-262" type="curve" smooth="yes"/>
      <point x="-313" y="-207"/>
      <point x="-289" y="-165"/>
      <point x="-249" y="-131" type="curve" smooth="yes"/>
      <point x="-209" y="-97"/>
      <point x="-152" y="-72"/>
      <point x="-88" y="-51" type="curve"/>
      <point x="-115" y="-170" type="line" smooth="yes"/>
      <point x="-128" y="-231"/>
      <point x="-146" y="-272"/>
      <point x="-166" y="-296" type="curve" smooth="yes"/>
      <point x="-187" y="-321"/>
      <point x="-210" y="-330"/>
      <point x="-231" y="-330" type="curve" smooth="yes"/>
    </contour>
  </outline>
</glyph>
<glyph name="l" format="1">
  <advance width="547"/>
  <unicode hex="006C"/>
  <note>
	l
  </note>
  <outline>
    <contour>
      <point x="239" y="-12"/>
      <point x="286" y="-7"/>
      <point x="337" y="12" type="curve" smooth="yes"/>
      <point x="388" y="31"/>
      <point x="443" y="64"/>
      <point x="495" y="120" type="curve" smooth="yes"/>
      <point x="546" y="176"/>
      <point x="594" y="256"/>
      <point x="633" y="367" type="curve"/>
      <point x="547" y="367" type="line"/>
      <point x="531" y="315"/>
      <point x="505" y="269"/>
      <point x="473" y="237" type="curve" smooth="yes"/>
      <point x="441" y="205"/>
      <point x="402" y="186"/>
      <point x="362" y="186" type="curve" smooth="yes"/>
      <point x="305" y="186"/>
      <point x="279" y="205"/>
      <point x="279" y="262" type="curve" smooth="yes"/>
      <point x="279" y="283"/>
      <point x="280" y="305"/>
      <point x="287" y="328" type="curve"/>
      <point x="522" y="1434" type="line"/>
      <point x="219" y="1393" type="line"/>
      <point x="0" y="367" type="line" smooth="yes"/>
      <point x="-11" y="315"/>
      <point x="-16" y="270"/>
      <point x="-16" y="233" type="curve" smooth="yes"/>
      <point x="-16" y="146"/>
      <point x="8" y="86"/>
      <point x="48" y="46" type="curve" smooth="yes"/>
      <point x="87" y="6"/>
      <point x="142" y="-12"/>
      <point x="203" y="-12" type="curve" smooth="yes"/>
    </contour>
  </outline>
</glyph>
<glyph name="o" format="1">
  <advance width="899"/>
  <unicode hex="006F"/>
  <note>
	o
  </note>
  <outline>
    <contour>
      <point x="424" y="-8"/>
      <point x="539" y="51"/>
      <point x="626" y="158" type="curve" smooth="yes"/>
      <point x="713" y="265"/>
      <point x="772" y="419"/>
      <point x="788" y="608" type="curve"/>
      <point x="939" y="633"/>
      <point x="1071" y="694"/>
      <point x="1151" y="778" type="curve"/>
      <point x="1133" y="834" type="line"/>
      <point x="1089" y="803"/>
      <point x="1034" y="772"/>
      <point x="978" y="749" type="curve" smooth="yes"/>
      <point x="922" y="726"/>
      <point x="865" y="711"/>
      <point x="817" y="711" type="curve" smooth="yes"/>
      <point x="812" y="711"/>
      <point x="808" y="711"/>
      <point x="805" y="711" type="curve" smooth="yes"/>
      <point x="802" y="711"/>
      <point x="798" y="712"/>
      <point x="795" y="713" type="curve"/>
      <point x="795" y="715" type="line" smooth="yes"/>
      <point x="795" y="933"/>
      <point x="707" y="1042"/>
      <point x="532" y="1042" type="curve" smooth="yes"/>
      <point x="392" y="1042"/>
      <point x="284" y="987"/>
      <point x="201" y="906" type="curve" smooth="yes"/>
      <point x="117" y="825"/>
      <point x="60" y="717"/>
      <point x="24" y="609" type="curve" smooth="yes"/>
      <point x="-13" y="501"/>
      <point x="-29" y="395"/>
      <point x="-29" y="315" type="curve" smooth="yes"/>
      <point x="-29" y="198"/>
      <point x="6" y="117"/>
      <point x="64" y="66" type="curve" smooth="yes"/>
      <point x="122" y="14"/>
      <point x="204" y="-8"/>
      <point x="299" y="-8" type="curve" smooth="yes"/>
    </contour>
    <contour>
      <point x="342" y="176"/>
      <point x="316" y="184"/>
      <point x="300" y="209" type="curve"/>
      <point x="283" y="233"/>
      <point x="276" y="274"/>
      <point x="276" y="342" type="curve" smooth="yes"/>
      <point x="276" y="410"/>
      <point x="290" y="497"/>
      <point x="314" y="582" type="curve" smooth="yes"/>
      <point x="338" y="667"/>
      <point x="373" y="751"/>
      <point x="414" y="814" type="curve" smooth="yes"/>
      <point x="454" y="877"/>
      <point x="500" y="918"/>
      <point x="549" y="918" type="curve" smooth="yes"/>
      <point x="577" y="918"/>
      <point x="594" y="911"/>
      <point x="606" y="892" type="curve" smooth="yes"/>
      <point x="618" y="872"/>
      <point x="624" y="843"/>
      <point x="627" y="799" type="curve"/>
      <point x="588" y="782"/>
      <point x="563" y="745"/>
      <point x="563" y="688" type="curve" smooth="yes"/>
      <point x="563" y="647"/>
      <point x="575" y="613"/>
      <point x="618" y="602" type="curve"/>
      <point x="602" y="482"/>
      <point x="568" y="375"/>
      <point x="525" y="299" type="curve" smooth="yes"/>
      <point x="482" y="223"/>
      <point x="430" y="176"/>
      <point x="381" y="176" type="curve" smooth="yes"/>
    </contour>
  </outline>
</glyph>
<glyph name="braceright" format="1">
  <advance width="721"/>
  <unicode hex="007D"/>
  <note>
	braceright
  </note>
  <outline>
    <contour>
      <point x="-46" y="-512" type="line" smooth="yes"/>
      <point x="102" y="-512"/>
      <point x="199" y="-470"/>
      <point x="263" y="-359" type="curve" smooth="yes"/>
      <point x="326" y="-248"/>
      <point x="354" y="-70"/>
      <point x="366" y="205" type="curve" smooth="yes"/>
      <point x="369" y="296"/>
      <point x="380" y="358"/>
      <point x="403" y="398" type="curve" smooth="yes"/>
      <point x="426" y="437"/>
      <point x="459" y="453"/>
      <point x="507" y="453" type="curve" smooth="yes"/>
      <point x="573" y="453" type="line"/>
      <point x="593" y="557" type="line"/>
      <point x="530" y="557" type="line" smooth="yes"/>
      <point x="466" y="557"/>
      <point x="446" y="575"/>
      <point x="446" y="631" type="curve" smooth="yes"/>
      <point x="446" y="660"/>
      <point x="450" y="692"/>
      <point x="457" y="728" type="curve" smooth="yes"/>
      <point x="471" y="800"/>
      <point x="494" y="879"/>
      <point x="519" y="962" type="curve" smooth="yes"/>
      <point x="531" y="1003"/>
      <point x="543" y="1044"/>
      <point x="554" y="1084" type="curve" smooth="yes"/>
      <point x="576" y="1163"/>
      <point x="591" y="1237"/>
      <point x="591" y="1296" type="curve" smooth="yes"/>
      <point x="591" y="1371"/>
      <point x="563" y="1433"/>
      <point x="512" y="1475" type="curve" smooth="yes"/>
      <point x="461" y="1517"/>
      <point x="389" y="1540"/>
      <point x="298" y="1540" type="curve" smooth="yes"/>
      <point x="239" y="1540" type="line"/>
      <point x="220" y="1448" type="line"/>
      <point x="304" y="1437"/>
      <point x="352" y="1367"/>
      <point x="352" y="1247" type="curve" smooth="yes"/>
      <point x="352" y="1156"/>
      <point x="325" y="1047"/>
      <point x="298" y="943" type="curve" smooth="yes"/>
      <point x="270" y="838"/>
      <point x="243" y="737"/>
      <point x="243" y="664" type="curve" smooth="yes"/>
      <point x="243" y="625"/>
      <point x="250" y="594"/>
      <point x="269" y="569" type="curve" smooth="yes"/>
      <point x="288" y="544"/>
      <point x="315" y="524"/>
      <point x="358" y="504" type="curve"/>
      <point x="283" y="473"/>
      <point x="236" y="444"/>
      <point x="205" y="405" type="curve" smooth="yes"/>
      <point x="173" y="366"/>
      <point x="158" y="317"/>
      <point x="153" y="248" type="curve" smooth="yes"/>
      <point x="137" y="51"/>
      <point x="124" y="-89"/>
      <point x="106" y="-186" type="curve" smooth="yes"/>
      <point x="88" y="-283"/>
      <point x="65" y="-339"/>
      <point x="30" y="-371" type="curve" smooth="yes"/>
      <point x="-5" y="-403"/>
      <point x="-51" y="-410"/>
      <point x="-115" y="-410" type="curve"/>
      <point x="-134" y="-512" type="line"/>
    </contour>
  </outline>
</glyph>
<glyph name="asciitilde" format="1">
  <advance width="883"/>
  <unicode hex="007E"/>
  <note>
	asciitilde
  </note>
  <outline>
    <contour>
      <point x="669" y="1165"/>
      <point x="747" y="1192"/>
      <point x="808" y="1232" type="curve" smooth="yes"/>
      <point x="868" y="1271"/>
      <point x="911" y="1322"/>
      <point x="922" y="1370" type="curve"/>
      <point x="909" y="1372" type="line"/>
      <point x="878" y="1341"/>
      <point x="831" y="1325"/>
      <point x="780" y="1325" type="curve" smooth="yes"/>
      <point x="721" y="1325"/>
      <point x="674" y="1342"/>
      <point x="623" y="1359" type="curve" smooth="yes"/>
      <point x="571" y="1376"/>
      <point x="515" y="1393"/>
      <point x="442" y="1393" type="curve" smooth="yes"/>
      <point x="286" y="1393"/>
      <point x="167" y="1324"/>
      <point x="100" y="1192" type="curve"/>
      <point x="113" y="1188" type="line"/>
      <point x="152" y="1223"/>
      <point x="197" y="1241"/>
      <point x="248" y="1241" type="curve" smooth="yes"/>
      <point x="305" y="1241"/>
      <point x="356" y="1222"/>
      <point x="411" y="1203" type="curve" smooth="yes"/>
      <point x="466" y="1184"/>
      <point x="524" y="1165"/>
      <point x="592" y="1165" type="curve" smooth="yes"/>
    </contour>
  </outline>
</glyph>
<glyph name="exclamdown" format="1">
  <advance width="449"/>
  <unicode hex="00A1"/>
  <note>
	exclamdown
  </note>
  <outline>
    <contour>
      <point x="186" y="-459" type="line"/>
      <point x="342" y="565" type="line"/>
      <point x="168" y="565" type="line"/>
      <point x="-129" y="-502" type="line"/>
    </contour>
    <contour>
      <point x="358" y="725"/>
      <point x="399" y="743"/>
      <point x="429" y="772" type="curve" smooth="yes"/>
      <point x="459" y="800"/>
      <point x="477" y="841"/>
      <point x="477" y="886" type="curve" smooth="yes"/>
      <point x="477" y="931"/>
      <point x="459" y="973"/>
      <point x="429" y="1002" type="curve" smooth="yes"/>
      <point x="399" y="1031"/>
      <point x="358" y="1050"/>
      <point x="313" y="1050" type="curve" smooth="yes"/>
      <point x="268" y="1050"/>
      <point x="227" y="1031"/>
      <point x="198" y="1002" type="curve" smooth="yes"/>
      <point x="169" y="973"/>
      <point x="151" y="931"/>
      <point x="151" y="886" type="curve" smooth="yes"/>
      <point x="151" y="841"/>
      <point x="169" y="800"/>
      <point x="198" y="772" type="curve" smooth="yes"/>
      <point x="227" y="743"/>
      <point x="268" y="725"/>
      <point x="313" y="725" type="curve" smooth="yes"/>
    </contour>
  </outline>
</glyph>
<glyph name="cent" format="1">
  <advance width="786"/>
  <unicode hex="00A2"/>
  <note>
	cent
  </note>
  <outline>
    <contour>
      <point x="322" y="-55" type="line"/>
      <point x="379" y="194" type="line"/>
      <point x="384" y="193"/>
      <point x="388" y="193"/>
      <point x="393" y="193" type="curve" smooth="yes"/>
      <point x="398" y="193"/>
      <point x="403" y="193"/>
      <point x="408" y="193" type="curve" smooth="yes"/>
      <point x="496" y="193"/>
      <point x="568" y="213"/>
      <point x="619" y="247" type="curve" smooth="yes"/>
      <point x="670" y="281"/>
      <point x="698" y="331"/>
      <point x="698" y="391" type="curve" smooth="yes"/>
      <point x="698" y="416"/>
      <point x="694" y="440"/>
      <point x="682" y="471" type="curve"/>
      <point x="618" y="400"/>
      <point x="556" y="371"/>
      <point x="469" y="371" type="curve" smooth="yes"/>
      <point x="451" y="371"/>
      <point x="435" y="372"/>
      <point x="420" y="374" type="curve"/>
      <point x="595" y="1137" type="line"/>
      <point x="647" y="1136"/>
      <point x="672" y="1113"/>
      <point x="672" y="1061" type="curve" smooth="yes"/>
      <point x="672" y="1040"/>
      <point x="669" y="1015"/>
      <point x="662" y="991" type="curve" smooth="yes"/>
      <point x="655" y="967"/>
      <point x="646" y="944"/>
      <point x="637" y="928" type="curve"/>
      <point x="657" y="901"/>
      <point x="692" y="883"/>
      <point x="729" y="883" type="curve" smooth="yes"/>
      <point x="766" y="883"/>
      <point x="798" y="902"/>
      <point x="821" y="932" type="curve" smooth="yes"/>
      <point x="844" y="962"/>
      <point x="858" y="1003"/>
      <point x="858" y="1051" type="curve" smooth="yes"/>
      <point x="858" y="1168"/>
      <point x="769" y="1240"/>
      <point x="620" y="1245" type="curve"/>
      <point x="672" y="1470" type="line"/>
      <point x="567" y="1470" type="line"/>
      <point x="514" y="1236" type="line"/>
      <point x="375" y="1211"/>
      <point x="252" y="1130"/>
      <point x="162" y="1017" type="curve" smooth="yes"/>
      <point x="72" y="904"/>
      <point x="16" y="757"/>
      <point x="16" y="600" type="curve" smooth="yes"/>
      <point x="16" y="391"/>
      <point x="111" y="254"/>
      <point x="279" y="209" type="curve"/>
      <point x="219" y="-55" type="line"/>
    </contour>
    <contour>
      <point x="282" y="455"/>
      <point x="260" y="525"/>
      <point x="260" y="625" type="curve" smooth="yes"/>
      <point x="260" y="732"/>
      <point x="284" y="834"/>
      <point x="324" y="918" type="curve" smooth="yes"/>
      <point x="364" y="1002"/>
      <point x="420" y="1069"/>
      <point x="484" y="1106" type="curve"/>
      <point x="326" y="415" type="line"/>
    </contour>
  </outline>
</glyph>
<glyph name="currency" format="1">
  <advance width="1024"/>
  <unicode hex="00A4"/>
  <note>
	currency
  </note>
  <outline>
    <contour>
      <point x="330" y="451" type="line"/>
      <point x="385" y="410"/>
      <point x="448" y="389"/>
      <point x="518" y="389" type="curve" smooth="yes"/>
      <point x="589" y="389"/>
      <point x="650" y="409"/>
      <point x="702" y="449" type="curve"/>
      <point x="815" y="336" type="line"/>
      <point x="889" y="410" type="line"/>
      <point x="776" y="522" type="line"/>
      <point x="817" y="579"/>
      <point x="838" y="641"/>
      <point x="838" y="709" type="curve" smooth="yes"/>
      <point x="838" y="779"/>
      <point x="817" y="842"/>
      <point x="776" y="897" type="curve"/>
      <point x="889" y="1010" type="line"/>
      <point x="815" y="1083" type="line"/>
      <point x="700" y="969" type="line"/>
      <point x="649" y="1008"/>
      <point x="586" y="1028"/>
      <point x="518" y="1028" type="curve" smooth="yes"/>
      <point x="450" y="1028"/>
      <point x="388" y="1008"/>
      <point x="332" y="967" type="curve"/>
      <point x="217" y="1081" type="line"/>
      <point x="139" y="1008" type="line"/>
      <point x="256" y="891" type="line"/>
      <point x="217" y="840"/>
      <point x="197" y="778"/>
      <point x="197" y="707" type="curve" smooth="yes"/>
      <point x="197" y="639"/>
      <point x="217" y="575"/>
      <point x="256" y="524" type="curve"/>
      <point x="141" y="410" type="line"/>
      <point x="215" y="336" type="line"/>
    </contour>
    <contour>
      <point x="461" y="504"/>
      <point x="409" y="527"/>
      <point x="373" y="564" type="curve" smooth="yes"/>
      <point x="336" y="600"/>
      <point x="313" y="652"/>
      <point x="313" y="709" type="curve" smooth="yes"/>
      <point x="313" y="766"/>
      <point x="336" y="817"/>
      <point x="373" y="854" type="curve" smooth="yes"/>
      <point x="409" y="890"/>
      <point x="461" y="913"/>
      <point x="518" y="913" type="curve" smooth="yes"/>
      <point x="575" y="913"/>
      <point x="627" y="890"/>
      <point x="664" y="854" type="curve" smooth="yes"/>
      <point x="700" y="817"/>
      <point x="723" y="766"/>
      <point x="723" y="709" type="curve" smooth="yes"/>
      <point x="723" y="652"/>
      <point x="700" y="600"/>
      <point x="664" y="564" type="curve" smooth="yes"/>
      <point x="627" y="527"/>
      <point x="575" y="504"/>
      <point x="518" y="504" type="curve" smooth="yes"/>
    </contour>
  </outline>
</glyph>
<glyph name="brokenbar" format="1">
  <advance width="1090"/>
  <unicode hex="00A6"/>
  <note>
	brokenbar
  </note>
  <outline>
    <contour>
      <point x="639" y="-512" type="line"/>
      <point x="639" y="455" type="line"/>
      <point x="449" y="455" type="line"/>
      <point x="449" y="-512" type="line"/>
    </contour>
    <contour>
      <point x="639" y="616" type="line"/>
      <point x="639" y="1538" type="line"/>
      <point x="449" y="1538" type="line"/>
      <point x="449" y="616" type="line"/>
    </contour>
  </outline>
</glyph>
<glyph name="logicalnot" format="1">
  <advance width="909"/>
  <unicode hex="00AC"/>
  <note>
	logicalnot
  </note>
  <outline>
    <contour>
      <point x="713" y="104" type="line"/>
      <point x="817" y="616" type="line"/>
      <point x="76" y="616" type="line"/>
      <point x="39" y="455" type="line"/>
      <point x="553" y="455" type="line"/>
      <point x="481" y="104" type="line"/>
    </contour>
  </outline>
</glyph>
<glyph name="onehalf" format="1">
  <advance width="1499"/>
  <unicode hex="00BD"/>
  <note>
	onehalf
  </note>
  <outline>
    <contour>
      <point x="362" y="0" type="line"/>
      <point x="1214" y="1540" type="line"/>
      <point x="1067" y="1540" type="line"/>
      <point x="215" y="0" type="line"/>
    </contour>
    <contour>
      <point x="389" y="705" type="line"/>
      <point x="572" y="1559" type="line"/>
      <point x="565" y="1563" type="line"/>
      <point x="454" y="1507"/>
      <point x="338" y="1475"/>
      <point x="229" y="1475" type="curve"/>
      <point x="225" y="1462"/>
      <point x="223" y="1451"/>
      <point x="223" y="1442" type="curve" smooth="yes"/>
      <point x="223" y="1403"/>
      <point x="248" y="1378"/>
      <point x="297" y="1378" type="curve" smooth="yes"/>
      <point x="314" y="1378"/>
      <point x="335" y="1382"/>
      <point x="359" y="1389" type="curve"/>
      <point x="215" y="705" type="line"/>
    </contour>
    <contour>
      <point x="1293" y="-12"/>
      <point x="1330" y="2"/>
      <point x="1358" y="26" type="curve" smooth="yes"/>
      <point x="1385" y="50"/>
      <point x="1402" y="84"/>
      <point x="1402" y="125" type="curve" smooth="yes"/>
      <point x="1402" y="145"/>
      <point x="1399" y="170"/>
      <point x="1388" y="197" type="curve"/>
      <point x="1382" y="199" type="line"/>
      <point x="1349" y="162"/>
      <point x="1321" y="150"/>
      <point x="1286" y="150" type="curve" smooth="yes"/>
      <point x="1262" y="150"/>
      <point x="1232" y="156"/>
      <point x="1199" y="162" type="curve" smooth="yes"/>
      <point x="1166" y="168"/>
      <point x="1130" y="174"/>
      <point x="1093" y="174" type="curve" smooth="yes"/>
      <point x="1070" y="174"/>
      <point x="1051" y="174"/>
      <point x="1024" y="166" type="curve"/>
      <point x="1039" y="195"/>
      <point x="1059" y="222"/>
      <point x="1085" y="249" type="curve" smooth="yes"/>
      <point x="1137" y="302"/>
      <point x="1200" y="354"/>
      <point x="1264" y="406" type="curve" smooth="yes"/>
      <point x="1295" y="432"/>
      <point x="1324" y="459"/>
      <point x="1350" y="487" type="curve" smooth="yes"/>
      <point x="1401" y="543"/>
      <point x="1437" y="604"/>
      <point x="1437" y="676" type="curve" smooth="yes"/>
      <point x="1437" y="735"/>
      <point x="1413" y="780"/>
      <point x="1373" y="812" type="curve" smooth="yes"/>
      <point x="1333" y="843"/>
      <point x="1276" y="860"/>
      <point x="1208" y="860" type="curve" smooth="yes"/>
      <point x="1128" y="860"/>
      <point x="1066" y="835"/>
      <point x="1025" y="799" type="curve" smooth="yes"/>
      <point x="984" y="763"/>
      <point x="962" y="715"/>
      <point x="962" y="670" type="curve" smooth="yes"/>
      <point x="962" y="610"/>
      <point x="1003" y="578"/>
      <point x="1054" y="578" type="curve" smooth="yes"/>
      <point x="1081" y="578"/>
      <point x="1114" y="591"/>
      <point x="1138" y="614" type="curve"/>
      <point x="1136" y="621" type="line"/>
      <point x="1108" y="633"/>
      <point x="1085" y="666"/>
      <point x="1085" y="709" type="curve" smooth="yes"/>
      <point x="1085" y="760"/>
      <point x="1122" y="801"/>
      <point x="1173" y="801" type="curve" smooth="yes"/>
      <point x="1226" y="801"/>
      <point x="1249" y="751"/>
      <point x="1249" y="680" type="curve" smooth="yes"/>
      <point x="1249" y="635"/>
      <point x="1240" y="593"/>
      <point x="1223" y="554" type="curve" smooth="yes"/>
      <point x="1187" y="477"/>
      <point x="1131" y="409"/>
      <point x="1069" y="346" type="curve" smooth="yes"/>
      <point x="1038" y="314"/>
      <point x="1009" y="282"/>
      <point x="982" y="251" type="curve" smooth="yes"/>
      <point x="928" y="188"/>
      <point x="888" y="124"/>
      <point x="888" y="51" type="curve" smooth="yes"/>
      <point x="888" y="32"/>
      <point x="890" y="15"/>
      <point x="895" y="-2" type="curve"/>
      <point x="903" y="-2" type="line"/>
      <point x="950" y="23"/>
      <point x="987" y="31"/>
      <point x="1024" y="31" type="curve" smooth="yes"/>
      <point x="1065" y="31"/>
      <point x="1106" y="21"/>
      <point x="1144" y="10" type="curve" smooth="yes"/>
      <point x="1182" y="-2"/>
      <point x="1218" y="-12"/>
      <point x="1253" y="-12" type="curve" smooth="yes"/>
    </contour>
  </outline>
</glyph>
<glyph name="questiondown" format="1">
  <advance width="899"/>
  <unicode hex="00BF"/>
  <note>
	questiondown
  </note>
  <outline>
    <contour>
      <point x="445" y="-512"/>
      <point x="553" y="-476"/>
      <point x="630" y="-415" type="curve" smooth="yes"/>
      <point x="707" y="-355"/>
      <point x="754" y="-270"/>
      <point x="754" y="-174" type="curve" smooth="yes"/>
      <point x="754" y="-121"/>
      <point x="739" y="-77"/>
      <point x="715" y="-46" type="curve" smooth="yes"/>
      <point x="690" y="-15"/>
      <point x="653" y="2"/>
      <point x="609" y="2" type="curve" smooth="yes"/>
      <point x="557" y="2"/>
      <point x="500" y="-23"/>
      <point x="451" y="-68" type="curve"/>
      <point x="451" y="-76" type="line"/>
      <point x="510" y="-103"/>
      <point x="549" y="-168"/>
      <point x="549" y="-240" type="curve" smooth="yes"/>
      <point x="549" y="-287"/>
      <point x="532" y="-328"/>
      <point x="504" y="-358" type="curve" smooth="yes"/>
      <point x="476" y="-388"/>
      <point x="436" y="-406"/>
      <point x="391" y="-406" type="curve" smooth="yes"/>
      <point x="304" y="-406"/>
      <point x="254" y="-339"/>
      <point x="254" y="-219" type="curve" smooth="yes"/>
      <point x="254" y="-165"/>
      <point x="264" y="-117"/>
      <point x="283" y="-76" type="curve" smooth="yes"/>
      <point x="321" y="7"/>
      <point x="380" y="78"/>
      <point x="448" y="147" type="curve" smooth="yes"/>
      <point x="481" y="182"/>
      <point x="512" y="219"/>
      <point x="541" y="259" type="curve" smooth="yes"/>
      <point x="598" y="339"/>
      <point x="641" y="434"/>
      <point x="641" y="565" type="curve"/>
      <point x="516" y="565" type="line"/>
      <point x="516" y="470"/>
      <point x="482" y="396"/>
      <point x="431" y="332" type="curve" smooth="yes"/>
      <point x="380" y="268"/>
      <point x="313" y="215"/>
      <point x="245" y="163" type="curve" smooth="yes"/>
      <point x="177" y="110"/>
      <point x="110" y="57"/>
      <point x="59" y="-4" type="curve" smooth="yes"/>
      <point x="8" y="-65"/>
      <point x="-26" y="-136"/>
      <point x="-26" y="-225" type="curve" smooth="yes"/>
      <point x="-26" y="-313"/>
      <point x="7" y="-384"/>
      <point x="67" y="-434" type="curve" smooth="yes"/>
      <point x="127" y="-484"/>
      <point x="214" y="-512"/>
      <point x="322" y="-512" type="curve" smooth="yes"/>
    </contour>
    <contour>
      <point x="643" y="715"/>
      <point x="684" y="733"/>
      <point x="714" y="762" type="curve" smooth="yes"/>
      <point x="744" y="791"/>
      <point x="762" y="832"/>
      <point x="762" y="877" type="curve" smooth="yes"/>
      <point x="762" y="922"/>
      <point x="744" y="963"/>
      <point x="714" y="992" type="curve" smooth="yes"/>
      <point x="684" y="1021"/>
      <point x="643" y="1040"/>
      <point x="598" y="1040" type="curve" smooth="yes"/>
      <point x="553" y="1040"/>
      <point x="512" y="1021"/>
      <point x="484" y="992" type="curve" smooth="yes"/>
      <point x="455" y="963"/>
      <point x="437" y="922"/>
      <point x="437" y="877" type="curve" smooth="yes"/>
      <point x="437" y="832"/>
      <point x="455" y="791"/>
      <point x="484" y="762" type="curve" smooth="yes"/>
      <point x="512" y="733"/>
      <point x="553" y="715"/>
      <point x="598" y="715" type="curve" smooth="yes"/>
    </contour>
  </outline>
</glyph>
<glyph name="Atilde" format="1">
  <advance width="1368"/>
  <unicode hex="00C3"/>
  <note>
	Atilde
  </note>
  <outline>
    <contour>
      <point x="431" y="-214"/>
      <point x="418" y="-184"/>
      <point x="418" y="-119" type="curve" smooth="yes"/>
      <point x="418" y="-12"/>
      <point x="446" y="138"/>
      <point x="494" y="304" type="curve" smooth="yes"/>
      <point x="541" y="470"/>
      <point x="607" y="650"/>
      <point x="684" y="817" type="curve"/>
      <point x="773" y="809"/>
      <point x="854" y="791"/>
      <point x="958" y="743" type="curve"/>
      <point x="801" y="0" type="line"/>
      <point x="1096" y="0" type="line"/>
      <point x="1417" y="1507" type="line"/>
      <point x="1368" y="1530"/>
      <point x="1303" y="1536"/>
      <point x="1255" y="1536" type="curve" smooth="yes"/>
      <point x="1135" y="1536"/>
      <point x="1010" y="1467"/>
      <point x="887" y="1357" type="curve" smooth="yes"/>
      <point x="764" y="1247"/>
      <point x="647" y="1096"/>
      <point x="543" y="932" type="curve"/>
      <point x="500" y="936"/>
      <point x="464" y="938"/>
      <point x="436" y="938" type="curve" smooth="yes"/>
      <point x="316" y="938"/>
      <point x="212" y="909"/>
      <point x="137" y="864" type="curve" smooth="yes"/>
      <point x="62" y="819"/>
      <point x="18" y="755"/>
      <point x="18" y="686" type="curve" smooth="yes"/>
      <point x="18" y="646"/>
      <point x="32" y="616"/>
      <point x="55" y="597" type="curve" smooth="yes"/>
      <point x="78" y="577"/>
      <point x="109" y="567"/>
      <point x="145" y="567" type="curve" smooth="yes"/>
      <point x="209" y="567"/>
      <point x="260" y="598"/>
      <point x="260" y="647" type="curve" smooth="yes"/>
      <point x="260" y="678"/>
      <point x="244" y="711"/>
      <point x="233" y="711" type="curve"/>
      <point x="260" y="782"/>
      <point x="344" y="809"/>
      <point x="473" y="817" type="curve"/>
      <point x="382" y="661"/>
      <point x="308" y="498"/>
      <point x="255" y="352" type="curve" smooth="yes"/>
      <point x="202" y="206"/>
      <point x="172" y="75"/>
      <point x="172" y="-16" type="curve" smooth="yes"/>
      <point x="172" y="-123"/>
      <point x="213" y="-177"/>
      <point x="269" y="-204" type="curve" smooth="yes"/>
      <point x="324" y="-232"/>
      <point x="391" y="-233"/>
      <point x="446" y="-233" type="curve"/>
    </contour>
    <contour>
      <point x="897" y="866"/>
      <point x="810" y="889"/>
      <point x="727" y="905" type="curve"/>
      <point x="784" y="1020"/>
      <point x="847" y="1125"/>
      <point x="909" y="1210" type="curve" smooth="yes"/>
      <point x="971" y="1294"/>
      <point x="1035" y="1358"/>
      <point x="1096" y="1391" type="curve"/>
      <point x="977" y="834" type="line"/>
    </contour>
    <contour>
      <point x="1406" y="1677"/>
      <point x="1484" y="1704"/>
      <point x="1545" y="1744" type="curve" smooth="yes"/>
      <point x="1605" y="1783"/>
      <point x="1648" y="1834"/>
      <point x="1659" y="1882" type="curve"/>
      <point x="1647" y="1884" type="line"/>
      <point x="1616" y="1853"/>
      <point x="1569" y="1837"/>
      <point x="1518" y="1837" type="curve" smooth="yes"/>
      <point x="1458" y="1837"/>
      <point x="1411" y="1854"/>
      <point x="1360" y="1871" type="curve" smooth="yes"/>
      <point x="1308" y="1888"/>
      <point x="1253" y="1905"/>
      <point x="1180" y="1905" type="curve" smooth="yes"/>
      <point x="1023" y="1905"/>
      <point x="903" y="1836"/>
      <point x="838" y="1704" type="curve"/>
      <point x="850" y="1700" type="line"/>
      <point x="889" y="1735"/>
      <point x="934" y="1753"/>
      <point x="985" y="1753" type="curve" smooth="yes"/>
      <point x="1042" y="1753"/>
      <point x="1094" y="1734"/>
      <point x="1149" y="1715" type="curve" smooth="yes"/>
      <point x="1204" y="1696"/>
      <point x="1261" y="1677"/>
      <point x="1329" y="1677" type="curve" smooth="yes"/>
    </contour>
  </outline>
</glyph>
<glyph name="Ccedilla" format="1">
  <advance width="1018"/>
  <unicode hex="00C7"/>
  <note>
	Ccedilla
  </note>
  <outline>
    <contour>
      <point x="556" y="-446"/>
      <point x="618" y="-426"/>
      <point x="664" y="-389" type="curve" smooth="yes"/>
      <point x="710" y="-352"/>
      <point x="741" y="-296"/>
      <point x="741" y="-221" type="curve" smooth="yes"/>
      <point x="741" y="-157"/>
      <point x="702" y="-119"/>
      <point x="614" y="-119" type="curve" smooth="yes"/>
      <point x="586" y="-119"/>
      <point x="549" y="-124"/>
      <point x="506" y="-135" type="curve"/>
      <point x="549" y="-29" type="line"/>
      <point x="641" y="-18"/>
      <point x="747" y="14"/>
      <point x="843" y="75" type="curve" smooth="yes"/>
      <point x="938" y="136"/>
      <point x="1022" y="225"/>
      <point x="1071" y="348" type="curve"/>
      <point x="1024" y="369" type="line"/>
      <point x="928" y="240"/>
      <point x="786" y="164"/>
      <point x="625" y="164" type="curve" smooth="yes"/>
      <point x="525" y="164"/>
      <point x="464" y="197"/>
      <point x="428" y="253" type="curve" smooth="yes"/>
      <point x="391" y="309"/>
      <point x="379" y="388"/>
      <point x="379" y="483" type="curve" smooth="yes"/>
      <point x="379" y="622"/>
      <point x="402" y="776"/>
      <point x="439" y="917" type="curve" smooth="yes"/>
      <point x="476" y="1058"/>
      <point x="530" y="1189"/>
      <point x="594" y="1285" type="curve" smooth="yes"/>
      <point x="657" y="1380"/>
      <point x="729" y="1440"/>
      <point x="805" y="1440" type="curve" smooth="yes"/>
      <point x="850" y="1440"/>
      <point x="882" y="1425"/>
      <point x="902" y="1402" type="curve" smooth="yes"/>
      <point x="922" y="1379"/>
      <point x="930" y="1347"/>
      <point x="930" y="1315" type="curve" smooth="yes"/>
      <point x="930" y="1275"/>
      <point x="918" y="1234"/>
      <point x="901" y="1200" type="curve" smooth="yes"/>
      <point x="884" y="1166"/>
      <point x="860" y="1138"/>
      <point x="836" y="1126" type="curve"/>
      <point x="875" y="1079"/>
      <point x="920" y="1073"/>
      <point x="952" y="1073" type="curve" smooth="yes"/>
      <point x="1004" y="1073"/>
      <point x="1040" y="1093"/>
      <point x="1064" y="1127" type="curve" smooth="yes"/>
      <point x="1087" y="1161"/>
      <point x="1096" y="1207"/>
      <point x="1096" y="1262" type="curve" smooth="yes"/>
      <point x="1096" y="1359"/>
      <point x="1059" y="1428"/>
      <point x="997" y="1472" type="curve" smooth="yes"/>
      <point x="935" y="1516"/>
      <point x="849" y="1536"/>
      <point x="754" y="1536" type="curve" smooth="yes"/>
      <point x="619" y="1536"/>
      <point x="508" y="1493"/>
      <point x="416" y="1422" type="curve" smooth="yes"/>
      <point x="324" y="1351"/>
      <point x="251" y="1253"/>
      <point x="195" y="1143" type="curve" smooth="yes"/>
      <point x="139" y="1033"/>
      <point x="100" y="911"/>
      <point x="75" y="794" type="curve" smooth="yes"/>
      <point x="50" y="677"/>
      <point x="39" y="564"/>
      <point x="39" y="471" type="curve" smooth="yes"/>
      <point x="39" y="292"/>
      <point x="73" y="168"/>
      <point x="143" y="88" type="curve" smooth="yes"/>
      <point x="213" y="8"/>
      <point x="317" y="-29"/>
      <point x="461" y="-33" type="curve"/>
      <point x="385" y="-244" type="line"/>
      <point x="408" y="-233"/>
      <point x="436" y="-219"/>
      <point x="492" y="-219" type="curve" smooth="yes"/>
      <point x="549" y="-219"/>
      <point x="571" y="-254"/>
      <point x="571" y="-293" type="curve" smooth="yes"/>
      <point x="571" y="-314"/>
      <point x="565" y="-336"/>
      <point x="554" y="-352" type="curve"/>
      <point x="542" y="-368"/>
      <point x="527" y="-379"/>
      <point x="510" y="-379" type="curve" smooth="yes"/>
      <point x="481" y="-379"/>
      <point x="463" y="-365"/>
      <point x="443" y="-351" type="curve" smooth="yes"/>
      <point x="422" y="-337"/>
      <point x="399" y="-324"/>
      <point x="358" y="-324" type="curve" smooth="yes"/>
      <point x="319" y="-324"/>
      <point x="295" y="-356"/>
      <point x="276" y="-389" type="curve"/>
      <point x="305" y="-405"/>
      <point x="334" y="-418"/>
      <point x="369" y="-429" type="curve" smooth="yes"/>
      <point x="404" y="-440"/>
      <point x="444" y="-446"/>
      <point x="496" y="-446" type="curve" smooth="yes"/>
    </contour>
  </outline>
</glyph>
<glyph name="Idieresis" format="1">
  <advance width="768"/>
  <unicode hex="00CF"/>
  <note>
	Idieresis
  </note>
  <outline>
    <contour>
      <point x="487" y="0" type="line"/>
      <point x="813" y="1532" type="line"/>
      <point x="786" y="1535"/>
      <point x="762" y="1536"/>
      <point x="731" y="1536" type="curve" smooth="yes"/>
      <point x="616" y="1536"/>
      <point x="499" y="1507"/>
      <point x="393" y="1459" type="curve" smooth="yes"/>
      <point x="287" y="1410"/>
      <point x="191" y="1342"/>
      <point x="123" y="1263" type="curve" smooth="yes"/>
      <point x="54" y="1184"/>
      <point x="12" y="1095"/>
      <point x="12" y="1004" type="curve" smooth="yes"/>
      <point x="12" y="929"/>
      <point x="32" y="880"/>
      <point x="69" y="849" type="curve" smooth="yes"/>
      <point x="105" y="818"/>
      <point x="160" y="805"/>
      <point x="231" y="805" type="curve"/>
      <point x="231" y="809"/>
      <point x="230" y="814"/>
      <point x="227" y="819" type="curve" smooth="yes"/>
      <point x="224" y="824"/>
      <point x="220" y="832"/>
      <point x="217" y="842" type="curve"/>
      <point x="210" y="861"/>
      <point x="203" y="892"/>
      <point x="203" y="944" type="curve" smooth="yes"/>
      <point x="203" y="1167"/>
      <point x="308" y="1316"/>
      <point x="489" y="1391" type="curve"/>
      <point x="193" y="0" type="line"/>
    </contour>
    <contour>
      <point x="540" y="1686"/>
      <point x="572" y="1700"/>
      <point x="595" y="1722" type="curve" smooth="yes"/>
      <point x="618" y="1744"/>
      <point x="632" y="1774"/>
      <point x="632" y="1810" type="curve" smooth="yes"/>
      <point x="632" y="1843"/>
      <point x="618" y="1875"/>
      <point x="595" y="1898" type="curve" smooth="yes"/>
      <point x="572" y="1921"/>
      <point x="540" y="1935"/>
      <point x="507" y="1935" type="curve" smooth="yes"/>
      <point x="471" y="1935"/>
      <point x="440" y="1921"/>
      <point x="418" y="1898" type="curve" smooth="yes"/>
      <point x="396" y="1875"/>
      <point x="382" y="1843"/>
      <point x="382" y="1810" type="curve" smooth="yes"/>
      <point x="382" y="1774"/>
      <point x="396" y="1744"/>
      <point x="418" y="1722" type="curve" smooth="yes"/>
      <point x="440" y="1700"/>
      <point x="471" y="1686"/>
      <point x="507" y="1686" type="curve" smooth="yes"/>
    </contour>
    <contour>
      <point x="909" y="1686"/>
      <point x="940" y="1700"/>
      <point x="964" y="1722" type="curve" smooth="yes"/>
      <point x="987" y="1744"/>
      <point x="1001" y="1774"/>
      <point x="1001" y="1810" type="curve" smooth="yes"/>
      <point x="1001" y="1843"/>
      <point x="987" y="1875"/>
      <point x="964" y="1898" type="curve" smooth="yes"/>
      <point x="940" y="1921"/>
      <point x="909" y="1935"/>
      <point x="876" y="1935" type="curve" smooth="yes"/>
      <point x="840" y="1935"/>
      <point x="809" y="1921"/>
      <point x="787" y="1898" type="curve" smooth="yes"/>
      <point x="765" y="1875"/>
      <point x="751" y="1843"/>
      <point x="751" y="1810" type="curve" smooth="yes"/>
      <point x="751" y="1774"/>
      <point x="765" y="1744"/>
      <point x="787" y="1722" type="curve" smooth="yes"/>
      <point x="809" y="1700"/>
      <point x="840" y="1686"/>
      <point x="876" y="1686" type="curve" smooth="yes"/>
    </contour>
  </outline>
</glyph>
<glyph name="Ntilde" format="1">
  <advance width="1405"/>
  <unicode hex="00D1"/>
  <note>
	Ntilde
  </note>
  <outline>
    <contour>
      <point x="383" y="0" type="line"/>
      <point x="617" y="1016" type="line"/>
      <point x="854" y="0" type="line"/>
      <point x="1137" y="0" type="line"/>
      <point x="1471" y="1532" type="line"/>
      <point x="1272" y="1532" type="line"/>
      <point x="1043" y="420" type="line"/>
      <point x="796" y="1516" type="line"/>
      <point x="739" y="1536"/>
      <point x="698" y="1544"/>
      <point x="634" y="1544" type="curve" smooth="yes"/>
      <point x="519" y="1544"/>
      <point x="413" y="1517"/>
      <point x="321" y="1470" type="curve" smooth="yes"/>
      <point x="229" y="1422"/>
      <point x="152" y="1355"/>
      <point x="98" y="1275" type="curve" smooth="yes"/>
      <point x="44" y="1195"/>
      <point x="12" y="1103"/>
      <point x="12" y="1006" type="curve" smooth="yes"/>
      <point x="12" y="853"/>
      <point x="93" y="784"/>
      <point x="268" y="784" type="curve"/>
      <point x="233" y="829"/>
      <point x="213" y="905"/>
      <point x="213" y="993" type="curve" smooth="yes"/>
      <point x="213" y="1193"/>
      <point x="308" y="1336"/>
      <point x="497" y="1403" type="curve"/>
      <point x="189" y="0" type="line"/>
    </contour>
    <contour>
      <point x="1199" y="1677"/>
      <point x="1278" y="1704"/>
      <point x="1338" y="1744" type="curve" smooth="yes"/>
      <point x="1398" y="1783"/>
      <point x="1441" y="1834"/>
      <point x="1452" y="1882" type="curve"/>
      <point x="1440" y="1884" type="line"/>
      <point x="1409" y="1853"/>
      <point x="1362" y="1837"/>
      <point x="1311" y="1837" type="curve" smooth="yes"/>
      <point x="1251" y="1837"/>
      <point x="1204" y="1854"/>
      <point x="1153" y="1871" type="curve" smooth="yes"/>
      <point x="1101" y="1888"/>
      <point x="1046" y="1905"/>
      <point x="973" y="1905" type="curve" smooth="yes"/>
      <point x="816" y="1905"/>
      <point x="696" y="1836"/>
      <point x="631" y="1704" type="curve"/>
      <point x="643" y="1700" type="line"/>
      <point x="682" y="1735"/>
      <point x="727" y="1753"/>
      <point x="778" y="1753" type="curve" smooth="yes"/>
      <point x="835" y="1753"/>
      <point x="887" y="1734"/>
      <point x="942" y="1715" type="curve" smooth="yes"/>
      <point x="997" y="1696"/>
      <point x="1054" y="1677"/>
      <point x="1122" y="1677" type="curve" smooth="yes"/>
    </contour>
  </outline>
</glyph>
<glyph name="Oacute" format="1">
  <advance width="1362"/>
  <unicode hex="00D3"/>
  <note>
	Oacute
  </note>
  <outline>
    <contour>
      <point x="767" y="-12"/>
      <point x="910" y="58"/>
      <point x="1022" y="166" type="curve" smooth="yes"/>
      <point x="1134" y="273"/>
      <point x="1214" y="419"/>
      <point x="1267" y="571" type="curve" smooth="yes"/>
      <point x="1319" y="722"/>
      <point x="1343" y="880"/>
      <point x="1343" y="1012" type="curve" smooth="yes"/>
      <point x="1343" y="1164"/>
      <point x="1311" y="1296"/>
      <point x="1235" y="1389" type="curve" smooth="yes"/>
      <point x="1159" y="1481"/>
      <point x="1038" y="1536"/>
      <point x="858" y="1536" type="curve" smooth="yes"/>
      <point x="714" y="1536"/>
      <point x="575" y="1506"/>
      <point x="452" y="1455" type="curve" smooth="yes"/>
      <point x="329" y="1404"/>
      <point x="226" y="1333"/>
      <point x="151" y="1250" type="curve" smooth="yes"/>
      <point x="76" y="1166"/>
      <point x="33" y="1073"/>
      <point x="33" y="977" type="curve" smooth="yes"/>
      <point x="33" y="852"/>
      <point x="109" y="805"/>
      <point x="240" y="805" type="curve"/>
      <point x="240" y="809"/>
      <point x="239" y="813"/>
      <point x="237" y="818" type="curve"/>
      <point x="234" y="823"/>
      <point x="232" y="829"/>
      <point x="230" y="837" type="curve"/>
      <point x="225" y="852"/>
      <point x="219" y="875"/>
      <point x="219" y="915" type="curve" smooth="yes"/>
      <point x="219" y="1078"/>
      <point x="288" y="1209"/>
      <point x="397" y="1301" type="curve" smooth="yes"/>
      <point x="505" y="1392"/>
      <point x="653" y="1442"/>
      <point x="809" y="1442" type="curve" smooth="yes"/>
      <point x="917" y="1442"/>
      <point x="982" y="1412"/>
      <point x="1021" y="1352" type="curve" smooth="yes"/>
      <point x="1060" y="1292"/>
      <point x="1071" y="1202"/>
      <point x="1071" y="1083" type="curve" smooth="yes"/>
      <point x="1071" y="946"/>
      <point x="1046" y="797"/>
      <point x="1006" y="659" type="curve" smooth="yes"/>
      <point x="966" y="521"/>
      <point x="910" y="395"/>
      <point x="846" y="303" type="curve" smooth="yes"/>
      <point x="782" y="211"/>
      <point x="712" y="154"/>
      <point x="643" y="154" type="curve" smooth="yes"/>
      <point x="600" y="154"/>
      <point x="571" y="179"/>
      <point x="552" y="221" type="curve" smooth="yes"/>
      <point x="533" y="263"/>
      <point x="524" y="322"/>
      <point x="524" y="391" type="curve" smooth="yes"/>
      <point x="524" y="496"/>
      <point x="543" y="625"/>
      <point x="576" y="754" type="curve" smooth="yes"/>
      <point x="608" y="882"/>
      <point x="654" y="1011"/>
      <point x="707" y="1117" type="curve" smooth="yes"/>
      <point x="760" y="1223"/>
      <point x="820" y="1306"/>
      <point x="883" y="1343" type="curve"/>
      <point x="844" y="1358"/>
      <point x="811" y="1360"/>
      <point x="776" y="1360" type="curve" smooth="yes"/>
      <point x="653" y="1360"/>
      <point x="551" y="1290"/>
      <point x="469" y="1185" type="curve" smooth="yes"/>
      <point x="387" y="1080"/>
      <point x="324" y="938"/>
      <point x="283" y="796" type="curve" smooth="yes"/>
      <point x="242" y="654"/>
      <point x="221" y="510"/>
      <point x="221" y="399" type="curve" smooth="yes"/>
      <point x="221" y="250"/>
      <point x="259" y="146"/>
      <point x="324" y="81" type="curve" smooth="yes"/>
      <point x="389" y="16"/>
      <point x="480" y="-12"/>
      <point x="588" y="-12" type="curve" smooth="yes"/>
    </contour>
    <contour>
      <point x="967" y="1661" type="line"/>
      <point x="1214" y="2048" type="line"/>
      <point x="999" y="2048" type="line"/>
      <point x="813" y="1661" type="line"/>
    </contour>
  </outline>
</glyph>
<glyph name="germandbls" format="1">
  <advance width="984"/>
  <unicode hex="00DF"/>
  <note>
	germandbls
  </note>
  <outline>
    <contour>
      <point x="135" y="-438" type="line"/>
      <point x="419" y="889" type="line" smooth="yes"/>
      <point x="452" y="1049"/>
      <point x="481" y="1153"/>
      <point x="509" y="1218" type="curve" smooth="yes"/>
      <point x="537" y="1282"/>
      <point x="566" y="1307"/>
      <point x="603" y="1307" type="curve" smooth="yes"/>
      <point x="660" y="1307"/>
      <point x="682" y="1264"/>
      <point x="682" y="1200" type="curve" smooth="yes"/>
      <point x="682" y="1149"/>
      <point x="669" y="1087"/>
      <point x="649" y="1023" type="curve" smooth="yes"/>
      <point x="628" y="959"/>
      <point x="601" y="895"/>
      <point x="574" y="840" type="curve" smooth="yes"/>
      <point x="547" y="785"/>
      <point x="520" y="742"/>
      <point x="499" y="719" type="curve"/>
      <point x="548" y="691"/>
      <point x="587" y="643"/>
      <point x="612" y="585" type="curve" smooth="yes"/>
      <point x="637" y="527"/>
      <point x="650" y="459"/>
      <point x="650" y="395" type="curve" smooth="yes"/>
      <point x="650" y="326"/>
      <point x="635" y="259"/>
      <point x="607" y="210" type="curve" smooth="yes"/>
      <point x="578" y="161"/>
      <point x="535" y="129"/>
      <point x="479" y="129" type="curve" smooth="yes"/>
      <point x="431" y="129"/>
      <point x="389" y="147"/>
      <point x="366" y="176" type="curve"/>
      <point x="341" y="156"/>
      <point x="327" y="123"/>
      <point x="327" y="92" type="curve" smooth="yes"/>
      <point x="327" y="27"/>
      <point x="386" y="-12"/>
      <point x="491" y="-12" type="curve" smooth="yes"/>
      <point x="624" y="-12"/>
      <point x="726" y="31"/>
      <point x="793" y="97" type="curve" smooth="yes"/>
      <point x="860" y="163"/>
      <point x="894" y="254"/>
      <point x="894" y="351" type="curve" smooth="yes"/>
      <point x="894" y="424"/>
      <point x="875" y="502"/>
      <point x="836" y="576" type="curve" smooth="yes"/>
      <point x="797" y="650"/>
      <point x="739" y="719"/>
      <point x="662" y="778" type="curve"/>
      <point x="690" y="814"/>
      <point x="740" y="882"/>
      <point x="782" y="965" type="curve" smooth="yes"/>
      <point x="824" y="1048"/>
      <point x="859" y="1144"/>
      <point x="859" y="1235" type="curve" smooth="yes"/>
      <point x="859" y="1359"/>
      <point x="760" y="1434"/>
      <point x="597" y="1434" type="curve" smooth="yes"/>
      <point x="353" y="1434"/>
      <point x="197" y="1241"/>
      <point x="114" y="844" type="curve" smooth="yes"/>
      <point x="-174" y="-512" type="line"/>
    </contour>
  </outline>
</glyph>
<glyph name="aacute" format="1">
  <advance width="1077"/>
  <unicode hex="00E1"/>
  <note>
	aacute
  </note>
  <outline>
    <contour>
      <point x="319" y="-12"/>
      <point x="380" y="12"/>
      <point x="429" y="48" type="curve" smooth="yes"/>
      <point x="478" y="83"/>
      <point x="518" y="129"/>
      <point x="551" y="176" type="curve"/>
      <point x="566" y="52"/>
      <point x="636" y="-12"/>
      <point x="752" y="-12" type="curve" smooth="yes"/>
      <point x="788" y="-12"/>
      <point x="833" y="-7"/>
      <point x="881" y="12" type="curve" smooth="yes"/>
      <point x="929" y="31"/>
      <point x="981" y="64"/>
      <point x="1030" y="120" type="curve" smooth="yes"/>
      <point x="1078" y="176"/>
      <point x="1124" y="256"/>
      <point x="1163" y="367" type="curve"/>
      <point x="1077" y="367" type="line"/>
      <point x="1062" y="315"/>
      <point x="1041" y="266"/>
      <point x="1013" y="231" type="curve" smooth="yes"/>
      <point x="985" y="196"/>
      <point x="951" y="174"/>
      <point x="911" y="174" type="curve" smooth="yes"/>
      <point x="855" y="174"/>
      <point x="827" y="203"/>
      <point x="827" y="262" type="curve" smooth="yes"/>
      <point x="827" y="283"/>
      <point x="829" y="305"/>
      <point x="836" y="328" type="curve"/>
      <point x="983" y="1024" type="line"/>
      <point x="688" y="1024" type="line"/>
      <point x="666" y="915" type="line"/>
      <point x="666" y="930" type="line" smooth="yes"/>
      <point x="666" y="989"/>
      <point x="616" y="1034"/>
      <point x="500" y="1034" type="curve" smooth="yes"/>
      <point x="381" y="1034"/>
      <point x="283" y="986"/>
      <point x="205" y="911" type="curve" smooth="yes"/>
      <point x="127" y="835"/>
      <point x="69" y="734"/>
      <point x="30" y="627" type="curve" smooth="yes"/>
      <point x="-9" y="520"/>
      <point x="-27" y="410"/>
      <point x="-27" y="317" type="curve" smooth="yes"/>
      <point x="-27" y="196"/>
      <point x="6" y="113"/>
      <point x="57" y="61" type="curve" smooth="yes"/>
      <point x="108" y="9"/>
      <point x="175" y="-12"/>
      <point x="246" y="-12" type="curve" smooth="yes"/>
    </contour>
    <contour>
      <point x="360" y="186"/>
      <point x="334" y="187"/>
      <point x="314" y="208" type="curve"/>
      <point x="293" y="228"/>
      <point x="276" y="267"/>
      <point x="276" y="346" type="curve" smooth="yes"/>
      <point x="276" y="410"/>
      <point x="288" y="494"/>
      <point x="312" y="578" type="curve" smooth="yes"/>
      <point x="335" y="661"/>
      <point x="368" y="743"/>
      <point x="411" y="805" type="curve" smooth="yes"/>
      <point x="454" y="867"/>
      <point x="506" y="907"/>
      <point x="563" y="907" type="curve" smooth="yes"/>
      <point x="596" y="907"/>
      <point x="617" y="894"/>
      <point x="630" y="878" type="curve"/>
      <point x="642" y="861"/>
      <point x="647" y="841"/>
      <point x="647" y="829" type="curve"/>
      <point x="549" y="367" type="line" smooth="yes"/>
      <point x="536" y="307"/>
      <point x="508" y="262"/>
      <point x="477" y="232" type="curve" smooth="yes"/>
      <point x="445" y="202"/>
      <point x="410" y="186"/>
      <point x="379" y="186" type="curve" smooth="yes"/>
    </contour>
    <contour>
      <point x="655" y="1149" type="line"/>
      <point x="903" y="1536" type="line"/>
      <point x="688" y="1536" type="line"/>
      <point x="502" y="1149" type="line"/>
    </contour>
  </outline>
</glyph>
<glyph name="adieresis" format="1">
  <advance width="1077"/>
  <unicode hex="00E4"/>
  <note>
	adieresis
  </note>
  <outline>
    <contour>
      <point x="319" y="-12"/>
      <point x="380" y="12"/>
      <point x="429" y="48" type="curve" smooth="yes"/>
      <point x="478" y="83"/>
      <point x="518" y="129"/>
      <point x="551" y="176" type="curve"/>
      <point x="566" y="52"/>
      <point x="636" y="-12"/>
      <point x="752" y="-12" type="curve" smooth="yes"/>
      <point x="788" y="-12"/>
      <point x="833" y="-7"/>
      <point x="881" y="12" type="curve" smooth="yes"/>
      <point x="929" y="31"/>
      <point x="981" y="64"/>
      <point x="1030" y="120" type="curve" smooth="yes"/>
      <point x="1078" y="176"/>
      <point x="1124" y="256"/>
      <point x="1163" y="367" type="curve"/>
      <point x="1077" y="367" type="line"/>
      <point x="1062" y="315"/>
      <point x="1041" y="266"/>
      <point x="1013" y="231" type="curve" smooth="yes"/>
      <point x="985" y="196"/>
      <point x="951" y="174"/>
      <point x="911" y="174" type="curve" smooth="yes"/>
      <point x="855" y="174"/>
      <point x="827" y="203"/>
      <point x="827" y="262" type="curve" smooth="yes"/>
      <point x="827" y="283"/>
      <point x="829" y="305"/>
      <point x="836" y="328" type="curve"/>
      <point x="983" y="1024" type="line"/>
      <point x="688" y="1024" type="line"/>
      <point x="666" y="915" type="line"/>
      <point x="666" y="930" type="line" smooth="yes"/>
      <point x="666" y="989"/>
      <point x="616" y="1034"/>
      <point x="500" y="1034" type="curve" smooth="yes"/>
      <point x="381" y="1034"/>
      <point x="283" y="986"/>
      <point x="205" y="911" type="curve" smooth="yes"/>
      <point x="127" y="835"/>
      <point x="69" y="734"/>
      <point x="30" y="627" type="curve" smooth="yes"/>
      <point x="-9" y="520"/>
      <point x="-27" y="410"/>
      <point x="-27" y="317" type="curve" smooth="yes"/>
      <point x="-27" y="196"/>
      <point x="6" y="113"/>
      <point x="57" y="61" type="curve" smooth="yes"/>
      <point x="108" y="9"/>
      <point x="175" y="-12"/>
      <point x="246" y="-12" type="curve" smooth="yes"/>
    </contour>
    <contour>
      <point x="360" y="186"/>
      <point x="334" y="187"/>
      <point x="314" y="208" type="curve"/>
      <point x="293" y="228"/>
      <point x="276" y="267"/>
      <point x="276" y="346" type="curve" smooth="yes"/>
      <point x="276" y="410"/>
      <point x="288" y="494"/>
      <point x="312" y="578" type="curve" smooth="yes"/>
      <point x="335" y="661"/>
      <point x="368" y="743"/>
      <point x="411" y="805" type="curve" smooth="yes"/>
      <point x="454" y="867"/>
      <point x="506" y="907"/>
      <point x="563" y="907" type="curve" smooth="yes"/>
      <point x="596" y="907"/>
      <point x="617" y="894"/>
      <point x="630" y="878" type="curve"/>
      <point x="642" y="861"/>
      <point x="647" y="841"/>
      <point x="647" y="829" type="curve"/>
      <point x="549" y="367" type="line" smooth="yes"/>
      <point x="536" y="307"/>
      <point x="508" y="262"/>
      <point x="477" y="232" type="curve" smooth="yes"/>
      <point x="445" y="202"/>
      <point x="410" y="186"/>
      <point x="379" y="186" type="curve" smooth="yes"/>
    </contour>
    <contour>
      <point x="527" y="1174"/>
      <point x="558" y="1188"/>
      <point x="581" y="1210" type="curve" smooth="yes"/>
      <point x="604" y="1232"/>
      <point x="618" y="1262"/>
      <point x="618" y="1298" type="curve" smooth="yes"/>
      <point x="618" y="1331"/>
      <point x="604" y="1363"/>
      <point x="581" y="1386" type="curve" smooth="yes"/>
      <point x="558" y="1409"/>
      <point x="527" y="1423"/>
      <point x="494" y="1423" type="curve" smooth="yes"/>
      <point x="458" y="1423"/>
      <point x="427" y="1409"/>
      <point x="405" y="1386" type="curve" smooth="yes"/>
      <point x="383" y="1363"/>
      <point x="369" y="1331"/>
      <point x="369" y="1298" type="curve" smooth="yes"/>
      <point x="369" y="1262"/>
      <point x="383" y="1232"/>
      <point x="405" y="1210" type="curve" smooth="yes"/>
      <point x="427" y="1188"/>
      <point x="458" y="1174"/>
      <point x="494" y="1174" type="curve" smooth="yes"/>
    </contour>
    <contour>
      <point x="895" y="1174"/>
      <point x="927" y="1188"/>
      <point x="950" y="1210" type="curve" smooth="yes"/>
      <point x="973" y="1232"/>
      <point x="987" y="1262"/>
      <point x="987" y="1298" type="curve" smooth="yes"/>
      <point x="987" y="1331"/>
      <point x="973" y="1363"/>
      <point x="950" y="1386" type="curve" smooth="yes"/>
      <point x="927" y="1409"/>
      <point x="895" y="1423"/>
      <point x="862" y="1423" type="curve" smooth="yes"/>
      <point x="826" y="1423"/>
      <point x="796" y="1409"/>
      <point x="773" y="1386" type="curve" smooth="yes"/>
      <point x="750" y="1363"/>
      <point x="737" y="1331"/>
      <point x="737" y="1298" type="curve" smooth="yes"/>
      <point x="737" y="1262"/>
      <point x="750" y="1232"/>
      <point x="773" y="1210" type="curve" smooth="yes"/>
      <point x="796" y="1188"/>
      <point x="826" y="1174"/>
      <point x="862" y="1174" type="curve" smooth="yes"/>
    </contour>
  </outline>
</glyph>
<glyph name="ccedilla" format="1">
  <advance width="786"/>
  <unicode hex="00E7"/>
  <note>
	ccedilla
  </note>
  <outline>
    <contour>
      <point x="439" y="-446"/>
      <point x="502" y="-426"/>
      <point x="548" y="-389" type="curve" smooth="yes"/>
      <point x="594" y="-352"/>
      <point x="625" y="-296"/>
      <point x="625" y="-221" type="curve" smooth="yes"/>
      <point x="625" y="-157"/>
      <point x="586" y="-119"/>
      <point x="498" y="-119" type="curve" smooth="yes"/>
      <point x="469" y="-119"/>
      <point x="432" y="-124"/>
      <point x="389" y="-135" type="curve"/>
      <point x="449" y="10" type="line"/>
      <point x="541" y="38"/>
      <point x="620" y="89"/>
      <point x="687" y="153" type="curve" smooth="yes"/>
      <point x="754" y="216"/>
      <point x="809" y="291"/>
      <point x="856" y="367" type="curve"/>
      <point x="786" y="367" type="line"/>
      <point x="734" y="310"/>
      <point x="684" y="257"/>
      <point x="627" y="220" type="curve" smooth="yes"/>
      <point x="570" y="183"/>
      <point x="505" y="160"/>
      <point x="424" y="160" type="curve" smooth="yes"/>
      <point x="375" y="160"/>
      <point x="338" y="169"/>
      <point x="314" y="194" type="curve" smooth="yes"/>
      <point x="289" y="219"/>
      <point x="276" y="263"/>
      <point x="276" y="332" type="curve" smooth="yes"/>
      <point x="276" y="408"/>
      <point x="291" y="500"/>
      <point x="316" y="589" type="curve" smooth="yes"/>
      <point x="340" y="678"/>
      <point x="374" y="764"/>
      <point x="414" y="828" type="curve" smooth="yes"/>
      <point x="453" y="892"/>
      <point x="496" y="934"/>
      <point x="539" y="934" type="curve" smooth="yes"/>
      <point x="578" y="934"/>
      <point x="596" y="901"/>
      <point x="596" y="850" type="curve" smooth="yes"/>
      <point x="596" y="813"/>
      <point x="588" y="773"/>
      <point x="571" y="729" type="curve"/>
      <point x="596" y="713"/>
      <point x="620" y="705"/>
      <point x="643" y="705" type="curve" smooth="yes"/>
      <point x="672" y="705"/>
      <point x="700" y="717"/>
      <point x="720" y="742" type="curve" smooth="yes"/>
      <point x="740" y="767"/>
      <point x="752" y="803"/>
      <point x="752" y="854" type="curve" smooth="yes"/>
      <point x="752" y="899"/>
      <point x="741" y="947"/>
      <point x="706" y="983" type="curve" smooth="yes"/>
      <point x="671" y="1018"/>
      <point x="615" y="1042"/>
      <point x="524" y="1042" type="curve" smooth="yes"/>
      <point x="385" y="1042"/>
      <point x="279" y="987"/>
      <point x="197" y="906" type="curve" smooth="yes"/>
      <point x="115" y="825"/>
      <point x="59" y="716"/>
      <point x="24" y="608" type="curve" smooth="yes"/>
      <point x="-12" y="500"/>
      <point x="-27" y="392"/>
      <point x="-27" y="313" type="curve" smooth="yes"/>
      <point x="-27" y="197"/>
      <point x="4" y="116"/>
      <point x="60" y="64" type="curve" smooth="yes"/>
      <point x="116" y="12"/>
      <point x="196" y="-12"/>
      <point x="293" y="-12" type="curve" smooth="yes"/>
      <point x="313" y="-12"/>
      <point x="333" y="-11"/>
      <point x="352" y="-8" type="curve"/>
      <point x="268" y="-244" type="line"/>
      <point x="291" y="-233"/>
      <point x="319" y="-219"/>
      <point x="375" y="-219" type="curve" smooth="yes"/>
      <point x="432" y="-219"/>
      <point x="455" y="-254"/>
      <point x="455" y="-293" type="curve" smooth="yes"/>
      <point x="455" y="-314"/>
      <point x="448" y="-336"/>
      <point x="437" y="-352" type="curve" smooth="yes"/>
      <point x="426" y="-368"/>
      <point x="410" y="-379"/>
      <point x="393" y="-379" type="curve" smooth="yes"/>
      <point x="364" y="-379"/>
      <point x="346" y="-365"/>
      <point x="326" y="-351" type="curve" smooth="yes"/>
      <point x="306" y="-337"/>
      <point x="283" y="-324"/>
      <point x="242" y="-324" type="curve" smooth="yes"/>
      <point x="203" y="-324"/>
      <point x="179" y="-356"/>
      <point x="160" y="-389" type="curve"/>
      <point x="189" y="-405"/>
      <point x="219" y="-418"/>
      <point x="253" y="-429" type="curve" smooth="yes"/>
      <point x="287" y="-440"/>
      <point x="327" y="-446"/>
      <point x="379" y="-446" type="curve" smooth="yes"/>
    </contour>
  </outline>
</glyph>
<glyph name="divide" format="1">
  <advance width="850"/>
  <unicode hex="00F7"/>
  <note>
	divide
  </note>
  <outline>
    <contour>
      <point x="799" y="616" type="line"/>
      <point x="834" y="778" type="line"/>
      <point x="117" y="778" type="line"/>
      <point x="80" y="616" type="line"/>
    </contour>
    <contour>
      <point x="446" y="172"/>
      <point x="488" y="190"/>
      <point x="517" y="219" type="curve" smooth="yes"/>
      <point x="546" y="248"/>
      <point x="565" y="289"/>
      <point x="565" y="334" type="curve" smooth="yes"/>
      <point x="565" y="379"/>
      <point x="546" y="420"/>
      <point x="517" y="450" type="curve" smooth="yes"/>
      <point x="488" y="480"/>
      <point x="446" y="498"/>
      <point x="401" y="498" type="curve" smooth="yes"/>
      <point x="356" y="498"/>
      <point x="315" y="480"/>
      <point x="287" y="450" type="curve" smooth="yes"/>
      <point x="258" y="420"/>
      <point x="240" y="379"/>
      <point x="240" y="334" type="curve" smooth="yes"/>
      <point x="240" y="289"/>
      <point x="258" y="248"/>
      <point x="287" y="219" type="curve" smooth="yes"/>
      <point x="315" y="190"/>
      <point x="356" y="172"/>
      <point x="401" y="172" type="curve" smooth="yes"/>
    </contour>
    <contour>
      <point x="569" y="899"/>
      <point x="610" y="917"/>
      <point x="640" y="946" type="curve" smooth="yes"/>
      <point x="670" y="975"/>
      <point x="688" y="1016"/>
      <point x="688" y="1061" type="curve" smooth="yes"/>
      <point x="688" y="1106"/>
      <point x="670" y="1147"/>
      <point x="640" y="1177" type="curve" smooth="yes"/>
      <point x="610" y="1207"/>
      <point x="569" y="1225"/>
      <point x="524" y="1225" type="curve" smooth="yes"/>
      <point x="479" y="1225"/>
      <point x="438" y="1207"/>
      <point x="409" y="1177" type="curve" smooth="yes"/>
      <point x="380" y="1147"/>
      <point x="362" y="1106"/>
      <point x="362" y="1061" type="curve" smooth="yes"/>
      <point x="362" y="1016"/>
      <point x="380" y="975"/>
      <point x="409" y="946" type="curve" smooth="yes"/>
      <point x="438" y="917"/>
      <point x="479" y="899"/>
      <point x="524" y="899" type="curve" smooth="yes"/>
    </contour>
  </outline>
</glyph>
<glyph name="thorn" format="1">
  <advance width="969"/>
  <unicode hex="00FE"/>
  <note>
	thorn
  </note>
  <outline>
    <contour>
      <point x="123" y="-438" type="line"/>
      <point x="229" y="61" type="line"/>
      <point x="254" y="14"/>
      <point x="314" y="-12"/>
      <point x="401" y="-12" type="curve" smooth="yes"/>
      <point x="545" y="-12"/>
      <point x="673" y="64"/>
      <point x="763" y="189" type="curve" smooth="yes"/>
      <point x="853" y="313"/>
      <point x="907" y="488"/>
      <point x="907" y="688" type="curve" smooth="yes"/>
      <point x="907" y="925"/>
      <point x="829" y="1034"/>
      <point x="657" y="1034" type="curve" smooth="yes"/>
      <point x="564" y="1034"/>
      <point x="484" y="1005"/>
      <point x="418" y="946" type="curve"/>
      <point x="409" y="946" type="line"/>
      <point x="545" y="1540" type="line"/>
      <point x="241" y="1499" type="line"/>
      <point x="-187" y="-512" type="line"/>
    </contour>
    <contour>
      <point x="290" y="123"/>
      <point x="260" y="141"/>
      <point x="252" y="170" type="curve"/>
      <point x="383" y="786" type="line"/>
      <point x="422" y="853"/>
      <point x="473" y="887"/>
      <point x="526" y="887" type="curve" smooth="yes"/>
      <point x="593" y="887"/>
      <point x="626" y="823"/>
      <point x="626" y="696" type="curve" smooth="yes"/>
      <point x="626" y="600"/>
      <point x="610" y="505"/>
      <point x="583" y="421" type="curve" smooth="yes"/>
      <point x="555" y="336"/>
      <point x="517" y="261"/>
      <point x="473" y="208" type="curve" smooth="yes"/>
      <point x="429" y="155"/>
      <point x="378" y="123"/>
      <point x="329" y="123" type="curve" smooth="yes"/>
    </contour>
  </outline>
</glyph>
<glyph name="abreve" format="1">
  <advance width="1077"/>
  <unicode hex="0103"/>
  <note>
	abreve
  </note>
  <outline>
    <contour>
      <point x="319" y="-12"/>
      <point x="380" y="12"/>
      <point x="429" y="48" type="curve" smooth="yes"/>
      <point x="478" y="83"/>
      <point x="518" y="129"/>
      <point x="551" y="176" type="curve"/>
      <point x="566" y="52"/>
      <point x="636" y="-12"/>
      <point x="752" y="-12" type="curve" smooth="yes"/>
      <point x="788" y="-12"/>
      <point x="833" y="-7"/>
      <point x="881" y="12" type="curve" smooth="yes"/>
      <point x="929" y="31"/>
      <point x="981" y="64"/>
      <point x="1030" y="120" type="curve" smooth="yes"/>
      <point x="1078" y="176"/>
      <point x="1124" y="256"/>
      <point x="1163" y="367" type="curve"/>
      <point x="1077" y="367" type="line"/>
      <point x="1062" y="315"/>
      <point x="1041" y="266"/>
      <point x="1013" y="231" type="curve" smooth="yes"/>
      <point x="985" y="196"/>
      <point x="951" y="174"/>
      <point x="911" y="174" type="curve" smooth="yes"/>
      <point x="855" y="174"/>
      <point x="827" y="203"/>
      <point x="827" y="262" type="curve" smooth="yes"/>
      <point x="827" y="283"/>
      <point x="829" y="305"/>
      <point x="836" y="328" type="curve"/>
      <point x="983" y="1024" type="line"/>
      <point x="688" y="1024" type="line"/>
      <point x="666" y="915" type="line"/>
      <point x="666" y="930" type="line" smooth="yes"/>
      <point x="666" y="989"/>
      <point x="616" y="1034"/>
      <point x="500" y="1034" type="curve" smooth="yes"/>
      <point x="381" y="1034"/>
      <point x="283" y="986"/>
      <point x="205" y="911" type="curve" smooth="yes"/>
      <point x="127" y="835"/>
      <point x="69" y="734"/>
      <point x="30" y="627" type="curve" smooth="yes"/>
      <point x="-9" y="520"/>
      <point x="-27" y="410"/>
      <point x="-27" y="317" type="curve" smooth="yes"/>
      <point x="-27" y="196"/>
      <point x="6" y="113"/>
      <point x="57" y="61" type="curve" smooth="yes"/>
      <point x="108" y="9"/>
      <point x="175" y="-12"/>
      <point x="246" y="-12" type="curve" smooth="yes"/>
    </contour>
    <contour>
      <point x="360" y="186"/>
      <point x="334" y="187"/>
      <point x="314" y="208" type="curve"/>
      <point x="293" y="228"/>
      <point x="276" y="267"/>
      <point x="276" y="346" type="curve" smooth="yes"/>
      <point x="276" y="410"/>
      <point x="288" y="494"/>
      <point x="312" y="578" type="curve" smooth="yes"/>
      <point x="335" y="661"/>
      <point x="368" y="743"/>
      <point x="411" y="805" type="curve" smooth="yes"/>
      <point x="454" y="867"/>
      <point x="506" y="907"/>
      <point x="563" y="907" type="curve" smooth="yes"/>
      <point x="596" y="907"/>
      <point x="617" y="894"/>
      <point x="630" y="878" type="curve"/>
      <point x="642" y="861"/>
      <point x="647" y="841"/>
      <point x="647" y="829" type="curve"/>
      <point x="549" y="367" type="line" smooth="yes"/>
      <point x="536" y="307"/>
      <point x="508" y="262"/>
      <point x="477" y="232" type="curve" smooth="yes"/>
      <point x="445" y="202"/>
      <point x="410" y="186"/>
      <point x="379" y="186" type="curve" smooth="yes"/>
    </contour>
    <contour>
      <point x="732" y="1207"/>
      <point x="834" y="1237"/>
      <point x="911" y="1289" type="curve" smooth="yes"/>
      <point x="988" y="1340"/>
      <point x="1041" y="1410"/>
      <point x="1053" y="1490" type="curve"/>
      <point x="877" y="1490" type="line"/>
      <point x="870" y="1443"/>
      <point x="843" y="1401"/>
      <point x="803" y="1370" type="curve" smooth="yes"/>
      <point x="762" y="1339"/>
      <point x="709" y="1320"/>
      <point x="653" y="1320" type="curve" smooth="yes"/>
      <point x="550" y="1320"/>
      <point x="492" y="1381"/>
      <point x="492" y="1490" type="curve"/>
      <point x="309" y="1490" type="line"/>
      <point x="309" y="1303"/>
      <point x="417" y="1207"/>
      <point x="621" y="1207" type="curve" smooth="yes"/>
    </contour>
  </outline>
</glyph>
<glyph name="aogonek" format="1">
  <advance width="1077"/>
  <unicode hex="0105"/>
  <note>
	aogonek
  </note>
  <outline>
    <contour>
      <point x="805" y="-395"/>
      <point x="849" y="-375"/>
      <point x="886" y="-349" type="curve" smooth="yes"/>
      <point x="923" y="-323"/>
      <point x="953" y="-292"/>
      <point x="977" y="-268" type="curve"/>
      <point x="977" y="-244"/>
      <point x="978" y="-229"/>
      <point x="981" y="-205" type="curve"/>
      <point x="971" y="-212"/>
      <point x="960" y="-219"/>
      <point x="949" y="-227" type="curve" smooth="yes"/>
      <point x="938" y="-235"/>
      <point x="926" y="-242"/>
      <point x="915" y="-249" type="curve"/>
      <point x="891" y="-263"/>
      <point x="866" y="-274"/>
      <point x="842" y="-274" type="curve" smooth="yes"/>
      <point x="813" y="-274"/>
      <point x="793" y="-260"/>
      <point x="781" y="-240" type="curve"/>
      <point x="768" y="-221"/>
      <point x="762" y="-196"/>
      <point x="762" y="-172" type="curve" smooth="yes"/>
      <point x="762" y="-131"/>
      <point x="779" y="-90"/>
      <point x="802" y="-58" type="curve" smooth="yes"/>
      <point x="825" y="-26"/>
      <point x="854" y="-1"/>
      <point x="877" y="10" type="curve"/>
      <point x="926" y="31"/>
      <point x="977" y="64"/>
      <point x="1026" y="120" type="curve" smooth="yes"/>
      <point x="1075" y="176"/>
      <point x="1122" y="254"/>
      <point x="1163" y="367" type="curve"/>
      <point x="1077" y="367" type="line"/>
      <point x="1062" y="315"/>
      <point x="1041" y="266"/>
      <point x="1013" y="231" type="curve" smooth="yes"/>
      <point x="985" y="196"/>
      <point x="951" y="174"/>
      <point x="911" y="174" type="curve" smooth="yes"/>
      <point x="855" y="174"/>
      <point x="827" y="203"/>
      <point x="827" y="262" type="curve" smooth="yes"/>
      <point x="827" y="283"/>
      <point x="829" y="305"/>
      <point x="836" y="328" type="curve"/>
      <point x="983" y="1024" type="line"/>
      <point x="688" y="1024" type="line"/>
      <point x="666" y="915" type="line"/>
      <point x="666" y="930" type="line" smooth="yes"/>
      <point x="666" y="989"/>
      <point x="616" y="1034"/>
      <point x="500" y="1034" type="curve" smooth="yes"/>
      <point x="381" y="1034"/>
      <point x="283" y="986"/>
      <point x="205" y="911" type="curve" smooth="yes"/>
      <point x="127" y="835"/>
      <point x="69" y="734"/>
      <point x="30" y="627" type="curve" smooth="yes"/>
      <point x="-9" y="520"/>
      <point x="-27" y="410"/>
      <point x="-27" y="317" type="curve" smooth="yes"/>
      <point x="-27" y="196"/>
      <point x="6" y="113"/>
      <point x="57" y="61" type="curve" smooth="yes"/>
      <point x="108" y="9"/>
      <point x="175" y="-12"/>
      <point x="246" y="-12" type="curve" smooth="yes"/>
      <point x="319" y="-12"/>
      <point x="380" y="12"/>
      <point x="429" y="48" type="curve" smooth="yes"/>
      <point x="478" y="83"/>
      <point x="518" y="129"/>
      <point x="551" y="176" type="curve"/>
      <point x="562" y="60"/>
      <point x="624" y="1"/>
      <point x="723" y="-10" type="curve"/>
      <point x="635" y="-86"/>
      <point x="592" y="-164"/>
      <point x="592" y="-236" type="curve" smooth="yes"/>
      <point x="592" y="-272"/>
      <point x="605" y="-311"/>
      <point x="631" y="-342" type="curve" smooth="yes"/>
      <point x="657" y="-373"/>
      <point x="698" y="-395"/>
      <point x="754" y="-395" type="curve" smooth="yes"/>
    </contour>
    <contour>
      <point x="360" y="186"/>
      <point x="334" y="187"/>
      <point x="314" y="208" type="curve"/>
      <point x="293" y="228"/>
      <point x="276" y="267"/>
      <point x="276" y="346" type="curve" smooth="yes"/>
      <point x="276" y="410"/>
      <point x="288" y="494"/>
      <point x="312" y="578" type="curve" smooth="yes"/>
      <point x="335" y="661"/>
      <point x="368" y="743"/>
      <point x="411" y="805" type="curve" smooth="yes"/>
      <point x="454" y="867"/>
      <point x="506" y="907"/>
      <point x="563" y="907" type="curve" smooth="yes"/>
      <point x="596" y="907"/>
      <point x="617" y="894"/>
      <point x="630" y="878" type="curve"/>
      <point x="642" y="861"/>
      <point x="647" y="841"/>
      <point x="647" y="829" type="curve"/>
      <point x="549" y="367" type="line" smooth="yes"/>
      <point x="536" y="307"/>
      <point x="508" y="262"/>
      <point x="477" y="232" type="curve" smooth="yes"/>
      <point x="445" y="202"/>
      <point x="410" y="186"/>
      <point x="379" y="186" type="curve" smooth="yes"/>
    </contour>
  </outline>
</glyph>
<glyph name="Ccaron" format="1">
  <advance width="1018"/>
  <unicode hex="010C"/>
  <note>
	Ccaron
  </note>
  <outline>
    <contour>
      <point x="582" y="-33"/>
      <point x="700" y="-6"/>
      <point x="809" y="55" type="curve" smooth="yes"/>
      <point x="917" y="115"/>
      <point x="1016" y="211"/>
      <point x="1071" y="348" type="curve"/>
      <point x="1024" y="369" type="line"/>
      <point x="928" y="240"/>
      <point x="786" y="164"/>
      <point x="625" y="164" type="curve" smooth="yes"/>
      <point x="525" y="164"/>
      <point x="464" y="197"/>
      <point x="428" y="253" type="curve" smooth="yes"/>
      <point x="391" y="309"/>
      <point x="379" y="388"/>
      <point x="379" y="483" type="curve" smooth="yes"/>
      <point x="379" y="622"/>
      <point x="402" y="776"/>
      <point x="439" y="917" type="curve" smooth="yes"/>
      <point x="476" y="1058"/>
      <point x="530" y="1189"/>
      <point x="594" y="1285" type="curve" smooth="yes"/>
      <point x="657" y="1380"/>
      <point x="729" y="1440"/>
      <point x="805" y="1440" type="curve" smooth="yes"/>
      <point x="850" y="1440"/>
      <point x="882" y="1425"/>
      <point x="902" y="1402" type="curve" smooth="yes"/>
      <point x="922" y="1379"/>
      <point x="930" y="1347"/>
      <point x="930" y="1315" type="curve" smooth="yes"/>
      <point x="930" y="1275"/>
      <point x="918" y="1234"/>
      <point x="901" y="1200" type="curve" smooth="yes"/>
      <point x="884" y="1166"/>
      <point x="860" y="1138"/>
      <point x="836" y="1126" type="curve"/>
      <point x="875" y="1079"/>
      <point x="920" y="1073"/>
      <point x="952" y="1073" type="curve" smooth="yes"/>
      <point x="1004" y="1073"/>
      <point x="1040" y="1093"/>
      <point x="1064" y="1127" type="curve" smooth="yes"/>
      <point x="1087" y="1161"/>
      <point x="1096" y="1207"/>
      <point x="1096" y="1262" type="curve" smooth="yes"/>
      <point x="1096" y="1359"/>
      <point x="1059" y="1428"/>
      <point x="997" y="1472" type="curve" smooth="yes"/>
      <point x="935" y="1516"/>
      <point x="849" y="1536"/>
      <point x="754" y="1536" type="curve" smooth="yes"/>
      <point x="619" y="1536"/>
      <point x="508" y="1493"/>
      <point x="416" y="1422" type="curve" smooth="yes"/>
      <point x="324" y="1351"/>
      <point x="251" y="1253"/>
      <point x="195" y="1143" type="curve" smooth="yes"/>
      <point x="139" y="1033"/>
      <point x="100" y="911"/>
      <point x="75" y="794" type="curve" smooth="yes"/>
      <point x="50" y="677"/>
      <point x="39" y="564"/>
      <point x="39" y="471" type="curve" smooth="yes"/>
      <point x="39" y="287"/>
      <point x="76" y="161"/>
      <point x="150" y="81" type="curve" smooth="yes"/>
      <point x="224" y="1"/>
      <point x="335" y="-33"/>
      <point x="487" y="-33" type="curve" smooth="yes"/>
    </contour>
    <contour>
      <point x="764" y="1661" type="line"/>
      <point x="1198" y="2048" type="line"/>
      <point x="1108" y="2048" type="line"/>
      <point x="786" y="1884" type="line"/>
      <point x="664" y="2048" type="line"/>
      <point x="598" y="2048" type="line"/>
      <point x="721" y="1661" type="line"/>
    </contour>
  </outline>
</glyph>
<glyph name="Eogonek" format="1">
  <advance width="940"/>
  <unicode hex="0118"/>
  <note>
	Eogonek
  </note>
  <outline>
    <contour>
      <point x="666" y="-395"/>
      <point x="710" y="-375"/>
      <point x="747" y="-349" type="curve" smooth="yes"/>
      <point x="784" y="-323"/>
      <point x="814" y="-292"/>
      <point x="838" y="-268" type="curve"/>
      <point x="838" y="-244"/>
      <point x="839" y="-229"/>
      <point x="842" y="-205" type="curve"/>
      <point x="832" y="-212"/>
      <point x="821" y="-219"/>
      <point x="810" y="-227" type="curve" smooth="yes"/>
      <point x="799" y="-235"/>
      <point x="787" y="-242"/>
      <point x="776" y="-249" type="curve"/>
      <point x="752" y="-263"/>
      <point x="727" y="-274"/>
      <point x="702" y="-274" type="curve" smooth="yes"/>
      <point x="674" y="-274"/>
      <point x="654" y="-260"/>
      <point x="642" y="-240" type="curve"/>
      <point x="629" y="-221"/>
      <point x="623" y="-196"/>
      <point x="623" y="-172" type="curve" smooth="yes"/>
      <point x="623" y="-130"/>
      <point x="630" y="-94"/>
      <point x="644" y="-65" type="curve" smooth="yes"/>
      <point x="671" y="-7"/>
      <point x="716" y="35"/>
      <point x="771" y="75" type="curve" smooth="yes"/>
      <point x="798" y="94"/>
      <point x="826" y="116"/>
      <point x="853" y="141" type="curve" smooth="yes"/>
      <point x="908" y="189"/>
      <point x="959" y="251"/>
      <point x="991" y="348" type="curve"/>
      <point x="944" y="369" type="line"/>
      <point x="905" y="304"/>
      <point x="865" y="254"/>
      <point x="813" y="222" type="curve" smooth="yes"/>
      <point x="761" y="189"/>
      <point x="700" y="172"/>
      <point x="621" y="172" type="curve" smooth="yes"/>
      <point x="554" y="172"/>
      <point x="495" y="203"/>
      <point x="452" y="252" type="curve" smooth="yes"/>
      <point x="408" y="301"/>
      <point x="381" y="369"/>
      <point x="381" y="444" type="curve" smooth="yes"/>
      <point x="381" y="516"/>
      <point x="405" y="592"/>
      <point x="462" y="664" type="curve" smooth="yes"/>
      <point x="518" y="735"/>
      <point x="606" y="801"/>
      <point x="737" y="856" type="curve"/>
      <point x="640" y="900"/>
      <point x="573" y="955"/>
      <point x="530" y="1013" type="curve" smooth="yes"/>
      <point x="486" y="1071"/>
      <point x="467" y="1134"/>
      <point x="467" y="1194" type="curve" smooth="yes"/>
      <point x="467" y="1262"/>
      <point x="492" y="1326"/>
      <point x="536" y="1372" type="curve" smooth="yes"/>
      <point x="580" y="1418"/>
      <point x="642" y="1446"/>
      <point x="717" y="1446" type="curve" smooth="yes"/>
      <point x="782" y="1446"/>
      <point x="817" y="1417"/>
      <point x="834" y="1383" type="curve" smooth="yes"/>
      <point x="851" y="1349"/>
      <point x="852" y="1310"/>
      <point x="852" y="1294" type="curve" smooth="yes"/>
      <point x="852" y="1269"/>
      <point x="842" y="1230"/>
      <point x="826" y="1197" type="curve" smooth="yes"/>
      <point x="809" y="1164"/>
      <point x="786" y="1134"/>
      <point x="762" y="1126" type="curve"/>
      <point x="801" y="1079"/>
      <point x="846" y="1073"/>
      <point x="879" y="1073" type="curve" smooth="yes"/>
      <point x="931" y="1073"/>
      <point x="966" y="1093"/>
      <point x="990" y="1127" type="curve" smooth="yes"/>
      <point x="1013" y="1161"/>
      <point x="1022" y="1207"/>
      <point x="1022" y="1262" type="curve" smooth="yes"/>
      <point x="1022" y="1359"/>
      <point x="976" y="1428"/>
      <point x="905" y="1472" type="curve" smooth="yes"/>
      <point x="834" y="1516"/>
      <point x="741" y="1536"/>
      <point x="645" y="1536" type="curve" smooth="yes"/>
      <point x="500" y="1536"/>
      <point x="385" y="1490"/>
      <point x="308" y="1421" type="curve" smooth="yes"/>
      <point x="231" y="1352"/>
      <point x="190" y="1258"/>
      <point x="190" y="1165" type="curve" smooth="yes"/>
      <point x="190" y="1106"/>
      <point x="206" y="1049"/>
      <point x="239" y="995" type="curve" smooth="yes"/>
      <point x="272" y="941"/>
      <point x="324" y="891"/>
      <point x="393" y="854" type="curve"/>
      <point x="270" y="830"/>
      <point x="178" y="765"/>
      <point x="116" y="682" type="curve" smooth="yes"/>
      <point x="54" y="599"/>
      <point x="23" y="498"/>
      <point x="23" y="401" type="curve" smooth="yes"/>
      <point x="23" y="296"/>
      <point x="58" y="192"/>
      <point x="129" y="116" type="curve" smooth="yes"/>
      <point x="200" y="39"/>
      <point x="305" y="-12"/>
      <point x="446" y="-12" type="curve" smooth="yes"/>
      <point x="497" y="-12"/>
      <point x="549" y="-9"/>
      <point x="600" y="2" type="curve"/>
      <point x="504" y="-74"/>
      <point x="453" y="-161"/>
      <point x="453" y="-236" type="curve" smooth="yes"/>
      <point x="453" y="-272"/>
      <point x="466" y="-311"/>
      <point x="492" y="-342" type="curve" smooth="yes"/>
      <point x="518" y="-373"/>
      <point x="558" y="-395"/>
      <point x="614" y="-395" type="curve" smooth="yes"/>
    </contour>
  </outline>
</glyph>
<glyph name="Hbar" format="1">
  <advance width="1362"/>
  <unicode hex="0126"/>
  <note>
	Hbar
  </note>
  <outline>
    <contour>
      <point x="500" y="0" type="line"/>
      <point x="664" y="770" type="line"/>
      <point x="965" y="770" type="line"/>
      <point x="801" y="0" type="line"/>
      <point x="1096" y="0" type="line"/>
      <point x="1320" y="1057" type="line"/>
      <point x="1490" y="1057" type="line"/>
      <point x="1519" y="1160" type="line"/>
      <point x="1342" y="1160" type="line"/>
      <point x="1421" y="1532" type="line"/>
      <point x="1126" y="1532" type="line"/>
      <point x="1046" y="1160" type="line"/>
      <point x="745" y="1160" type="line"/>
      <point x="825" y="1532" type="line"/>
      <point x="798" y="1535"/>
      <point x="774" y="1536"/>
      <point x="743" y="1536" type="curve" smooth="yes"/>
      <point x="628" y="1536"/>
      <point x="512" y="1507"/>
      <point x="405" y="1459" type="curve" smooth="yes"/>
      <point x="298" y="1410"/>
      <point x="203" y="1342"/>
      <point x="135" y="1263" type="curve" smooth="yes"/>
      <point x="67" y="1184"/>
      <point x="25" y="1095"/>
      <point x="25" y="1004" type="curve" smooth="yes"/>
      <point x="25" y="929"/>
      <point x="44" y="880"/>
      <point x="81" y="849" type="curve" smooth="yes"/>
      <point x="118" y="818"/>
      <point x="173" y="805"/>
      <point x="244" y="805" type="curve"/>
      <point x="244" y="809"/>
      <point x="243" y="814"/>
      <point x="240" y="819" type="curve" smooth="yes"/>
      <point x="237" y="824"/>
      <point x="233" y="832"/>
      <point x="230" y="842" type="curve"/>
      <point x="222" y="861"/>
      <point x="215" y="892"/>
      <point x="215" y="944" type="curve" smooth="yes"/>
      <point x="215" y="1164"/>
      <point x="321" y="1317"/>
      <point x="502" y="1393" type="curve"/>
      <point x="452" y="1160" type="line"/>
      <point x="363" y="1160" type="line"/>
      <point x="334" y="1057" type="line"/>
      <point x="430" y="1057" type="line"/>
      <point x="205" y="0" type="line"/>
    </contour>
    <contour>
      <point x="723" y="1057" type="line"/>
      <point x="1024" y="1057" type="line"/>
      <point x="995" y="922" type="line"/>
      <point x="694" y="922" type="line"/>
    </contour>
  </outline>
</glyph>
<glyph name="Itilde" format="1">
  <advance width="768"/>
  <unicode hex="0128"/>
  <note>
	Itilde
  </note>
  <outline>
    <contour>
      <point x="487" y="0" type="line"/>
      <point x="813" y="1532" type="line"/>
      <point x="786" y="1535"/>
      <point x="762" y="1536"/>
      <point x="731" y="1536" type="curve" smooth="yes"/>
      <point x="616" y="1536"/>
      <point x="499" y="1507"/>
      <point x="393" y="1459" type="curve" smooth="yes"/>
      <point x="287" y="1410"/>
      <point x="191" y="1342"/>
      <point x="123" y="1263" type="curve" smooth="yes"/>
      <point x="54" y="1184"/>
      <point x="12" y="1095"/>
      <point x="12" y="1004" type="curve" smooth="yes"/>
      <point x="12" y="929"/>
      <point x="32" y="880"/>
      <point x="69" y="849" type="curve" smooth="yes"/>
      <point x="105" y="818"/>
      <point x="160" y="805"/>
      <point x="231" y="805" type="curve"/>
      <point x="231" y="809"/>
      <point x="230" y="814"/>
      <point x="227" y="819" type="curve" smooth="yes"/>
      <point x="224" y="824"/>
      <point x="220" y="832"/>
      <point x="217" y="842" type="curve"/>
      <point x="210" y="861"/>
      <point x="203" y="892"/>
      <point x="203" y="944" type="curve" smooth="yes"/>
      <point x="203" y="1167"/>
      <point x="308" y="1316"/>
      <point x="489" y="1391" type="curve"/>
      <point x="193" y="0" type="line"/>
    </contour>
    <contour>
      <point x="839" y="1677"/>
      <point x="918" y="1704"/>
      <point x="978" y="1744" type="curve" smooth="yes"/>
      <point x="1038" y="1783"/>
      <point x="1081" y="1834"/>
      <point x="1092" y="1882" type="curve"/>
      <point x="1080" y="1884" type="line"/>
      <point x="1049" y="1853"/>
      <point x="1002" y="1837"/>
      <point x="951" y="1837" type="curve" smooth="yes"/>
      <point x="891" y="1837"/>
      <point x="844" y="1854"/>
      <point x="793" y="1871" type="curve" smooth="yes"/>
      <point x="741" y="1888"/>
      <point x="686" y="1905"/>
      <point x="613" y="1905" type="curve" smooth="yes"/>
      <point x="456" y="1905"/>
      <point x="336" y="1836"/>
      <point x="271" y="1704" type="curve"/>
      <point x="283" y="1700" type="line"/>
      <point x="322" y="1735"/>
      <point x="367" y="1753"/>
      <point x="418" y="1753" type="curve" smooth="yes"/>
      <point x="475" y="1753"/>
      <point x="527" y="1734"/>
      <point x="582" y="1715" type="curve" smooth="yes"/>
      <point x="637" y="1696"/>
      <point x="694" y="1677"/>
      <point x="762" y="1677" type="curve" smooth="yes"/>
    </contour>
  </outline>
</glyph>
<glyph name="Ibreve" format="1">
  <advance width="768"/>
  <unicode hex="012C"/>
  <note>
	Ibreve
  </note>
  <outline>
    <contour>
      <point x="487" y="0" type="line"/>
      <point x="813" y="1532" type="line"/>
      <point x="786" y="1535"/>
      <point x="762" y="1536"/>
      <point x="731" y="1536" type="curve" smooth="yes"/>
      <point x="616" y="1536"/>
      <point x="499" y="1507"/>
      <point x="393" y="1459" type="curve" smooth="yes"/>
      <point x="287" y="1410"/>
      <point x="191" y="1342"/>
      <point x="123" y="1263" type="curve" smooth="yes"/>
      <point x="54" y="1184"/>
      <point x="12" y="1095"/>
      <point x="12" y="1004" type="curve" smooth="yes"/>
      <point x="12" y="929"/>
      <point x="32" y="880"/>
      <point x="69" y="849" type="curve" smooth="yes"/>
      <point x="105" y="818"/>
      <point x="160" y="805"/>
      <point x="231" y="805" type="curve"/>
      <point x="231" y="809"/>
      <point x="230" y="814"/>
      <point x="227" y="819" type="curve" smooth="yes"/>
      <point x="224" y="824"/>
      <point x="220" y="832"/>
      <point x="217" y="842" type="curve"/>
      <point x="210" y="861"/>
      <point x="203" y="892"/>
      <point x="203" y="944" type="curve" smooth="yes"/>
      <point x="203" y="1167"/>
      <point x="308" y="1316"/>
      <point x="489" y="1391" type="curve"/>
      <point x="193" y="0" type="line"/>
    </contour>
    <contour>
      <point x="778" y="1670"/>
      <point x="880" y="1700"/>
      <point x="957" y="1752" type="curve" smooth="yes"/>
      <point x="1034" y="1803"/>
      <point x="1087" y="1873"/>
      <point x="1099" y="1953" type="curve"/>
      <point x="923" y="1953" type="line"/>
      <point x="916" y="1906"/>
      <point x="889" y="1864"/>
      <point x="849" y="1833" type="curve" smooth="yes"/>
      <point x="808" y="1802"/>
      <point x="755" y="1783"/>
      <point x="699" y="1783" type="curve" smooth="yes"/>
      <point x="596" y="1783"/>
      <point x="538" y="1844"/>
      <point x="538" y="1953" type="curve"/>
      <point x="355" y="1953" type="line"/>
      <point x="355" y="1766"/>
      <point x="463" y="1670"/>
      <point x="667" y="1670" type="curve" smooth="yes"/>
    </contour>
  </outline>
</glyph>
<glyph name="IJ" format="1">
  <advance width="1358"/>
  <unicode hex="0132"/>
  <note>
	IJ
  </note>
  <outline>
    <contour>
      <point x="719" y="-424"/>
      <point x="832" y="-369"/>
      <point x="913" y="-278" type="curve" smooth="yes"/>
      <point x="993" y="-187"/>
      <point x="1042" y="-61"/>
      <point x="1071" y="82" type="curve" smooth="yes"/>
      <point x="1378" y="1536" type="line"/>
      <point x="1071" y="1468" type="line"/>
      <point x="735" y="-70" type="line" smooth="yes"/>
      <point x="714" y="-173"/>
      <point x="687" y="-234"/>
      <point x="655" y="-272" type="curve" smooth="yes"/>
      <point x="623" y="-310"/>
      <point x="587" y="-322"/>
      <point x="547" y="-322" type="curve" smooth="yes"/>
      <point x="502" y="-322"/>
      <point x="465" y="-307"/>
      <point x="440" y="-282" type="curve" smooth="yes"/>
      <point x="415" y="-257"/>
      <point x="401" y="-222"/>
      <point x="401" y="-182" type="curve" smooth="yes"/>
      <point x="401" y="-141"/>
      <point x="416" y="-104"/>
      <point x="440" y="-77" type="curve" smooth="yes"/>
      <point x="464" y="-50"/>
      <point x="498" y="-33"/>
      <point x="535" y="-33" type="curve" smooth="yes"/>
      <point x="570" y="-33"/>
      <point x="604" y="-49"/>
      <point x="635" y="-80" type="curve"/>
      <point x="644" y="-55"/>
      <point x="649" y="-32"/>
      <point x="649" y="-12" type="curve" smooth="yes"/>
      <point x="649" y="57"/>
      <point x="596" y="106"/>
      <point x="512" y="119" type="curve"/>
      <point x="813" y="1532" type="line"/>
      <point x="786" y="1535"/>
      <point x="762" y="1536"/>
      <point x="731" y="1536" type="curve" smooth="yes"/>
      <point x="616" y="1536"/>
      <point x="499" y="1507"/>
      <point x="393" y="1459" type="curve" smooth="yes"/>
      <point x="287" y="1410"/>
      <point x="191" y="1342"/>
      <point x="123" y="1263" type="curve" smooth="yes"/>
      <point x="54" y="1184"/>
      <point x="12" y="1095"/>
      <point x="12" y="1004" type="curve" smooth="yes"/>
      <point x="12" y="929"/>
      <point x="32" y="880"/>
      <point x="69" y="849" type="curve" smooth="yes"/>
      <point x="105" y="818"/>
      <point x="160" y="805"/>
      <point x="231" y="805" type="curve"/>
      <point x="231" y="809"/>
      <point x="230" y="814"/>
      <point x="227" y="819" type="curve" smooth="yes"/>
      <point x="224" y="824"/>
      <point x="220" y="832"/>
      <point x="217" y="842" type="curve"/>
      <point x="210" y="861"/>
      <point x="203" y="892"/>
      <point x="203" y="944" type="curve" smooth="yes"/>
      <point x="203" y="1167"/>
      <point x="308" y="1316"/>
      <point x="489" y="1391" type="curve"/>
      <point x="193" y="0" type="line"/>
      <point x="260" y="0" type="line"/>
      <point x="240" y="-41"/>
      <point x="229" y="-87"/>
      <point x="229" y="-143" type="curve" smooth="yes"/>
      <point x="229" y="-224"/>
      <point x="255" y="-294"/>
      <point x="309" y="-344" type="curve" smooth="yes"/>
      <point x="363" y="-394"/>
      <point x="444" y="-424"/>
      <point x="559" y="-424" type="curve" smooth="yes"/>
    </contour>
  </outline>
</glyph>
<glyph name="ij" format="1">
  <advance width="1038"/>
  <unicode hex="0133"/>
  <note>
	ij
  </note>
  <outline>
    <contour>
      <point x="430" y="-512"/>
      <point x="507" y="-499"/>
      <point x="575" y="-448" type="curve" smooth="yes"/>
      <point x="643" y="-397"/>
      <point x="702" y="-311"/>
      <point x="731" y="-164" type="curve" smooth="yes"/>
      <point x="762" y="-16" type="line"/>
      <point x="826" y="0"/>
      <point x="896" y="28"/>
      <point x="960" y="86" type="curve" smooth="yes"/>
      <point x="1024" y="144"/>
      <point x="1083" y="231"/>
      <point x="1124" y="367" type="curve"/>
      <point x="1038" y="367" type="line"/>
      <point x="1010" y="278"/>
      <point x="977" y="216"/>
      <point x="935" y="170" type="curve" smooth="yes"/>
      <point x="893" y="124"/>
      <point x="843" y="95"/>
      <point x="780" y="74" type="curve"/>
      <point x="983" y="1024" type="line"/>
      <point x="688" y="1024" type="line"/>
      <point x="469" y="-8" type="line"/>
      <point x="390" y="-32"/>
      <point x="307" y="-66"/>
      <point x="243" y="-115" type="curve" smooth="yes"/>
      <point x="178" y="-164"/>
      <point x="133" y="-228"/>
      <point x="133" y="-313" type="curve" smooth="yes"/>
      <point x="133" y="-380"/>
      <point x="160" y="-430"/>
      <point x="201" y="-462" type="curve" smooth="yes"/>
      <point x="242" y="-495"/>
      <point x="299" y="-512"/>
      <point x="362" y="-512" type="curve" smooth="yes"/>
    </contour>
    <contour>
      <point x="291" y="-352"/>
      <point x="274" y="-343"/>
      <point x="263" y="-330" type="curve"/>
      <point x="251" y="-317"/>
      <point x="246" y="-300"/>
      <point x="246" y="-285" type="curve" smooth="yes"/>
      <point x="246" y="-244"/>
      <point x="270" y="-210"/>
      <point x="307" y="-182" type="curve" smooth="yes"/>
      <point x="343" y="-154"/>
      <point x="393" y="-131"/>
      <point x="446" y="-111" type="curve"/>
      <point x="434" y="-170" type="line" smooth="yes"/>
      <point x="421" y="-232"/>
      <point x="403" y="-278"/>
      <point x="381" y="-307" type="curve" smooth="yes"/>
      <point x="358" y="-337"/>
      <point x="336" y="-352"/>
      <point x="315" y="-352" type="curve" smooth="yes"/>
    </contour>
    <contour>
      <point x="256" y="-12"/>
      <point x="311" y="4"/>
      <point x="352" y="39" type="curve" smooth="yes"/>
      <point x="393" y="74"/>
      <point x="423" y="126"/>
      <point x="428" y="199" type="curve"/>
      <point x="413" y="192"/>
      <point x="401" y="186"/>
      <point x="362" y="186" type="curve" smooth="yes"/>
      <point x="305" y="186"/>
      <point x="279" y="205"/>
      <point x="279" y="262" type="curve" smooth="yes"/>
      <point x="279" y="283"/>
      <point x="280" y="305"/>
      <point x="287" y="328" type="curve"/>
      <point x="434" y="1024" type="line"/>
      <point x="139" y="1024" type="line"/>
      <point x="0" y="367" type="line" smooth="yes"/>
      <point x="-11" y="315"/>
      <point x="-16" y="270"/>
      <point x="-16" y="233" type="curve" smooth="yes"/>
      <point x="-16" y="146"/>
      <point x="8" y="86"/>
      <point x="48" y="46" type="curve" smooth="yes"/>
      <point x="87" y="6"/>
      <point x="142" y="-12"/>
      <point x="203" y="-12" type="curve" smooth="yes"/>
    </contour>
    <contour>
      <point x="387" y="1135"/>
      <point x="428" y="1153"/>
      <point x="458" y="1182" type="curve" smooth="yes"/>
      <point x="488" y="1210"/>
      <point x="506" y="1251"/>
      <point x="506" y="1296" type="curve" smooth="yes"/>
      <point x="506" y="1341"/>
      <point x="488" y="1382"/>
      <point x="458" y="1412" type="curve" smooth="yes"/>
      <point x="428" y="1442"/>
      <point x="387" y="1460"/>
      <point x="342" y="1460" type="curve" smooth="yes"/>
      <point x="297" y="1460"/>
      <point x="256" y="1442"/>
      <point x="227" y="1412" type="curve" smooth="yes"/>
      <point x="198" y="1382"/>
      <point x="180" y="1341"/>
      <point x="180" y="1296" type="curve" smooth="yes"/>
      <point x="180" y="1251"/>
      <point x="198" y="1210"/>
      <point x="227" y="1182" type="curve" smooth="yes"/>
      <point x="256" y="1153"/>
      <point x="297" y="1135"/>
      <point x="342" y="1135" type="curve" smooth="yes"/>
    </contour>
    <contour>
      <point x="917" y="1137"/>
      <point x="959" y="1155"/>
      <point x="988" y="1184" type="curve" smooth="yes"/>
      <point x="1017" y="1212"/>
      <point x="1036" y="1253"/>
      <point x="1036" y="1298" type="curve" smooth="yes"/>
      <point x="1036" y="1343"/>
      <point x="1017" y="1385"/>
      <point x="988" y="1414" type="curve" smooth="yes"/>
      <point x="959" y="1443"/>
      <point x="917" y="1462"/>
      <point x="872" y="1462" type="curve" smooth="yes"/>
      <point x="827" y="1462"/>
      <point x="786" y="1443"/>
      <point x="758" y="1414" type="curve" smooth="yes"/>
      <point x="729" y="1385"/>
      <point x="711" y="1343"/>
      <point x="711" y="1298" type="curve" smooth="yes"/>
      <point x="711" y="1253"/>
      <point x="729" y="1212"/>
      <point x="758" y="1184" type="curve"/>
      <point x="786" y="1155"/>
      <point x="827" y="1137"/>
      <point x="872" y="1137" type="curve" smooth="yes"/>
    </contour>
  </outline>
</glyph>
<glyph name="jcircumflex" format="1">
  <advance width="492"/>
  <unicode hex="0135"/>
  <note>
	jcircumflex
  </note>
  <outline>
    <contour>
      <point x="-116" y="-512"/>
      <point x="-39" y="-499"/>
      <point x="29" y="-448" type="curve" smooth="yes"/>
      <point x="96" y="-397"/>
      <point x="155" y="-311"/>
      <point x="184" y="-164" type="curve" smooth="yes"/>
      <point x="215" y="-16" type="line"/>
      <point x="279" y="0"/>
      <point x="349" y="28"/>
      <point x="414" y="86" type="curve" smooth="yes"/>
      <point x="478" y="144"/>
      <point x="537" y="231"/>
      <point x="578" y="367" type="curve"/>
      <point x="492" y="367" type="line"/>
      <point x="463" y="278"/>
      <point x="430" y="216"/>
      <point x="388" y="170" type="curve" smooth="yes"/>
      <point x="346" y="124"/>
      <point x="296" y="95"/>
      <point x="233" y="74" type="curve"/>
      <point x="436" y="1024" type="line"/>
      <point x="141" y="1024" type="line"/>
      <point x="-78" y="-8" type="line"/>
      <point x="-155" y="-32"/>
      <point x="-240" y="-66"/>
      <point x="-304" y="-115" type="curve" smooth="yes"/>
      <point x="-369" y="-164"/>
      <point x="-414" y="-228"/>
      <point x="-414" y="-313" type="curve" smooth="yes"/>
      <point x="-414" y="-380"/>
      <point x="-387" y="-430"/>
      <point x="-345" y="-462" type="curve" smooth="yes"/>
      <point x="-303" y="-495"/>
      <point x="-247" y="-512"/>
      <point x="-184" y="-512" type="curve" smooth="yes"/>
    </contour>
    <contour>
      <point x="-255" y="-352"/>
      <point x="-272" y="-343"/>
      <point x="-284" y="-330" type="curve" smooth="yes"/>
      <point x="-296" y="-317"/>
      <point x="-301" y="-300"/>
      <point x="-301" y="-285" type="curve" smooth="yes"/>
      <point x="-301" y="-244"/>
      <point x="-277" y="-210"/>
      <point x="-240" y="-182" type="curve" smooth="yes"/>
      <point x="-204" y="-154"/>
      <point x="-153" y="-131"/>
      <point x="-100" y="-111" type="curve"/>
      <point x="-113" y="-170" type="line" smooth="yes"/>
      <point x="-126" y="-232"/>
      <point x="-144" y="-278"/>
      <point x="-166" y="-307" type="curve" smooth="yes"/>
      <point x="-188" y="-337"/>
      <point x="-210" y="-352"/>
      <point x="-231" y="-352" type="curve" smooth="yes"/>
    </contour>
    <contour>
      <point x="69" y="1149" type="line"/>
      <point x="391" y="1313" type="line"/>
      <point x="514" y="1149" type="line"/>
      <point x="579" y="1149" type="line"/>
      <point x="456" y="1536" type="line"/>
      <point x="413" y="1536" type="line"/>
      <point x="-21" y="1149" type="line"/>
    </contour>
  </outline>
</glyph>
<glyph name="lcommaaccent" format="1">
  <advance width="547"/>
  <unicode hex="013C"/>
  <note>
	lcommaaccent
  </note>
  <outline>
    <contour>
      <point x="239" y="-12"/>
      <point x="286" y="-7"/>
      <point x="337" y="12" type="curve" smooth="yes"/>
      <point x="388" y="31"/>
      <point x="443" y="64"/>
      <point x="495" y="120" type="curve" smooth="yes"/>
      <point x="546" y="176"/>
      <point x="594" y="256"/>
      <point x="633" y="367" type="curve"/>
      <point x="547" y="367" type="line"/>
      <point x="531" y="315"/>
      <point x="505" y="269"/>
      <point x="473" y="237" type="curve" smooth="yes"/>
      <point x="441" y="205"/>
      <point x="402" y="186"/>
      <point x="362" y="186" type="curve" smooth="yes"/>
      <point x="305" y="186"/>
      <point x="279" y="205"/>
      <point x="279" y="262" type="curve" smooth="yes"/>
      <point x="279" y="283"/>
      <point x="280" y="305"/>
      <point x="287" y="328" type="curve"/>
      <point x="522" y="1434" type="line"/>
      <point x="219" y="1393" type="line"/>
      <point x="0" y="367" type="line" smooth="yes"/>
      <point x="-11" y="315"/>
      <point x="-16" y="270"/>
      <point x="-16" y="233" type="curve" smooth="yes"/>
      <point x="-16" y="146"/>
      <point x="8" y="86"/>
      <point x="48" y="46" type="curve" smooth="yes"/>
      <point x="87" y="6"/>
      <point x="142" y="-12"/>
      <point x="203" y="-12" type="curve" smooth="yes"/>
    </contour>
    <contour>
      <point x="98" y="-477"/>
      <point x="143" y="-433"/>
      <point x="175" y="-386" type="curve" smooth="yes"/>
      <point x="206" y="-339"/>
      <point x="224" y="-289"/>
      <point x="224" y="-244" type="curve" smooth="yes"/>
      <point x="224" y="-173"/>
      <point x="181" y="-131"/>
      <point x="116" y="-131" type="curve" smooth="yes"/>
      <point x="48" y="-131"/>
      <point x="1" y="-171"/>
      <point x="1" y="-227" type="curve" smooth="yes"/>
      <point x="1" y="-260"/>
      <point x="19" y="-281"/>
      <point x="38" y="-300" type="curve" smooth="yes"/>
      <point x="57" y="-320"/>
      <point x="75" y="-338"/>
      <point x="75" y="-362" type="curve" smooth="yes"/>
      <point x="75" y="-375"/>
      <point x="70" y="-389"/>
      <point x="59" y="-404" type="curve" smooth="yes"/>
      <point x="48" y="-419"/>
      <point x="30" y="-441"/>
      <point x="5" y="-469" type="curve"/>
      <point x="46" y="-510" type="line"/>
    </contour>
  </outline>
</glyph>
<glyph name="ldot" format="1">
  <advance width="718"/>
  <unicode hex="0140"/>
  <note>
	ldot
  </note>
  <outline>
    <contour>
      <point x="252" y="-12"/>
      <point x="307" y="5"/>
      <point x="348" y="41" type="curve" smooth="yes"/>
      <point x="389" y="76"/>
      <point x="419" y="130"/>
      <point x="424" y="203" type="curve"/>
      <point x="409" y="196"/>
      <point x="397" y="190"/>
      <point x="358" y="190" type="curve" smooth="yes"/>
      <point x="294" y="190"/>
      <point x="274" y="225"/>
      <point x="274" y="272" type="curve" smooth="yes"/>
      <point x="274" y="291"/>
      <point x="276" y="309"/>
      <point x="283" y="332" type="curve"/>
      <point x="518" y="1438" type="line"/>
      <point x="215" y="1397" type="line"/>
      <point x="-4" y="371" type="line" smooth="yes"/>
      <point x="-15" y="319"/>
      <point x="-20" y="274"/>
      <point x="-20" y="238" type="curve" smooth="yes"/>
      <point x="-20" y="150"/>
      <point x="4" y="88"/>
      <point x="44" y="48" type="curve" smooth="yes"/>
      <point x="83" y="7"/>
      <point x="138" y="-12"/>
      <point x="199" y="-12" type="curve" smooth="yes"/>
    </contour>
    <contour>
      <point x="612" y="551"/>
      <point x="643" y="566"/>
      <point x="666" y="591" type="curve" smooth="yes"/>
      <point x="689" y="615"/>
      <point x="702" y="650"/>
      <point x="702" y="687" type="curve" smooth="yes"/>
      <point x="702" y="724"/>
      <point x="689" y="760"/>
      <point x="666" y="785" type="curve" smooth="yes"/>
      <point x="643" y="810"/>
      <point x="610" y="826"/>
      <point x="573" y="826" type="curve" smooth="yes"/>
      <point x="534" y="826"/>
      <point x="504" y="810"/>
      <point x="481" y="786" type="curve" smooth="yes"/>
      <point x="458" y="761"/>
      <point x="446" y="726"/>
      <point x="446" y="687" type="curve" smooth="yes"/>
      <point x="446" y="648"/>
      <point x="458" y="615"/>
      <point x="481" y="591" type="curve" smooth="yes"/>
      <point x="504" y="566"/>
      <point x="534" y="551"/>
      <point x="573" y="551" type="curve" smooth="yes"/>
    </contour>
  </outline>
</glyph>
<glyph name="Nacute" format="1">
  <advance width="1438"/>
  <unicode hex="0143"/>
  <note>
	Nacute
  </note>
  <outline>
    <contour>
      <point x="383" y="0" type="line"/>
      <point x="617" y="1016" type="line"/>
      <point x="854" y="0" type="line"/>
      <point x="1137" y="0" type="line"/>
      <point x="1471" y="1532" type="line"/>
      <point x="1272" y="1532" type="line"/>
      <point x="1043" y="420" type="line"/>
      <point x="796" y="1516" type="line"/>
      <point x="739" y="1536"/>
      <point x="698" y="1544"/>
      <point x="634" y="1544" type="curve" smooth="yes"/>
      <point x="519" y="1544"/>
      <point x="413" y="1517"/>
      <point x="321" y="1470" type="curve" smooth="yes"/>
      <point x="229" y="1422"/>
      <point x="152" y="1355"/>
      <point x="98" y="1275" type="curve" smooth="yes"/>
      <point x="44" y="1195"/>
      <point x="12" y="1103"/>
      <point x="12" y="1006" type="curve" smooth="yes"/>
      <point x="12" y="853"/>
      <point x="93" y="784"/>
      <point x="268" y="784" type="curve"/>
      <point x="233" y="829"/>
      <point x="213" y="905"/>
      <point x="213" y="993" type="curve" smooth="yes"/>
      <point x="213" y="1193"/>
      <point x="308" y="1336"/>
      <point x="497" y="1403" type="curve"/>
      <point x="189" y="0" type="line"/>
    </contour>
    <contour>
      <point x="1169" y="1661" type="line"/>
      <point x="1417" y="2048" type="line"/>
      <point x="1202" y="2048" type="line"/>
      <point x="1016" y="1661" type="line"/>
    </contour>
  </outline>
</glyph>
<glyph name="ncommaaccent" format="1">
  <advance width="1034"/>
  <unicode hex="0146"/>
  <note>
	ncommaaccent
  </note>
  <outline>
    <contour>
      <point x="794" y="-12"/>
      <point x="860" y="-1"/>
      <point x="928" y="52" type="curve" smooth="yes"/>
      <point x="995" y="104"/>
      <point x="1063" y="199"/>
      <point x="1120" y="367" type="curve"/>
      <point x="1034" y="367" type="line"/>
      <point x="1013" y="314"/>
      <point x="992" y="268"/>
      <point x="965" y="236" type="curve" smooth="yes"/>
      <point x="938" y="204"/>
      <point x="906" y="186"/>
      <point x="862" y="186" type="curve" smooth="yes"/>
      <point x="799" y="186"/>
      <point x="780" y="221"/>
      <point x="780" y="272" type="curve" smooth="yes"/>
      <point x="780" y="291"/>
      <point x="783" y="314"/>
      <point x="788" y="340" type="curve" smooth="yes"/>
      <point x="798" y="391"/>
      <point x="813" y="452"/>
      <point x="830" y="517" type="curve" smooth="yes"/>
      <point x="838" y="550"/>
      <point x="846" y="583"/>
      <point x="853" y="616" type="curve" smooth="yes"/>
      <point x="868" y="682"/>
      <point x="879" y="746"/>
      <point x="879" y="801" type="curve" smooth="yes"/>
      <point x="879" y="882"/>
      <point x="855" y="941"/>
      <point x="815" y="978" type="curve" smooth="yes"/>
      <point x="774" y="1015"/>
      <point x="716" y="1032"/>
      <point x="651" y="1032" type="curve" smooth="yes"/>
      <point x="619" y="1032"/>
      <point x="582" y="1028"/>
      <point x="541" y="1012" type="curve" smooth="yes"/>
      <point x="500" y="996"/>
      <point x="456" y="967"/>
      <point x="412" y="918" type="curve"/>
      <point x="434" y="1024" type="line"/>
      <point x="139" y="1024" type="line"/>
      <point x="-78" y="0" type="line"/>
      <point x="217" y="0" type="line"/>
      <point x="356" y="657" type="line"/>
      <point x="372" y="709"/>
      <point x="393" y="757"/>
      <point x="420" y="791" type="curve" smooth="yes"/>
      <point x="447" y="825"/>
      <point x="479" y="846"/>
      <point x="516" y="846" type="curve" smooth="yes"/>
      <point x="565" y="846"/>
      <point x="590" y="811"/>
      <point x="590" y="741" type="curve" smooth="yes"/>
      <point x="590" y="676"/>
      <point x="567" y="580"/>
      <point x="544" y="483" type="curve" smooth="yes"/>
      <point x="521" y="386"/>
      <point x="498" y="288"/>
      <point x="498" y="219" type="curve" smooth="yes"/>
      <point x="498" y="160"/>
      <point x="514" y="103"/>
      <point x="551" y="60" type="curve" smooth="yes"/>
      <point x="588" y="16"/>
      <point x="648" y="-12"/>
      <point x="739" y="-12" type="curve" smooth="yes"/>
    </contour>
    <contour>
      <point x="318" y="-477"/>
      <point x="363" y="-433"/>
      <point x="395" y="-386" type="curve" smooth="yes"/>
      <point x="426" y="-339"/>
      <point x="444" y="-289"/>
      <point x="444" y="-244" type="curve" smooth="yes"/>
      <point x="444" y="-173"/>
      <point x="401" y="-131"/>
      <point x="336" y="-131" type="curve" smooth="yes"/>
      <point x="268" y="-131"/>
      <point x="221" y="-171"/>
      <point x="221" y="-227" type="curve" smooth="yes"/>
      <point x="221" y="-260"/>
      <point x="239" y="-281"/>
      <point x="258" y="-300" type="curve" smooth="yes"/>
      <point x="277" y="-320"/>
      <point x="295" y="-338"/>
      <point x="295" y="-362" type="curve" smooth="yes"/>
      <point x="295" y="-375"/>
      <point x="290" y="-389"/>
      <point x="279" y="-404" type="curve" smooth="yes"/>
      <point x="268" y="-419"/>
      <point x="250" y="-441"/>
      <point x="225" y="-469" type="curve"/>
      <point x="266" y="-510" type="line"/>
    </contour>
  </outline>
</glyph>
<glyph name="ncaron" format="1">
  <advance width="1034"/>
  <unicode hex="0148"/>
  <note>
	ncaron
  </note>
  <outline>
    <contour>
      <point x="794" y="-12"/>
      <point x="860" y="-1"/>
      <point x="928" y="52" type="curve" smooth="yes"/>
      <point x="995" y="104"/>
      <point x="1063" y="199"/>
      <point x="1120" y="367" type="curve"/>
      <point x="1034" y="367" type="line"/>
      <point x="1013" y="314"/>
      <point x="992" y="268"/>
      <point x="965" y="236" type="curve" smooth="yes"/>
      <point x="938" y="204"/>
      <point x="906" y="186"/>
      <point x="862" y="186" type="curve" smooth="yes"/>
      <point x="799" y="186"/>
      <point x="780" y="221"/>
      <point x="780" y="272" type="curve" smooth="yes"/>
      <point x="780" y="291"/>
      <point x="783" y="314"/>
      <point x="788" y="340" type="curve" smooth="yes"/>
      <point x="798" y="391"/>
      <point x="813" y="452"/>
      <point x="830" y="517" type="curve" smooth="yes"/>
      <point x="838" y="550"/>
      <point x="846" y="583"/>
      <point x="853" y="616" type="curve" smooth="yes"/>
      <point x="868" y="682"/>
      <point x="879" y="746"/>
      <point x="879" y="801" type="curve" smooth="yes"/>
      <point x="879" y="882"/>
      <point x="855" y="941"/>
      <point x="815" y="978" type="curve" smooth="yes"/>
      <point x="774" y="1015"/>
      <point x="716" y="1032"/>
      <point x="651" y="1032" type="curve" smooth="yes"/>
      <point x="619" y="1032"/>
      <point x="582" y="1028"/>
      <point x="541" y="1012" type="curve" smooth="yes"/>
      <point x="500" y="996"/>
      <point x="456" y="967"/>
      <point x="412" y="918" type="curve"/>
      <point x="434" y="1024" type="line"/>
      <point x="139" y="1024" type="line"/>
      <point x="-78" y="0" type="line"/>
      <point x="217" y="0" type="line"/>
      <point x="356" y="657" type="line"/>
      <point x="372" y="709"/>
      <point x="393" y="757"/>
      <point x="420" y="791" type="curve" smooth="yes"/>
      <point x="447" y="825"/>
      <point x="479" y="846"/>
      <point x="516" y="846" type="curve" smooth="yes"/>
      <point x="565" y="846"/>
      <point x="590" y="811"/>
      <point x="590" y="741" type="curve" smooth="yes"/>
      <point x="590" y="676"/>
      <point x="567" y="580"/>
      <point x="544" y="483" type="curve" smooth="yes"/>
      <point x="521" y="386"/>
      <point x="498" y="288"/>
      <point x="498" y="219" type="curve" smooth="yes"/>
      <point x="498" y="160"/>
      <point x="514" y="103"/>
      <point x="551" y="60" type="curve" smooth="yes"/>
      <point x="588" y="16"/>
      <point x="648" y="-12"/>
      <point x="739" y="-12" type="curve" smooth="yes"/>
    </contour>
    <contour>
      <point x="531" y="1149" type="line"/>
      <point x="965" y="1536" type="line"/>
      <point x="875" y="1536" type="line"/>
      <point x="553" y="1372" type="line"/>
      <point x="430" y="1536" type="line"/>
      <point x="365" y="1536" type="line"/>
      <point x="488" y="1149" type="line"/>
    </contour>
  </outline>
</glyph>
<glyph name="Eng" format="1">
  <advance width="1481"/>
  <unicode hex="014A"/>
  <note>
	Eng
  </note>
  <outline>
    <contour>
      <point x="1019" y="-422"/>
      <point x="1184" y="-223"/>
      <point x="1272" y="170" type="curve" smooth="yes"/>
      <point x="1579" y="1540" type="line"/>
      <point x="1380" y="1540" type="line"/>
      <point x="1135" y="420" type="line"/>
      <point x="897" y="1516" type="line"/>
      <point x="834" y="1536"/>
      <point x="792" y="1544"/>
      <point x="735" y="1544" type="curve" smooth="yes"/>
      <point x="620" y="1544"/>
      <point x="514" y="1517"/>
      <point x="420" y="1470" type="curve" smooth="yes"/>
      <point x="326" y="1422"/>
      <point x="247" y="1355"/>
      <point x="192" y="1276" type="curve" smooth="yes"/>
      <point x="136" y="1196"/>
      <point x="104" y="1105"/>
      <point x="104" y="1008" type="curve" smooth="yes"/>
      <point x="104" y="853"/>
      <point x="183" y="784"/>
      <point x="360" y="784" type="curve"/>
      <point x="325" y="829"/>
      <point x="305" y="905"/>
      <point x="305" y="993" type="curve" smooth="yes"/>
      <point x="305" y="1193"/>
      <point x="409" y="1336"/>
      <point x="598" y="1403" type="curve"/>
      <point x="281" y="0" type="line"/>
      <point x="475" y="0" type="line"/>
      <point x="709" y="1016" type="line"/>
      <point x="981" y="0" type="line"/>
      <point x="965" y="-68" type="line" smooth="yes"/>
      <point x="948" y="-145"/>
      <point x="920" y="-208"/>
      <point x="886" y="-251" type="curve" smooth="yes"/>
      <point x="852" y="-295"/>
      <point x="810" y="-319"/>
      <point x="766" y="-319" type="curve" smooth="yes"/>
      <point x="702" y="-319"/>
      <point x="657" y="-274"/>
      <point x="657" y="-209" type="curve" smooth="yes"/>
      <point x="657" y="-181"/>
      <point x="666" y="-154"/>
      <point x="679" y="-135" type="curve" smooth="yes"/>
      <point x="692" y="-116"/>
      <point x="712" y="-104"/>
      <point x="733" y="-104" type="curve"/>
      <point x="722" y="-55"/>
      <point x="678" y="-23"/>
      <point x="618" y="-23" type="curve" smooth="yes"/>
      <point x="537" y="-23"/>
      <point x="485" y="-83"/>
      <point x="485" y="-182" type="curve" smooth="yes"/>
      <point x="485" y="-255"/>
      <point x="514" y="-314"/>
      <point x="564" y="-356" type="curve" smooth="yes"/>
      <point x="614" y="-398"/>
      <point x="686" y="-422"/>
      <point x="774" y="-422" type="curve" smooth="yes"/>
    </contour>
  </outline>
</glyph>
<glyph name="oe" format="1">
  <advance width="1358"/>
  <unicode hex="0153"/>
  <note>
	oe
  </note>
  <outline>
    <contour>
      <point x="415" y="-12"/>
      <point x="534" y="49"/>
      <point x="625" y="178" type="curve"/>
      <point x="668" y="74"/>
      <point x="762" y="0"/>
      <point x="901" y="0" type="curve" smooth="yes"/>
      <point x="1032" y="0"/>
      <point x="1148" y="52"/>
      <point x="1245" y="130" type="curve" smooth="yes"/>
      <point x="1342" y="208"/>
      <point x="1422" y="313"/>
      <point x="1479" y="418" type="curve"/>
      <point x="1386" y="418" type="line"/>
      <point x="1350" y="341"/>
      <point x="1290" y="273"/>
      <point x="1226" y="225" type="curve" smooth="yes"/>
      <point x="1161" y="176"/>
      <point x="1093" y="147"/>
      <point x="1042" y="147" type="curve" smooth="yes"/>
      <point x="1002" y="147"/>
      <point x="960" y="156"/>
      <point x="928" y="184" type="curve" smooth="yes"/>
      <point x="896" y="211"/>
      <point x="874" y="255"/>
      <point x="874" y="324" type="curve" smooth="yes"/>
      <point x="874" y="351"/>
      <point x="877" y="379"/>
      <point x="881" y="412" type="curve"/>
      <point x="945" y="419"/>
      <point x="1019" y="441"/>
      <point x="1087" y="475" type="curve" smooth="yes"/>
      <point x="1155" y="509"/>
      <point x="1219" y="556"/>
      <point x="1267" y="616" type="curve" smooth="yes"/>
      <point x="1314" y="675"/>
      <point x="1343" y="746"/>
      <point x="1343" y="829" type="curve" smooth="yes"/>
      <point x="1343" y="976"/>
      <point x="1252" y="1042"/>
      <point x="1081" y="1042" type="curve" smooth="yes"/>
      <point x="933" y="1042"/>
      <point x="830" y="975"/>
      <point x="754" y="870" type="curve"/>
      <point x="741" y="919"/>
      <point x="718" y="963"/>
      <point x="682" y="994" type="curve" smooth="yes"/>
      <point x="645" y="1025"/>
      <point x="593" y="1044"/>
      <point x="524" y="1044" type="curve" smooth="yes"/>
      <point x="381" y="1044"/>
      <point x="248" y="989"/>
      <point x="149" y="872" type="curve" smooth="yes"/>
      <point x="49" y="755"/>
      <point x="-14" y="575"/>
      <point x="-14" y="324" type="curve" smooth="yes"/>
      <point x="-14" y="201"/>
      <point x="9" y="119"/>
      <point x="61" y="65" type="curve" smooth="yes"/>
      <point x="112" y="11"/>
      <point x="190" y="-12"/>
      <point x="299" y="-12" type="curve" smooth="yes"/>
    </contour>
    <contour>
      <point x="355" y="186"/>
      <point x="321" y="194"/>
      <point x="297" y="218" type="curve" smooth="yes"/>
      <point x="272" y="242"/>
      <point x="258" y="281"/>
      <point x="258" y="342" type="curve" smooth="yes"/>
      <point x="258" y="397"/>
      <point x="267" y="480"/>
      <point x="287" y="566" type="curve" smooth="yes"/>
      <point x="306" y="652"/>
      <point x="335" y="742"/>
      <point x="376" y="810" type="curve" smooth="yes"/>
      <point x="416" y="878"/>
      <point x="468" y="924"/>
      <point x="532" y="924" type="curve" smooth="yes"/>
      <point x="591" y="924"/>
      <point x="611" y="885"/>
      <point x="618" y="817" type="curve"/>
      <point x="562" y="794"/>
      <point x="528" y="734"/>
      <point x="528" y="674" type="curve" smooth="yes"/>
      <point x="528" y="625"/>
      <point x="555" y="582"/>
      <point x="614" y="582" type="curve"/>
      <point x="601" y="482"/>
      <point x="578" y="384"/>
      <point x="543" y="310" type="curve" smooth="yes"/>
      <point x="507" y="236"/>
      <point x="459" y="186"/>
      <point x="395" y="186" type="curve" smooth="yes"/>
    </contour>
    <contour>
      <point x="912" y="574"/>
      <point x="932" y="642"/>
      <point x="957" y="705" type="curve" smooth="yes"/>
      <point x="981" y="768"/>
      <point x="1010" y="826"/>
      <point x="1043" y="867" type="curve" smooth="yes"/>
      <point x="1075" y="908"/>
      <point x="1110" y="934"/>
      <point x="1149" y="934" type="curve" smooth="yes"/>
      <point x="1178" y="934"/>
      <point x="1196" y="916"/>
      <point x="1207" y="892" type="curve" smooth="yes"/>
      <point x="1218" y="868"/>
      <point x="1221" y="839"/>
      <point x="1221" y="819" type="curve" smooth="yes"/>
      <point x="1221" y="747"/>
      <point x="1187" y="670"/>
      <point x="1129" y="611" type="curve" smooth="yes"/>
      <point x="1071" y="551"/>
      <point x="990" y="510"/>
      <point x="897" y="510" type="curve"/>
    </contour>
  </outline>
</glyph>
<glyph name="Scedilla" format="1">
  <advance width="1167"/>
  <unicode hex="015E"/>
  <note>
	uni015E
  </note>
  <outline>
    <contour>
      <point x="568" y="-463"/>
      <point x="636" y="-439"/>
      <point x="685" y="-400" type="curve" smooth="yes"/>
      <point x="734" y="-361"/>
      <point x="765" y="-309"/>
      <point x="765" y="-250" type="curve" smooth="yes"/>
      <point x="765" y="-167"/>
      <point x="709" y="-115"/>
      <point x="618" y="-115" type="curve" smooth="yes"/>
      <point x="591" y="-115"/>
      <point x="565" y="-119"/>
      <point x="509" y="-135" type="curve"/>
      <point x="549" y="-35" type="line"/>
      <point x="693" y="-26"/>
      <point x="819" y="27"/>
      <point x="909" y="110" type="curve" smooth="yes"/>
      <point x="999" y="193"/>
      <point x="1052" y="304"/>
      <point x="1052" y="431" type="curve" smooth="yes"/>
      <point x="1052" y="494"/>
      <point x="1041" y="552"/>
      <point x="1019" y="605" type="curve" smooth="yes"/>
      <point x="975" y="709"/>
      <point x="905" y="798"/>
      <point x="828" y="878" type="curve" smooth="yes"/>
      <point x="789" y="917"/>
      <point x="753" y="956"/>
      <point x="720" y="995" type="curve" smooth="yes"/>
      <point x="653" y="1072"/>
      <point x="604" y="1150"/>
      <point x="604" y="1241" type="curve" smooth="yes"/>
      <point x="604" y="1301"/>
      <point x="623" y="1353"/>
      <point x="656" y="1390" type="curve" smooth="yes"/>
      <point x="688" y="1426"/>
      <point x="735" y="1448"/>
      <point x="790" y="1448" type="curve" smooth="yes"/>
      <point x="881" y="1448"/>
      <point x="936" y="1393"/>
      <point x="936" y="1305" type="curve" smooth="yes"/>
      <point x="936" y="1234"/>
      <point x="903" y="1168"/>
      <point x="852" y="1131" type="curve"/>
      <point x="883" y="1090"/>
      <point x="925" y="1067"/>
      <point x="977" y="1067" type="curve" smooth="yes"/>
      <point x="1022" y="1067"/>
      <point x="1062" y="1087"/>
      <point x="1089" y="1121" type="curve" smooth="yes"/>
      <point x="1116" y="1155"/>
      <point x="1132" y="1203"/>
      <point x="1132" y="1260" type="curve" smooth="yes"/>
      <point x="1132" y="1347"/>
      <point x="1096" y="1419"/>
      <point x="1033" y="1469" type="curve" smooth="yes"/>
      <point x="969" y="1519"/>
      <point x="879" y="1547"/>
      <point x="768" y="1547" type="curve" smooth="yes"/>
      <point x="636" y="1547"/>
      <point x="522" y="1507"/>
      <point x="440" y="1440" type="curve" smooth="yes"/>
      <point x="358" y="1373"/>
      <point x="309" y="1280"/>
      <point x="309" y="1172" type="curve" smooth="yes"/>
      <point x="309" y="1092"/>
      <point x="336" y="1021"/>
      <point x="377" y="954" type="curve" smooth="yes"/>
      <point x="418" y="886"/>
      <point x="472" y="823"/>
      <point x="527" y="760" type="curve" smooth="yes"/>
      <point x="582" y="696"/>
      <point x="636" y="634"/>
      <point x="677" y="570" type="curve" smooth="yes"/>
      <point x="718" y="505"/>
      <point x="745" y="437"/>
      <point x="745" y="362" type="curve" smooth="yes"/>
      <point x="745" y="289"/>
      <point x="718" y="224"/>
      <point x="674" y="179" type="curve" smooth="yes"/>
      <point x="630" y="134"/>
      <point x="567" y="106"/>
      <point x="495" y="106" type="curve" smooth="yes"/>
      <point x="376" y="106"/>
      <point x="301" y="181"/>
      <point x="301" y="301" type="curve" smooth="yes"/>
      <point x="301" y="365"/>
      <point x="324" y="417"/>
      <point x="364" y="453" type="curve" smooth="yes"/>
      <point x="404" y="489"/>
      <point x="462" y="510"/>
      <point x="534" y="510" type="curve"/>
      <point x="518" y="594"/>
      <point x="448" y="645"/>
      <point x="352" y="645" type="curve" smooth="yes"/>
      <point x="273" y="645"/>
      <point x="202" y="610"/>
      <point x="151" y="552" type="curve" smooth="yes"/>
      <point x="100" y="494"/>
      <point x="69" y="413"/>
      <point x="69" y="322" type="curve" smooth="yes"/>
      <point x="69" y="219"/>
      <point x="107" y="134"/>
      <point x="175" y="72" type="curve" smooth="yes"/>
      <point x="243" y="10"/>
      <point x="340" y="-28"/>
      <point x="459" y="-36" type="curve"/>
      <point x="380" y="-236" type="line"/>
      <point x="389" y="-244" type="line"/>
      <point x="421" y="-227"/>
      <point x="458" y="-219"/>
      <point x="489" y="-219" type="curve" smooth="yes"/>
      <point x="542" y="-219"/>
      <point x="575" y="-248"/>
      <point x="575" y="-291" type="curve" smooth="yes"/>
      <point x="575" y="-340"/>
      <point x="533" y="-375"/>
      <point x="473" y="-375" type="curve" smooth="yes"/>
      <point x="421" y="-375"/>
      <point x="364" y="-350"/>
      <point x="325" y="-313" type="curve"/>
      <point x="290" y="-369" type="line"/>
      <point x="337" y="-429"/>
      <point x="412" y="-463"/>
      <point x="495" y="-463" type="curve" smooth="yes"/>
    </contour>
  </outline>
</glyph>
<glyph name="Tcedilla" format="1">
  <advance width="985"/>
  <unicode hex="0162"/>
  <note>
	uni0162
  </note>
  <outline>
    <contour>
      <point x="538" y="-463"/>
      <point x="606" y="-439"/>
      <point x="655" y="-400" type="curve" smooth="yes"/>
      <point x="704" y="-361"/>
      <point x="735" y="-309"/>
      <point x="735" y="-250" type="curve" smooth="yes"/>
      <point x="735" y="-167"/>
      <point x="679" y="-115"/>
      <point x="588" y="-115" type="curve" smooth="yes"/>
      <point x="561" y="-115"/>
      <point x="535" y="-119"/>
      <point x="479" y="-135" type="curve"/>
      <point x="533" y="0" type="line"/>
      <point x="616" y="0" type="line"/>
      <point x="899" y="1315" type="line"/>
      <point x="1012" y="1292"/>
      <point x="1116" y="1270"/>
      <point x="1217" y="1270" type="curve" smooth="yes"/>
      <point x="1380" y="1270"/>
      <point x="1466" y="1350"/>
      <point x="1473" y="1530" type="curve"/>
      <point x="1417" y="1507"/>
      <point x="1331" y="1487"/>
      <point x="1235" y="1487" type="curve" smooth="yes"/>
      <point x="1202" y="1487"/>
      <point x="1171" y="1488"/>
      <point x="1144" y="1491" type="curve"/>
      <point x="1088" y="1495"/>
      <point x="1039" y="1502"/>
      <point x="990" y="1511" type="curve" smooth="yes"/>
      <point x="965" y="1515"/>
      <point x="939" y="1519"/>
      <point x="912" y="1522" type="curve" smooth="yes"/>
      <point x="856" y="1529"/>
      <point x="794" y="1534"/>
      <point x="711" y="1534" type="curve" smooth="yes"/>
      <point x="458" y="1534"/>
      <point x="283" y="1469"/>
      <point x="172" y="1370" type="curve" smooth="yes"/>
      <point x="60" y="1271"/>
      <point x="12" y="1137"/>
      <point x="12" y="1001" type="curve" smooth="yes"/>
      <point x="12" y="928"/>
      <point x="32" y="878"/>
      <point x="69" y="847" type="curve" smooth="yes"/>
      <point x="105" y="816"/>
      <point x="160" y="803"/>
      <point x="231" y="803" type="curve"/>
      <point x="231" y="807"/>
      <point x="230" y="812"/>
      <point x="227" y="817" type="curve" smooth="yes"/>
      <point x="224" y="822"/>
      <point x="220" y="830"/>
      <point x="217" y="840" type="curve"/>
      <point x="210" y="859"/>
      <point x="203" y="890"/>
      <point x="203" y="942" type="curve" smooth="yes"/>
      <point x="203" y="1107"/>
      <point x="245" y="1211"/>
      <point x="314" y="1273" type="curve" smooth="yes"/>
      <point x="383" y="1335"/>
      <point x="480" y="1356"/>
      <point x="588" y="1356" type="curve" smooth="yes"/>
      <point x="612" y="1356" type="line"/>
      <point x="322" y="0" type="line"/>
      <point x="443" y="0" type="line"/>
      <point x="350" y="-236" type="line"/>
      <point x="359" y="-244" type="line"/>
      <point x="391" y="-227"/>
      <point x="428" y="-219"/>
      <point x="459" y="-219" type="curve" smooth="yes"/>
      <point x="512" y="-219"/>
      <point x="545" y="-248"/>
      <point x="545" y="-291" type="curve" smooth="yes"/>
      <point x="545" y="-340"/>
      <point x="503" y="-375"/>
      <point x="443" y="-375" type="curve" smooth="yes"/>
      <point x="391" y="-375"/>
      <point x="334" y="-350"/>
      <point x="295" y="-313" type="curve"/>
      <point x="260" y="-369" type="line"/>
      <point x="307" y="-429"/>
      <point x="382" y="-463"/>
      <point x="465" y="-463" type="curve" smooth="yes"/>
    </contour>
  </outline>
</glyph>
<glyph name="tcaron" format="1">
  <advance width="547"/>
  <unicode hex="0165"/>
  <note>
	tcaron
  </note>
  <outline>
    <contour>
      <point x="239" y="-12"/>
      <point x="286" y="-7"/>
      <point x="337" y="12" type="curve" smooth="yes"/>
      <point x="388" y="31"/>
      <point x="443" y="64"/>
      <point x="495" y="120" type="curve" smooth="yes"/>
      <point x="546" y="176"/>
      <point x="594" y="256"/>
      <point x="633" y="367" type="curve"/>
      <point x="547" y="367" type="line"/>
      <point x="531" y="315"/>
      <point x="505" y="269"/>
      <point x="473" y="237" type="curve" smooth="yes"/>
      <point x="441" y="205"/>
      <point x="402" y="186"/>
      <point x="362" y="186" type="curve" smooth="yes"/>
      <point x="305" y="186"/>
      <point x="279" y="205"/>
      <point x="279" y="262" type="curve" smooth="yes"/>
      <point x="279" y="283"/>
      <point x="280" y="305"/>
      <point x="287" y="328" type="curve"/>
      <point x="418" y="942" type="line"/>
      <point x="541" y="942" type="line"/>
      <point x="557" y="1024" type="line"/>
      <point x="434" y="1024" type="line"/>
      <point x="504" y="1348" type="line"/>
      <point x="201" y="1307" type="line"/>
      <point x="139" y="1024" type="line"/>
      <point x="72" y="1024" type="line"/>
      <point x="55" y="942" type="line"/>
      <point x="123" y="942" type="line"/>
      <point x="0" y="367" type="line" smooth="yes"/>
      <point x="-11" y="315"/>
      <point x="-16" y="270"/>
      <point x="-16" y="233" type="curve" smooth="yes"/>
      <point x="-16" y="146"/>
      <point x="8" y="86"/>
      <point x="48" y="46" type="curve" smooth="yes"/>
      <point x="87" y="6"/>
      <point x="142" y="-12"/>
      <point x="203" y="-12" type="curve" smooth="yes"/>
    </contour>
    <contour>
      <point x="706" y="1155"/>
      <point x="755" y="1208"/>
      <point x="791" y="1264" type="curve" smooth="yes"/>
      <point x="826" y="1319"/>
      <point x="846" y="1379"/>
      <point x="846" y="1432" type="curve" smooth="yes"/>
      <point x="846" y="1512"/>
      <point x="798" y="1563"/>
      <point x="723" y="1563" type="curve" smooth="yes"/>
      <point x="648" y="1563"/>
      <point x="596" y="1517"/>
      <point x="596" y="1450" type="curve" smooth="yes"/>
      <point x="596" y="1411"/>
      <point x="617" y="1386"/>
      <point x="637" y="1363" type="curve" smooth="yes"/>
      <point x="657" y="1340"/>
      <point x="678" y="1319"/>
      <point x="678" y="1290" type="curve" smooth="yes"/>
      <point x="678" y="1276"/>
      <point x="673" y="1260"/>
      <point x="662" y="1242" type="curve" smooth="yes"/>
      <point x="651" y="1223"/>
      <point x="630" y="1198"/>
      <point x="600" y="1165" type="curve"/>
      <point x="647" y="1118" type="line"/>
    </contour>
  </outline>
</glyph>
<glyph name="uogonek" format="1">
  <advance width="1034"/>
  <unicode hex="0173"/>
  <note>
	uogonek
  </note>
  <outline>
    <contour>
      <point x="756" y="-438"/>
      <point x="811" y="-420"/>
      <point x="858" y="-390" type="curve" smooth="yes"/>
      <point x="905" y="-360"/>
      <point x="945" y="-320"/>
      <point x="966" y="-272" type="curve"/>
      <point x="931" y="-225" type="line"/>
      <point x="886" y="-276"/>
      <point x="835" y="-305"/>
      <point x="784" y="-305" type="curve" smooth="yes"/>
      <point x="716" y="-305"/>
      <point x="671" y="-256"/>
      <point x="671" y="-180" type="curve" smooth="yes"/>
      <point x="671" y="-112"/>
      <point x="698" y="-51"/>
      <point x="745" y="-10" type="curve"/>
      <point x="800" y="-5"/>
      <point x="868" y="14"/>
      <point x="936" y="70" type="curve" smooth="yes"/>
      <point x="1003" y="125"/>
      <point x="1069" y="216"/>
      <point x="1120" y="367" type="curve"/>
      <point x="1034" y="367" type="line"/>
      <point x="1019" y="315"/>
      <point x="998" y="269"/>
      <point x="970" y="237" type="curve" smooth="yes"/>
      <point x="942" y="205"/>
      <point x="908" y="186"/>
      <point x="868" y="186" type="curve" smooth="yes"/>
      <point x="811" y="186"/>
      <point x="784" y="205"/>
      <point x="784" y="262" type="curve" smooth="yes"/>
      <point x="784" y="283"/>
      <point x="786" y="305"/>
      <point x="793" y="328" type="curve"/>
      <point x="940" y="1024" type="line"/>
      <point x="645" y="1024" type="line"/>
      <point x="506" y="367" type="line"/>
      <point x="490" y="315"/>
      <point x="470" y="269"/>
      <point x="443" y="237" type="curve" smooth="yes"/>
      <point x="415" y="205"/>
      <point x="382" y="186"/>
      <point x="342" y="186" type="curve" smooth="yes"/>
      <point x="295" y="186"/>
      <point x="281" y="223"/>
      <point x="281" y="270" type="curve" smooth="yes"/>
      <point x="281" y="287"/>
      <point x="283" y="307"/>
      <point x="287" y="328" type="curve" smooth="yes"/>
      <point x="434" y="1024" type="line"/>
      <point x="139" y="1024" type="line"/>
      <point x="0" y="367" type="line" smooth="yes"/>
      <point x="-11" y="315"/>
      <point x="-16" y="270"/>
      <point x="-16" y="233" type="curve" smooth="yes"/>
      <point x="-16" y="146"/>
      <point x="8" y="86"/>
      <point x="48" y="46" type="curve" smooth="yes"/>
      <point x="87" y="6"/>
      <point x="142" y="-12"/>
      <point x="203" y="-12" type="curve" smooth="yes"/>
      <point x="246" y="-12"/>
      <point x="296" y="-6"/>
      <point x="348" y="22" type="curve" smooth="yes"/>
      <point x="400" y="50"/>
      <point x="454" y="98"/>
      <point x="506" y="182" type="curve"/>
      <point x="517" y="78"/>
      <point x="566" y="15"/>
      <point x="646" y="-4" type="curve"/>
      <point x="549" y="-75"/>
      <point x="501" y="-156"/>
      <point x="501" y="-248" type="curve" smooth="yes"/>
      <point x="501" y="-303"/>
      <point x="523" y="-350"/>
      <point x="559" y="-384" type="curve" smooth="yes"/>
      <point x="595" y="-418"/>
      <point x="645" y="-438"/>
      <point x="704" y="-438" type="curve" smooth="yes"/>
    </contour>
  </outline>
</glyph>
<glyph name="Schwa" format="1">
  <advance width="1114"/>
  <unicode hex="018F"/>
  <note>
	Schwa
  </note>
  <outline>
    <contour>
      <point x="487" y="-12"/>
      <point x="612" y="44"/>
      <point x="722" y="137" type="curve" smooth="yes"/>
      <point x="832" y="230"/>
      <point x="927" y="361"/>
      <point x="995" y="512" type="curve" smooth="yes"/>
      <point x="1063" y="663"/>
      <point x="1104" y="835"/>
      <point x="1104" y="1008" type="curve" smooth="yes"/>
      <point x="1104" y="1185"/>
      <point x="1061" y="1323"/>
      <point x="979" y="1418" type="curve" smooth="yes"/>
      <point x="897" y="1513"/>
      <point x="776" y="1563"/>
      <point x="621" y="1563" type="curve" smooth="yes"/>
      <point x="501" y="1563"/>
      <point x="394" y="1533"/>
      <point x="318" y="1484" type="curve" smooth="yes"/>
      <point x="242" y="1435"/>
      <point x="195" y="1367"/>
      <point x="195" y="1290" type="curve" smooth="yes"/>
      <point x="195" y="1233"/>
      <point x="219" y="1182"/>
      <point x="260" y="1149" type="curve"/>
      <point x="316" y="1261"/>
      <point x="415" y="1321"/>
      <point x="543" y="1321" type="curve" smooth="yes"/>
      <point x="699" y="1321"/>
      <point x="770" y="1232"/>
      <point x="770" y="1036" type="curve" smooth="yes"/>
      <point x="770" y="1008"/>
      <point x="770" y="974"/>
      <point x="768" y="943" type="curve" smooth="yes"/>
      <point x="766" y="912"/>
      <point x="763" y="886"/>
      <point x="760" y="870" type="curve"/>
      <point x="640" y="870"/>
      <point x="520" y="839"/>
      <point x="413" y="785" type="curve" smooth="yes"/>
      <point x="306" y="731"/>
      <point x="214" y="656"/>
      <point x="147" y="570" type="curve" smooth="yes"/>
      <point x="80" y="484"/>
      <point x="41" y="386"/>
      <point x="41" y="289" type="curve" smooth="yes"/>
      <point x="41" y="200"/>
      <point x="73" y="124"/>
      <point x="129" y="72" type="curve" smooth="yes"/>
      <point x="185" y="19"/>
      <point x="265" y="-12"/>
      <point x="360" y="-12" type="curve" smooth="yes"/>
    </contour>
    <contour>
      <point x="321" y="139"/>
      <point x="295" y="180"/>
      <point x="295" y="268" type="curve" smooth="yes"/>
      <point x="295" y="351"/>
      <point x="318" y="434"/>
      <point x="358" y="507" type="curve" smooth="yes"/>
      <point x="398" y="579"/>
      <point x="454" y="644"/>
      <point x="520" y="691" type="curve" smooth="yes"/>
      <point x="586" y="738"/>
      <point x="660" y="768"/>
      <point x="739" y="772" type="curve"/>
      <point x="703" y="588"/>
      <point x="646" y="429"/>
      <point x="582" y="317" type="curve" smooth="yes"/>
      <point x="518" y="205"/>
      <point x="445" y="139"/>
      <point x="377" y="139" type="curve" smooth="yes"/>
    </contour>
  </outline>
</glyph>
<glyph name="florin" format="1">
  <advance width="547"/>
  <unicode hex="0192"/>
  <note>
	florin
  </note>
  <outline>
    <contour>
      <point x="-172" y="-512"/>
      <point x="-72" y="-461"/>
      <point x="14" y="-352" type="curve" smooth="yes"/>
      <point x="100" y="-243"/>
      <point x="173" y="-74"/>
      <point x="240" y="162" type="curve" smooth="yes"/>
      <point x="459" y="942" type="line"/>
      <point x="692" y="942" type="line"/>
      <point x="713" y="1024" type="line"/>
      <point x="481" y="1024" type="line"/>
      <point x="504" y="1104" type="line" smooth="yes"/>
      <point x="537" y="1224"/>
      <point x="567" y="1308"/>
      <point x="595" y="1363" type="curve" smooth="yes"/>
      <point x="622" y="1418"/>
      <point x="648" y="1442"/>
      <point x="676" y="1442" type="curve" smooth="yes"/>
      <point x="703" y="1442"/>
      <point x="717" y="1419"/>
      <point x="717" y="1380" type="curve" smooth="yes"/>
      <point x="717" y="1356"/>
      <point x="711" y="1327"/>
      <point x="702" y="1301" type="curve" smooth="yes"/>
      <point x="693" y="1275"/>
      <point x="681" y="1249"/>
      <point x="668" y="1233" type="curve"/>
      <point x="680" y="1206"/>
      <point x="717" y="1188"/>
      <point x="756" y="1188" type="curve" smooth="yes"/>
      <point x="795" y="1188"/>
      <point x="831" y="1209"/>
      <point x="856" y="1242" type="curve" smooth="yes"/>
      <point x="881" y="1274"/>
      <point x="897" y="1319"/>
      <point x="897" y="1370" type="curve" smooth="yes"/>
      <point x="897" y="1486"/>
      <point x="815" y="1550"/>
      <point x="674" y="1550" type="curve" smooth="yes"/>
      <point x="566" y="1550"/>
      <point x="475" y="1509"/>
      <point x="395" y="1423" type="curve" smooth="yes"/>
      <point x="315" y="1337"/>
      <point x="248" y="1205"/>
      <point x="188" y="1024" type="curve"/>
      <point x="41" y="1024" type="line"/>
      <point x="20" y="942" type="line"/>
      <point x="164" y="942" type="line"/>
      <point x="-96" y="12" type="line" smooth="yes"/>
      <point x="-136" y="-130"/>
      <point x="-172" y="-235"/>
      <point x="-204" y="-302" type="curve" smooth="yes"/>
      <point x="-236" y="-369"/>
      <point x="-266" y="-403"/>
      <point x="-293" y="-403" type="curve" smooth="yes"/>
      <point x="-317" y="-403"/>
      <point x="-334" y="-379"/>
      <point x="-334" y="-340" type="curve" smooth="yes"/>
      <point x="-334" y="-316"/>
      <point x="-328" y="-288"/>
      <point x="-319" y="-262" type="curve" smooth="yes"/>
      <point x="-311" y="-236"/>
      <point x="-298" y="-212"/>
      <point x="-285" y="-195" type="curve"/>
      <point x="-297" y="-168"/>
      <point x="-336" y="-150"/>
      <point x="-373" y="-150" type="curve" smooth="yes"/>
      <point x="-412" y="-150"/>
      <point x="-448" y="-170"/>
      <point x="-473" y="-203" type="curve" smooth="yes"/>
      <point x="-498" y="-236"/>
      <point x="-514" y="-281"/>
      <point x="-514" y="-332" type="curve" smooth="yes"/>
      <point x="-514" y="-447"/>
      <point x="-432" y="-512"/>
      <point x="-291" y="-512" type="curve" smooth="yes"/>
    </contour>
  </outline>
</glyph>
